{"glyphs":{"0":{"ha":1303,"x_min":58,"x_max":1244,"o":"m 651 944 q 1096 829 947 944 q 1244 465 1244 714 q 1097 100 1244 215 q 651 -15 949 -15 q 206 100 354 -15 q 58 465 58 215 q 207 829 58 714 q 651 944 356 944 m 651 226 q 796 235 736 226 q 892 271 856 244 q 944 344 928 297 q 961 465 961 390 q 944 587 961 540 q 892 659 928 633 q 796 694 856 685 q 651 703 736 703 q 506 694 565 703 q 411 659 447 685 q 358 587 375 633 q 342 465 342 540 q 358 344 342 390 q 411 271 375 297 q 506 235 447 244 q 651 226 565 226 z "},"1":{"ha":619,"x_min":17,"x_max":531,"o":"m 190 929 l 531 929 l 531 0 l 243 0 l 243 688 l 17 688 l 190 929 z "},"2":{"ha":1299,"x_min":67,"x_max":1240,"o":"m 290 929 l 835 929 q 1016 908 940 929 q 1140 850 1092 888 q 1210 759 1188 813 q 1233 640 1233 706 q 1213 531 1233 581 q 1149 447 1192 482 q 1040 393 1106 413 q 885 374 974 374 l 443 374 q 369 358 393 374 q 344 307 344 343 l 344 239 l 1240 239 l 1056 0 l 67 0 l 67 304 q 156 495 67 432 q 415 558 244 558 l 857 558 q 931 573 907 558 q 956 624 956 588 q 931 674 956 660 q 857 688 907 688 l 106 688 l 290 929 z "},"3":{"ha":1265,"x_min":13,"x_max":1208,"o":"m 196 239 l 832 239 q 900 256 879 239 q 921 304 921 272 q 900 351 921 335 q 832 367 879 367 l 275 367 l 424 565 l 836 565 q 892 578 868 565 q 917 628 917 592 q 892 675 917 663 q 836 688 867 688 l 58 688 l 243 929 l 824 929 q 974 913 907 929 q 1090 865 1042 897 q 1163 784 1138 832 q 1189 672 1189 736 q 1178 599 1189 631 q 1149 542 1167 567 q 1109 502 1132 518 q 1063 478 1086 486 q 1166 407 1124 460 q 1208 271 1208 354 q 1190 163 1208 213 q 1129 78 1172 114 q 1013 21 1086 42 q 831 0 940 0 l 13 0 l 196 239 z "},"4":{"ha":1333,"x_min":40,"x_max":1325,"o":"m 179 111 q 122 122 147 111 q 78 149 96 132 q 50 189 60 167 q 40 236 40 211 q 54 294 40 265 q 100 350 68 324 l 771 894 q 841 933 806 922 q 901 944 876 944 q 961 935 932 944 q 1012 904 990 925 q 1047 850 1033 883 q 1060 771 1060 817 l 1060 339 l 1325 339 l 1157 111 l 1060 111 l 1060 0 l 785 0 l 785 111 l 179 111 m 785 478 q 786 547 785 519 q 790 599 788 575 q 689 510 757 565 l 586 428 q 517 373 547 396 q 461 333 488 350 q 529 338 490 336 q 619 339 568 339 l 785 339 l 785 478 z "},"5":{"ha":1249,"x_min":58,"x_max":1190,"o":"m 1158 929 l 972 688 l 392 688 l 392 558 l 843 558 q 1101 495 1013 558 q 1190 304 1190 432 q 1097 81 1190 161 q 793 0 1004 0 l 58 0 l 243 239 l 815 239 q 890 255 865 239 q 914 307 914 271 q 890 358 914 343 q 815 374 865 374 l 107 374 l 107 929 l 1158 929 z "},"6":{"ha":1349,"x_min":58,"x_max":1290,"o":"m 604 688 q 453 653 518 688 q 356 558 388 618 l 943 558 q 1196 493 1101 558 q 1290 301 1290 428 q 1242 144 1290 206 q 1113 47 1193 82 q 927 -2 1032 11 q 710 -15 822 -15 q 224 102 389 -15 q 58 474 58 219 q 101 659 58 575 q 217 803 143 743 q 394 897 292 864 q 618 929 497 929 l 1217 929 l 1032 688 l 604 688 m 356 374 q 397 299 368 328 q 472 253 426 269 q 581 232 518 238 q 726 226 644 226 q 873 232 815 226 q 963 248 931 238 q 1007 274 994 258 q 1019 310 1019 290 q 921 374 1019 374 l 356 374 z "},"7":{"ha":1174,"x_min":17,"x_max":1161,"o":"m 519 0 l 157 0 l 613 513 q 674 582 649 553 q 720 632 700 611 q 755 667 740 653 q 783 694 769 682 q 741 692 764 693 q 688 690 718 690 q 616 688 657 689 q 521 688 575 688 l 17 688 l 200 929 l 1003 929 q 1122 892 1082 929 q 1161 806 1161 856 q 1151 754 1161 781 q 1115 699 1140 728 l 519 0 z "},"8":{"ha":1324,"x_min":58,"x_max":1265,"o":"m 435 0 q 252 21 325 0 q 136 78 179 42 q 76 163 93 114 q 58 271 58 213 q 100 407 58 354 q 204 478 142 460 q 156 502 179 486 q 116 542 133 518 q 88 599 99 567 q 76 672 76 631 q 102 784 76 736 q 176 865 128 832 q 291 913 224 897 q 442 929 358 929 l 882 929 q 1033 913 965 929 q 1148 865 1100 897 q 1222 784 1196 832 q 1247 672 1247 736 q 1236 599 1247 631 q 1208 542 1225 567 q 1167 502 1190 518 q 1119 478 1144 486 q 1224 407 1182 460 q 1265 271 1265 354 q 1248 163 1265 213 q 1188 78 1231 114 q 1072 21 1144 42 q 889 0 999 0 l 435 0 m 433 367 q 344 304 344 367 q 433 239 344 239 l 890 239 q 979 304 979 239 q 890 367 979 367 l 433 367 m 429 688 q 374 675 399 688 q 350 628 350 663 q 374 578 350 592 q 429 565 397 565 l 894 565 q 950 578 926 565 q 974 628 974 592 q 949 675 974 663 q 894 688 925 688 l 429 688 z "},"9":{"ha":1349,"x_min":58,"x_max":1290,"o":"m 744 239 q 901 284 839 239 q 993 392 963 329 q 937 384 968 388 q 845 377 906 381 q 681 372 785 374 q 406 371 576 371 q 153 436 247 371 q 58 628 58 501 q 107 785 58 724 q 236 881 156 846 q 422 931 317 917 q 639 944 526 944 q 1126 831 961 944 q 1290 485 1290 718 q 1248 282 1290 372 q 1131 129 1206 192 q 954 33 1057 67 q 731 0 851 0 l 144 0 l 331 239 l 744 239 m 428 556 q 612 556 535 556 q 745 558 689 557 q 839 559 801 558 q 904 561 876 560 q 952 565 932 563 q 993 569 972 567 q 953 640 982 614 q 878 681 925 667 q 767 699 832 694 q 622 703 703 703 q 475 697 532 703 q 386 681 418 692 q 342 656 354 671 q 329 619 329 640 q 428 556 329 556 z "},"\u0017":{"ha":532,"x_min":0,"x_max":0,"o":""}," ":{"ha":532,"x_min":0,"x_max":0,"o":""},"!":{"ha":451,"x_min":72,"x_max":385,"o":"m 369 929 l 369 619 l 338 346 l 113 346 l 82 619 l 82 929 l 369 929 m 72 118 q 117 219 72 183 q 229 254 163 254 q 340 219 294 254 q 385 118 385 183 q 340 19 385 54 q 229 -15 294 -15 q 117 19 163 -15 q 72 118 72 54 z "},"\"":{"ha":619,"x_min":24,"x_max":596,"o":"m 281 929 l 196 557 l 108 557 l 24 929 l 281 929 m 596 929 l 511 557 l 424 557 l 339 929 l 596 929 z "},"#":{"ha":929,"x_min":40,"x_max":904,"o":"m 904 738 l 843 538 l 697 538 l 660 419 l 807 419 l 746 221 l 600 221 l 532 0 l 374 0 l 442 221 l 333 221 l 267 0 l 110 0 l 176 221 l 40 221 l 103 419 l 238 419 l 274 538 l 139 538 l 201 738 l 335 738 l 394 929 l 551 929 l 493 738 l 600 738 l 658 929 l 817 929 l 757 738 l 904 738 m 539 538 l 431 538 l 396 419 l 503 419 l 539 538 z "},"$":{"ha":940,"x_min":49,"x_max":885,"o":"m 533 806 l 868 806 l 736 635 l 533 635 l 533 544 l 639 544 q 822 499 758 544 q 885 364 885 454 q 819 207 885 264 q 603 150 753 150 l 533 150 l 533 0 l 419 0 l 419 150 l 49 150 l 181 318 l 419 318 l 419 413 l 318 413 q 132 465 192 413 q 72 601 72 517 q 138 750 72 694 q 354 806 204 806 l 419 806 l 419 929 l 533 929 l 533 806 m 533 413 l 533 318 l 619 318 q 689 365 689 318 q 672 402 689 392 q 619 413 656 413 l 533 413 m 419 544 l 419 635 l 338 635 q 285 625 301 635 q 268 590 268 615 q 285 554 268 564 q 338 544 301 544 l 419 544 z "},"%":{"ha":1399,"x_min":58,"x_max":1340,"o":"m 356 961 q 578 904 504 961 q 651 722 651 847 q 578 539 651 596 q 356 482 504 482 q 132 539 206 482 q 58 722 58 596 q 132 904 58 847 q 356 961 206 961 m 356 603 q 427 608 397 603 q 475 625 457 613 q 501 661 493 638 q 510 722 510 685 q 501 783 510 760 q 475 819 493 806 q 427 836 457 832 q 356 840 397 840 q 283 836 313 840 q 235 819 254 832 q 208 783 217 806 q 200 722 200 760 q 208 661 200 685 q 235 625 217 638 q 283 608 254 613 q 356 603 313 603 m 1126 981 l 386 -53 l 260 -53 l 1010 981 l 1126 981 m 1044 458 q 1267 401 1193 458 q 1340 219 1340 344 q 1267 36 1340 93 q 1044 -21 1193 -21 q 821 36 894 -21 q 747 219 747 93 q 821 401 747 344 q 1044 458 894 458 m 1044 100 q 1116 105 1086 100 q 1164 122 1146 110 q 1190 158 1182 135 q 1199 219 1199 182 q 1190 280 1199 257 q 1164 316 1182 303 q 1116 333 1146 329 q 1044 338 1086 338 q 972 333 1001 338 q 924 316 943 329 q 897 280 906 303 q 889 219 889 257 q 897 158 889 182 q 924 122 906 135 q 972 105 943 110 q 1044 100 1001 100 z "},"&":{"ha":1213,"x_min":58,"x_max":1200,"o":"m 1017 0 l 435 0 q 252 21 325 0 q 136 78 179 42 q 76 163 93 114 q 58 271 58 213 q 100 407 58 354 q 204 478 142 460 q 156 502 179 486 q 116 542 133 518 q 88 599 99 567 q 76 672 76 631 q 102 784 76 736 q 176 865 128 832 q 291 913 224 897 q 442 929 358 929 l 831 929 l 646 688 l 429 688 q 374 675 399 688 q 350 628 350 663 q 374 578 350 592 q 429 565 397 565 l 1183 565 l 1035 367 l 882 367 l 882 239 l 1200 239 l 1017 0 m 344 304 q 433 239 344 239 l 650 239 l 650 367 l 433 367 q 344 304 344 367 z "},"'":{"ha":304,"x_min":24,"x_max":281,"o":"m 281 929 l 196 557 l 108 557 l 24 929 l 281 929 z "},"(":{"ha":488,"x_min":121,"x_max":429,"o":"m 429 1101 q 303 757 344 911 q 263 463 263 603 q 301 167 263 324 q 429 -179 339 11 l 274 -179 q 157 153 193 -3 q 121 464 121 310 q 158 774 121 619 q 271 1101 194 928 l 429 1101 z "},")":{"ha":488,"x_min":58,"x_max":367,"o":"m 217 1101 q 330 774 293 928 q 367 464 367 619 q 331 153 367 310 q 214 -179 294 -3 l 58 -179 q 185 168 146 13 q 225 463 225 324 q 184 757 225 603 q 60 1101 143 911 l 217 1101 z "},"*":{"ha":644,"x_min":58,"x_max":586,"o":"m 96 806 l 263 751 l 263 929 l 382 929 l 382 751 l 551 807 l 586 694 l 419 639 l 524 496 l 428 428 l 322 569 l 218 426 l 124 497 l 226 639 l 58 694 l 96 806 z "},"+":{"ha":874,"x_min":58,"x_max":817,"o":"m 817 394 l 514 394 l 514 92 l 358 92 l 358 394 l 58 394 l 58 550 l 358 550 l 358 850 l 514 850 l 514 550 l 817 550 l 817 394 z "},",":{"ha":404,"x_min":67,"x_max":363,"o":"m 363 239 l 226 -133 l 67 -133 l 67 239 l 363 239 z "},"-":{"ha":644,"x_min":21,"x_max":625,"o":"m 625 560 l 485 381 l 21 381 l 161 560 l 625 560 z "},".":{"ha":429,"x_min":58,"x_max":371,"o":"m 58 118 q 103 219 58 183 q 214 254 149 254 q 326 219 281 254 q 371 118 371 183 q 326 19 371 54 q 214 -15 281 -15 q 103 19 149 -15 q 58 118 58 54 z "},"/":{"ha":656,"x_min":0,"x_max":656,"o":"m 656 981 l 179 -53 l 0 -53 l 486 981 l 656 981 z "},":":{"ha":511,"x_min":94,"x_max":407,"o":"m 94 118 q 140 219 94 183 q 251 254 185 254 q 362 219 317 254 q 407 118 407 183 q 362 19 407 54 q 251 -15 317 -15 q 140 19 185 -15 q 94 118 94 54 m 94 568 q 140 667 94 632 q 251 703 185 703 q 362 667 317 703 q 407 568 407 632 q 362 468 407 503 q 251 433 317 433 q 140 468 185 433 q 94 568 94 503 z "},";":{"ha":429,"x_min":64,"x_max":378,"o":"m 376 239 l 239 -133 l 81 -133 l 81 239 l 376 239 m 64 568 q 110 667 64 632 q 221 703 156 703 q 332 667 286 703 q 378 568 378 632 q 332 468 378 503 q 221 433 286 433 q 110 468 156 433 q 64 568 64 503 z "},"<":{"ha":849,"x_min":58,"x_max":792,"o":"m 792 75 l 108 394 q 70 426 82 406 q 58 468 58 446 q 70 511 58 492 q 108 543 82 531 l 792 863 l 792 693 l 307 468 l 792 244 l 792 75 z "},"=":{"ha":874,"x_min":58,"x_max":817,"o":"m 817 210 l 58 210 l 58 365 l 817 365 l 817 210 m 817 578 l 58 578 l 58 733 l 817 733 l 817 578 z "},">":{"ha":849,"x_min":58,"x_max":792,"o":"m 58 244 l 543 468 l 58 693 l 58 863 l 742 543 q 779 511 767 531 q 792 468 792 492 q 779 426 792 446 q 742 394 767 406 l 58 75 l 58 244 z "},"?":{"ha":1032,"x_min":17,"x_max":994,"o":"m 203 929 l 597 929 q 778 908 703 929 q 902 850 854 888 q 972 759 950 813 q 994 640 994 706 q 974 531 994 581 q 910 447 953 482 q 802 393 868 413 q 647 374 736 374 l 507 374 q 479 351 479 374 l 479 346 l 242 346 l 242 375 q 291 510 242 463 q 460 558 340 558 l 619 558 q 694 573 669 558 q 718 624 718 588 q 694 674 718 660 q 619 688 669 688 l 17 688 l 203 929 m 215 118 q 260 219 215 183 q 372 254 306 254 q 483 219 438 254 q 528 118 528 183 q 483 19 528 54 q 372 -15 438 -15 q 260 19 306 -15 q 215 118 215 54 z "},"@":{"ha":1267,"x_min":58,"x_max":1181,"o":"m 1181 250 l 588 250 q 497 267 538 250 q 426 312 456 283 q 381 379 397 340 q 365 463 365 418 q 381 545 365 507 q 425 612 396 583 q 495 657 454 640 q 588 674 536 674 l 893 674 l 893 381 l 994 381 l 994 775 l 621 775 q 471 753 540 775 q 351 690 401 731 q 272 593 300 650 q 243 468 243 536 q 272 341 243 399 q 350 242 300 283 q 469 177 400 200 q 621 154 539 154 l 1038 154 l 1157 0 l 621 0 q 394 33 497 0 q 217 124 292 65 q 100 267 142 183 q 58 454 58 351 q 101 643 58 556 q 219 794 144 731 q 397 893 294 857 q 621 929 500 929 l 1181 929 l 1181 250 m 732 381 l 732 554 l 639 554 q 566 529 594 554 q 538 468 538 504 q 566 404 538 428 q 639 381 594 381 l 732 381 z "},"A":{"ha":1576,"x_min":15,"x_max":1561,"o":"m 481 0 l 654 239 l 888 239 q 974 239 929 239 q 1053 236 1019 239 q 1008 299 1033 261 q 958 371 982 338 l 792 617 l 356 0 l 15 0 l 611 840 q 685 913 640 881 q 797 944 729 944 q 906 915 863 944 q 981 840 950 885 l 1561 0 l 481 0 z "},"B":{"ha":1339,"x_min":88,"x_max":1282,"o":"m 1136 478 q 1240 407 1197 460 q 1282 271 1282 354 q 1264 163 1282 213 q 1203 78 1246 114 q 1087 21 1160 42 q 904 0 1014 0 l 88 0 l 88 565 l 910 565 q 966 578 942 565 q 990 628 990 592 q 965 675 990 663 q 910 688 940 688 l 88 688 l 282 929 l 897 929 q 1048 913 981 929 q 1163 865 1115 897 q 1237 784 1211 832 q 1263 672 1263 736 q 1251 599 1263 631 q 1223 542 1240 567 q 1183 502 1206 518 q 1136 478 1160 486 m 376 367 l 376 239 l 906 239 q 974 256 953 239 q 994 304 994 272 q 974 351 994 335 q 906 367 953 367 l 376 367 z "},"C":{"ha":1282,"x_min":58,"x_max":1269,"o":"m 1269 239 l 1085 0 l 618 0 q 394 36 497 0 q 217 135 292 72 q 101 285 143 199 q 58 474 58 372 q 101 659 58 575 q 217 803 143 743 q 394 897 292 864 q 618 929 497 929 l 1269 929 l 1085 688 l 618 688 q 510 671 560 688 q 424 624 460 654 q 367 553 388 594 q 346 461 346 511 q 366 370 346 411 q 423 300 386 329 q 510 255 460 271 q 618 239 560 239 l 1269 239 z "},"D":{"ha":1328,"x_min":88,"x_max":1269,"o":"m 1269 474 q 1227 285 1269 372 q 1110 135 1185 199 q 933 36 1036 72 q 710 0 831 0 l 88 0 l 88 579 l 376 579 l 376 239 l 710 239 q 820 255 769 239 q 907 300 871 271 q 964 370 943 329 q 985 461 985 411 q 964 551 985 510 q 906 623 943 593 q 818 670 868 653 q 710 688 768 688 l 88 688 l 271 929 l 710 929 q 935 896 832 929 q 1112 802 1038 863 q 1228 658 1186 742 q 1269 474 1269 574 z "},"E":{"ha":1178,"x_min":88,"x_max":1167,"o":"m 1167 239 l 982 0 l 88 0 l 88 929 l 1164 929 l 978 688 l 376 688 l 376 576 l 1113 576 l 947 365 l 376 365 l 376 239 l 1167 239 z "},"F":{"ha":1139,"x_min":88,"x_max":1129,"o":"m 1129 929 l 943 688 l 376 688 l 376 567 l 1076 567 l 901 340 l 376 340 l 376 0 l 88 0 l 88 929 l 1129 929 z "},"G":{"ha":1333,"x_min":58,"x_max":1283,"o":"m 661 581 l 1256 581 l 1256 0 l 618 0 q 394 36 497 0 q 217 135 292 72 q 101 285 143 199 q 58 474 58 372 q 101 659 58 575 q 217 803 143 743 q 394 897 292 864 q 618 929 497 929 l 1283 929 l 1097 688 l 618 688 q 510 671 560 688 q 423 624 460 654 q 365 552 386 593 q 344 461 344 511 q 365 370 344 411 q 422 300 385 329 q 508 255 458 271 q 618 239 558 239 l 969 239 l 969 374 l 489 374 l 661 581 z "},"H":{"ha":1304,"x_min":88,"x_max":1215,"o":"m 1215 0 l 929 0 l 929 358 l 376 358 l 376 0 l 88 0 l 88 929 l 376 929 l 376 600 l 929 600 l 929 929 l 1215 929 l 1215 0 z "},"I":{"ha":471,"x_min":92,"x_max":379,"o":"m 379 0 l 92 0 l 92 929 l 379 929 l 379 0 z "},"J":{"ha":1017,"x_min":15,"x_max":943,"o":"m 363 239 q 501 249 444 239 q 591 281 557 258 q 640 338 625 303 q 654 422 654 372 l 654 929 l 943 929 l 943 422 q 363 0 943 0 l 15 0 l 203 239 l 363 239 z "},"K":{"ha":1267,"x_min":88,"x_max":1260,"o":"m 1260 0 l 825 0 l 544 244 q 434 342 472 307 q 372 400 396 376 q 375 334 374 368 q 376 267 376 300 l 376 0 l 88 0 l 88 929 l 376 929 l 376 714 q 375 629 376 671 q 371 551 374 588 q 438 613 399 576 q 542 703 478 650 l 810 929 l 1226 929 l 871 663 q 790 601 825 628 q 726 556 754 575 q 676 521 699 536 q 631 492 653 506 q 728 422 671 464 q 875 307 785 381 l 1260 0 z "},"L":{"ha":1103,"x_min":88,"x_max":1094,"o":"m 1094 239 l 908 0 l 88 0 l 88 929 l 375 929 l 375 239 l 1094 239 z "},"M":{"ha":1749,"x_min":21,"x_max":1731,"o":"m 729 583 q 783 488 760 529 q 823 415 806 447 q 853 357 840 383 q 879 306 867 331 q 903 356 890 331 q 934 415 917 382 q 974 488 951 447 q 1028 582 997 528 l 1176 846 q 1240 917 1201 890 q 1335 944 1278 944 q 1433 913 1389 944 q 1496 817 1476 882 l 1731 0 l 1444 0 l 1357 324 q 1319 463 1335 403 q 1293 579 1304 522 q 1240 472 1269 531 q 1164 322 1211 413 l 1039 89 q 1002 34 1021 54 q 964 3 983 14 q 922 -12 944 -8 q 874 -15 900 -15 q 825 -12 847 -15 q 783 3 803 -8 q 745 34 764 14 q 708 89 726 54 l 583 324 q 539 408 558 371 q 503 476 519 446 q 476 531 488 506 q 453 579 464 556 q 426 463 442 524 q 390 324 411 403 l 303 0 l 21 0 l 261 817 q 325 913 281 882 q 424 944 369 944 q 517 918 479 944 q 581 846 556 892 l 729 583 z "},"N":{"ha":1269,"x_min":83,"x_max":1188,"o":"m 1029 -15 q 974 -6 1001 -15 q 914 35 947 3 l 344 546 l 344 0 l 83 0 l 83 771 q 97 850 83 817 q 131 904 110 883 q 181 935 153 925 q 240 944 210 944 q 294 935 267 944 q 356 894 321 926 l 925 383 l 925 929 l 1188 929 l 1188 160 q 1174 81 1188 114 q 1140 26 1161 47 q 1089 -6 1118 4 q 1029 -15 1060 -15 z "},"O":{"ha":1475,"x_min":58,"x_max":1417,"o":"m 738 944 q 1247 829 1076 944 q 1417 465 1417 714 q 1247 100 1417 215 q 738 -15 1078 -15 q 227 100 396 -15 q 58 465 58 215 q 228 829 58 714 q 738 944 397 944 m 738 226 q 921 235 846 226 q 1042 271 996 244 q 1110 344 1089 297 q 1131 465 1131 390 q 1110 587 1131 540 q 1042 659 1089 633 q 921 694 996 685 q 738 703 846 703 q 554 694 629 703 q 433 659 479 685 q 365 587 386 633 q 344 465 344 540 q 365 344 344 390 q 433 271 386 297 q 554 235 479 244 q 738 226 629 226 z "},"P":{"ha":1372,"x_min":85,"x_max":1314,"o":"m 1314 581 q 1283 440 1314 503 q 1194 332 1253 376 q 1050 263 1135 288 q 857 238 965 238 l 371 238 l 371 0 l 85 0 l 85 475 l 885 475 q 988 504 951 475 q 1025 582 1025 533 q 988 659 1025 631 q 885 688 951 688 l 85 688 l 275 929 l 858 929 q 1051 903 967 929 q 1194 832 1136 878 q 1283 722 1253 786 q 1314 581 1314 658 z "},"Q":{"ha":1475,"x_min":58,"x_max":1433,"o":"m 1433 0 l 619 0 q 399 30 501 0 q 220 118 296 60 q 101 263 144 176 q 58 465 58 350 q 228 829 58 714 q 738 944 397 944 q 1247 829 1076 944 q 1417 465 1417 714 q 1376 310 1417 375 l 1068 310 q 1116 374 1101 335 q 1131 465 1131 413 q 1110 587 1131 540 q 1042 659 1089 633 q 921 694 996 685 q 738 703 846 703 q 554 694 629 703 q 433 659 479 685 q 365 587 386 633 q 344 465 344 540 q 363 357 344 400 q 417 288 382 314 q 504 250 453 261 q 619 239 556 239 l 679 239 q 737 238 707 239 q 792 235 767 238 q 743 268 771 249 q 692 307 715 288 l 574 399 l 949 399 l 1433 0 z "},"R":{"ha":1421,"x_min":85,"x_max":1406,"o":"m 1406 0 l 1021 0 l 814 246 l 372 246 l 372 0 l 85 0 l 85 475 l 893 475 q 1006 503 960 475 q 1051 579 1051 531 q 1010 660 1051 633 q 893 688 968 688 l 85 688 l 272 929 l 869 929 q 1033 915 949 929 q 1188 863 1118 900 q 1302 761 1257 825 q 1347 597 1347 697 q 1331 494 1347 543 q 1283 407 1314 446 q 1206 341 1251 368 q 1104 303 1161 314 q 1157 257 1128 285 q 1235 181 1186 229 l 1406 0 z "},"S":{"ha":1338,"x_min":33,"x_max":1297,"o":"m 949 558 q 1208 495 1119 558 q 1297 304 1297 432 q 1275 176 1297 233 q 1204 81 1253 119 q 1080 21 1156 42 q 899 0 1004 0 l 33 0 l 218 239 l 921 239 q 996 255 972 239 q 1019 307 1019 271 q 996 358 1019 343 q 921 374 972 374 l 415 374 q 260 393 325 374 q 151 447 194 413 q 88 531 108 482 q 67 640 67 581 q 90 759 67 706 q 160 850 113 813 q 284 908 208 888 q 465 929 360 929 l 1272 929 l 1088 688 l 443 688 q 369 674 393 688 q 344 624 344 660 q 369 573 344 588 q 443 558 393 558 l 949 558 z "},"T":{"ha":1242,"x_min":0,"x_max":1242,"o":"m 1242 929 l 1056 688 l 724 688 l 724 0 l 436 0 l 436 688 l 0 688 l 186 929 l 1242 929 z "},"U":{"ha":1369,"x_min":75,"x_max":1294,"o":"m 1294 406 q 715 -15 1294 -15 q 426 11 547 -15 q 227 90 306 38 q 112 222 149 143 q 75 406 75 300 l 75 929 l 361 929 l 361 406 q 375 319 361 354 q 427 263 389 285 q 535 233 465 242 q 715 224 604 224 q 854 233 799 224 q 943 265 910 243 q 991 322 976 288 q 1006 406 1006 357 l 1006 929 l 1294 929 l 1294 406 z "},"V":{"ha":1576,"x_min":15,"x_max":1561,"o":"m 368 929 l 786 313 l 1222 929 l 1561 929 l 967 89 q 892 17 936 49 q 781 -15 847 -15 q 672 15 715 -15 q 597 89 628 44 l 15 929 l 368 929 z "},"W":{"ha":1750,"x_min":18,"x_max":1728,"o":"m 1019 346 q 967 441 989 400 q 926 515 944 482 q 895 574 908 547 q 869 625 882 600 q 845 574 858 600 q 815 515 832 547 q 775 442 797 482 q 722 347 753 401 l 574 83 q 510 12 549 39 q 415 -15 472 -15 q 317 16 361 -15 q 254 113 274 47 l 18 929 l 306 929 l 393 606 q 430 467 415 526 q 456 350 444 407 q 508 458 478 399 q 586 607 538 517 l 711 840 q 747 895 729 875 q 785 926 765 915 q 828 941 806 938 q 875 944 850 944 q 924 941 901 944 q 966 926 946 938 q 1005 895 986 915 q 1042 840 1024 875 l 1165 606 q 1211 520 1192 557 q 1246 453 1231 483 q 1273 399 1261 424 q 1296 350 1285 374 q 1323 467 1307 406 q 1360 606 1339 528 l 1447 929 l 1728 929 l 1488 113 q 1424 16 1468 47 q 1326 -15 1381 -15 q 1233 11 1271 -15 q 1168 83 1194 38 l 1019 346 z "},"X":{"ha":1444,"x_min":24,"x_max":1429,"o":"m 1407 929 l 1114 661 q 1032 587 1065 617 q 975 537 999 557 q 935 503 951 517 q 907 481 919 490 q 935 460 919 472 q 975 424 950 447 q 1038 367 1000 401 q 1132 279 1075 332 l 1429 0 l 1024 0 l 707 307 l 381 0 l 24 0 l 326 279 q 415 360 379 328 q 475 414 451 393 q 515 447 499 435 q 543 469 531 460 q 515 491 531 479 q 476 524 500 503 q 417 578 453 546 q 326 663 381 611 l 42 929 l 440 929 l 736 640 l 1035 929 l 1407 929 z "},"Y":{"ha":1428,"x_min":11,"x_max":1418,"o":"m 1418 929 l 867 307 l 867 0 l 578 0 l 578 308 l 11 929 l 381 929 l 603 671 q 632 638 614 658 q 669 596 650 618 q 706 554 689 574 q 729 525 722 535 q 769 578 743 544 q 846 672 796 611 l 1057 929 l 1418 929 z "},"Z":{"ha":1249,"x_min":15,"x_max":1238,"o":"m 1064 0 l 183 0 q 90 30 129 0 q 50 117 50 60 q 67 178 50 149 q 113 232 83 208 l 451 499 q 551 577 510 544 q 624 633 593 610 q 674 669 654 656 q 707 693 694 683 q 662 690 688 692 q 598 688 636 689 q 508 688 560 688 q 388 688 457 688 l 15 688 l 199 929 l 1056 929 q 1149 899 1110 929 q 1189 813 1189 869 q 1172 751 1189 781 q 1126 699 1156 721 l 783 426 q 685 349 726 381 q 613 294 643 317 q 564 257 583 271 q 531 233 544 243 q 587 235 547 235 q 678 237 626 236 q 788 238 729 238 q 900 239 846 239 l 1238 239 l 1064 0 z "},"[":{"ha":442,"x_min":110,"x_max":376,"o":"m 376 933 l 278 933 l 278 -12 l 376 -12 l 376 -179 l 110 -179 l 110 1101 l 376 1101 l 376 933 z "},"\\":{"ha":656,"x_min":0,"x_max":656,"o":"m 168 981 l 656 -53 l 476 -53 l 0 981 l 168 981 z "},"]":{"ha":443,"x_min":65,"x_max":331,"o":"m 331 -179 l 65 -179 l 65 -12 l 164 -12 l 164 933 l 65 933 l 65 1101 l 331 1101 l 331 -179 z "},"^":{"ha":796,"x_min":61,"x_max":732,"o":"m 732 411 l 544 411 l 400 771 l 256 411 l 61 411 l 283 929 l 510 929 l 732 411 z "},"_":{"ha":936,"x_min":0,"x_max":943,"o":"m 943 -183 l 0 -183 l 0 -58 l 943 -58 l 943 -183 z "},"`":{"ha":546,"x_min":26,"x_max":440,"o":"m 440 993 l 26 1047 l 26 1204 l 440 1108 l 440 993 z "},"a":{"ha":1576,"x_min":15,"x_max":1561,"o":"m 481 0 l 654 239 l 888 239 q 974 239 929 239 q 1053 236 1019 239 q 1008 299 1033 261 q 958 371 982 338 l 792 617 l 356 0 l 15 0 l 611 840 q 685 913 640 881 q 797 944 729 944 q 906 915 863 944 q 981 840 950 885 l 1561 0 l 481 0 z "},"b":{"ha":1339,"x_min":88,"x_max":1282,"o":"m 1136 478 q 1240 407 1197 460 q 1282 271 1282 354 q 1264 163 1282 213 q 1203 78 1246 114 q 1087 21 1160 42 q 904 0 1014 0 l 88 0 l 88 565 l 910 565 q 966 578 942 565 q 990 628 990 592 q 965 675 990 663 q 910 688 940 688 l 88 688 l 282 929 l 897 929 q 1048 913 981 929 q 1163 865 1115 897 q 1237 784 1211 832 q 1263 672 1263 736 q 1251 599 1263 631 q 1223 542 1240 567 q 1183 502 1206 518 q 1136 478 1160 486 m 376 367 l 376 239 l 906 239 q 974 256 953 239 q 994 304 994 272 q 974 351 994 335 q 906 367 953 367 l 376 367 z "},"c":{"ha":1282,"x_min":58,"x_max":1269,"o":"m 1269 239 l 1085 0 l 618 0 q 394 36 497 0 q 217 135 292 72 q 101 285 143 199 q 58 474 58 372 q 101 659 58 575 q 217 803 143 743 q 394 897 292 864 q 618 929 497 929 l 1269 929 l 1085 688 l 618 688 q 510 671 560 688 q 424 624 460 654 q 367 553 388 594 q 346 461 346 511 q 366 370 346 411 q 423 300 386 329 q 510 255 460 271 q 618 239 560 239 l 1269 239 z "},"d":{"ha":1328,"x_min":88,"x_max":1269,"o":"m 1269 474 q 1227 285 1269 372 q 1110 135 1185 199 q 933 36 1036 72 q 710 0 831 0 l 88 0 l 88 579 l 376 579 l 376 239 l 710 239 q 820 255 769 239 q 907 300 871 271 q 964 370 943 329 q 985 461 985 411 q 964 551 985 510 q 906 623 943 593 q 818 670 868 653 q 710 688 768 688 l 88 688 l 271 929 l 710 929 q 935 896 832 929 q 1112 802 1038 863 q 1228 658 1186 742 q 1269 474 1269 574 z "},"e":{"ha":1178,"x_min":88,"x_max":1167,"o":"m 1167 239 l 982 0 l 88 0 l 88 929 l 1164 929 l 978 688 l 376 688 l 376 576 l 1113 576 l 947 365 l 376 365 l 376 239 l 1167 239 z "},"f":{"ha":1139,"x_min":88,"x_max":1129,"o":"m 1129 929 l 943 688 l 376 688 l 376 567 l 1076 567 l 901 340 l 376 340 l 376 0 l 88 0 l 88 929 l 1129 929 z "},"g":{"ha":1333,"x_min":58,"x_max":1283,"o":"m 661 581 l 1256 581 l 1256 0 l 618 0 q 394 36 497 0 q 217 135 292 72 q 101 285 143 199 q 58 474 58 372 q 101 659 58 575 q 217 803 143 743 q 394 897 292 864 q 618 929 497 929 l 1283 929 l 1097 688 l 618 688 q 510 671 560 688 q 423 624 460 654 q 365 552 386 593 q 344 461 344 511 q 365 370 344 411 q 422 300 385 329 q 508 255 458 271 q 618 239 558 239 l 969 239 l 969 374 l 489 374 l 661 581 z "},"h":{"ha":1304,"x_min":88,"x_max":1215,"o":"m 1215 0 l 929 0 l 929 358 l 376 358 l 376 0 l 88 0 l 88 929 l 376 929 l 376 600 l 929 600 l 929 929 l 1215 929 l 1215 0 z "},"i":{"ha":471,"x_min":92,"x_max":379,"o":"m 379 0 l 92 0 l 92 929 l 379 929 l 379 0 z "},"j":{"ha":1017,"x_min":15,"x_max":943,"o":"m 363 239 q 501 249 444 239 q 591 281 557 258 q 640 338 625 303 q 654 422 654 372 l 654 929 l 943 929 l 943 422 q 363 0 943 0 l 15 0 l 203 239 l 363 239 z "},"k":{"ha":1267,"x_min":88,"x_max":1260,"o":"m 1260 0 l 825 0 l 544 244 q 434 342 472 307 q 372 400 396 376 q 375 334 374 368 q 376 267 376 300 l 376 0 l 88 0 l 88 929 l 376 929 l 376 714 q 375 629 376 671 q 371 551 374 588 q 438 613 399 576 q 542 703 478 650 l 810 929 l 1226 929 l 871 663 q 790 601 825 628 q 726 556 754 575 q 676 521 699 536 q 631 492 653 506 q 728 422 671 464 q 875 307 785 381 l 1260 0 z "},"l":{"ha":1103,"x_min":88,"x_max":1094,"o":"m 1094 239 l 908 0 l 88 0 l 88 929 l 375 929 l 375 239 l 1094 239 z "},"m":{"ha":1749,"x_min":21,"x_max":1731,"o":"m 729 583 q 783 488 760 529 q 823 415 806 447 q 853 357 840 383 q 879 306 867 331 q 903 356 890 331 q 934 415 917 382 q 974 488 951 447 q 1028 582 997 528 l 1176 846 q 1240 917 1201 890 q 1335 944 1278 944 q 1433 913 1389 944 q 1496 817 1476 882 l 1731 0 l 1444 0 l 1357 324 q 1319 463 1335 403 q 1293 579 1304 522 q 1240 472 1269 531 q 1164 322 1211 413 l 1039 89 q 1002 34 1021 54 q 964 3 983 14 q 922 -12 944 -8 q 874 -15 900 -15 q 825 -12 847 -15 q 783 3 803 -8 q 745 34 764 14 q 708 89 726 54 l 583 324 q 539 408 558 371 q 503 476 519 446 q 476 531 488 506 q 453 579 464 556 q 426 463 442 524 q 390 324 411 403 l 303 0 l 21 0 l 261 817 q 325 913 281 882 q 424 944 369 944 q 517 918 479 944 q 581 846 556 892 l 729 583 z "},"n":{"ha":1269,"x_min":83,"x_max":1188,"o":"m 1029 -15 q 974 -6 1001 -15 q 914 35 947 3 l 344 546 l 344 0 l 83 0 l 83 771 q 97 850 83 817 q 131 904 110 883 q 181 935 153 925 q 240 944 210 944 q 294 935 267 944 q 356 894 321 926 l 925 383 l 925 929 l 1188 929 l 1188 160 q 1174 81 1188 114 q 1140 26 1161 47 q 1089 -6 1118 4 q 1029 -15 1060 -15 z "},"o":{"ha":1475,"x_min":58,"x_max":1417,"o":"m 738 944 q 1247 829 1076 944 q 1417 465 1417 714 q 1247 100 1417 215 q 738 -15 1078 -15 q 227 100 396 -15 q 58 465 58 215 q 228 829 58 714 q 738 944 397 944 m 738 226 q 921 235 846 226 q 1042 271 996 244 q 1110 344 1089 297 q 1131 465 1131 390 q 1110 587 1131 540 q 1042 659 1089 633 q 921 694 996 685 q 738 703 846 703 q 554 694 629 703 q 433 659 479 685 q 365 587 386 633 q 344 465 344 540 q 365 344 344 390 q 433 271 386 297 q 554 235 479 244 q 738 226 629 226 z "},"p":{"ha":1372,"x_min":85,"x_max":1314,"o":"m 1314 581 q 1283 440 1314 503 q 1194 332 1253 376 q 1050 263 1135 288 q 857 238 965 238 l 371 238 l 371 0 l 85 0 l 85 475 l 885 475 q 988 504 951 475 q 1025 582 1025 533 q 988 659 1025 631 q 885 688 951 688 l 85 688 l 275 929 l 858 929 q 1051 903 967 929 q 1194 832 1136 878 q 1283 722 1253 786 q 1314 581 1314 658 z "},"q":{"ha":1475,"x_min":58,"x_max":1433,"o":"m 1433 0 l 619 0 q 399 30 501 0 q 220 118 296 60 q 101 263 144 176 q 58 465 58 350 q 228 829 58 714 q 738 944 397 944 q 1247 829 1076 944 q 1417 465 1417 714 q 1376 310 1417 375 l 1068 310 q 1116 374 1101 335 q 1131 465 1131 413 q 1110 587 1131 540 q 1042 659 1089 633 q 921 694 996 685 q 738 703 846 703 q 554 694 629 703 q 433 659 479 685 q 365 587 386 633 q 344 465 344 540 q 363 357 344 400 q 417 288 382 314 q 504 250 453 261 q 619 239 556 239 l 679 239 q 737 238 707 239 q 792 235 767 238 q 743 268 771 249 q 692 307 715 288 l 574 399 l 949 399 l 1433 0 z "},"r":{"ha":1421,"x_min":85,"x_max":1406,"o":"m 1406 0 l 1021 0 l 814 246 l 372 246 l 372 0 l 85 0 l 85 475 l 893 475 q 1006 503 960 475 q 1051 579 1051 531 q 1010 660 1051 633 q 893 688 968 688 l 85 688 l 272 929 l 869 929 q 1033 915 949 929 q 1188 863 1118 900 q 1302 761 1257 825 q 1347 597 1347 697 q 1331 494 1347 543 q 1283 407 1314 446 q 1206 341 1251 368 q 1104 303 1161 314 q 1157 257 1128 285 q 1235 181 1186 229 l 1406 0 z "},"s":{"ha":1338,"x_min":33,"x_max":1297,"o":"m 949 558 q 1208 495 1119 558 q 1297 304 1297 432 q 1275 176 1297 233 q 1204 81 1253 119 q 1080 21 1156 42 q 899 0 1004 0 l 33 0 l 218 239 l 921 239 q 996 255 972 239 q 1019 307 1019 271 q 996 358 1019 343 q 921 374 972 374 l 415 374 q 260 393 325 374 q 151 447 194 413 q 88 531 108 482 q 67 640 67 581 q 90 759 67 706 q 160 850 113 813 q 284 908 208 888 q 465 929 360 929 l 1272 929 l 1088 688 l 443 688 q 369 674 393 688 q 344 624 344 660 q 369 573 344 588 q 443 558 393 558 l 949 558 z "},"t":{"ha":1242,"x_min":0,"x_max":1242,"o":"m 1242 929 l 1056 688 l 724 688 l 724 0 l 436 0 l 436 688 l 0 688 l 186 929 l 1242 929 z "},"u":{"ha":1369,"x_min":75,"x_max":1294,"o":"m 1294 406 q 715 -15 1294 -15 q 426 11 547 -15 q 227 90 306 38 q 112 222 149 143 q 75 406 75 300 l 75 929 l 361 929 l 361 406 q 375 319 361 354 q 427 263 389 285 q 535 233 465 242 q 715 224 604 224 q 854 233 799 224 q 943 265 910 243 q 991 322 976 288 q 1006 406 1006 357 l 1006 929 l 1294 929 l 1294 406 z "},"v":{"ha":1576,"x_min":15,"x_max":1561,"o":"m 368 929 l 786 313 l 1222 929 l 1561 929 l 967 89 q 892 17 936 49 q 781 -15 847 -15 q 672 15 715 -15 q 597 89 628 44 l 15 929 l 368 929 z "},"w":{"ha":1750,"x_min":18,"x_max":1728,"o":"m 1019 346 q 967 441 989 400 q 926 515 944 482 q 895 574 908 547 q 869 625 882 600 q 845 574 858 600 q 815 515 832 547 q 775 442 797 482 q 722 347 753 401 l 574 83 q 510 12 549 39 q 415 -15 472 -15 q 317 16 361 -15 q 254 113 274 47 l 18 929 l 306 929 l 393 606 q 430 467 415 526 q 456 350 444 407 q 508 458 478 399 q 586 607 538 517 l 711 840 q 747 895 729 875 q 785 926 765 915 q 828 941 806 938 q 875 944 850 944 q 924 941 901 944 q 966 926 946 938 q 1005 895 986 915 q 1042 840 1024 875 l 1165 606 q 1211 520 1192 557 q 1246 453 1231 483 q 1273 399 1261 424 q 1296 350 1285 374 q 1323 467 1307 406 q 1360 606 1339 528 l 1447 929 l 1728 929 l 1488 113 q 1424 16 1468 47 q 1326 -15 1381 -15 q 1233 11 1271 -15 q 1168 83 1194 38 l 1019 346 z "},"x":{"ha":1444,"x_min":24,"x_max":1429,"o":"m 1407 929 l 1114 661 q 1032 587 1065 617 q 975 537 999 557 q 935 503 951 517 q 907 481 919 490 q 935 460 919 472 q 975 424 950 447 q 1038 367 1000 401 q 1132 279 1075 332 l 1429 0 l 1024 0 l 707 307 l 381 0 l 24 0 l 326 279 q 415 360 379 328 q 475 414 451 393 q 515 447 499 435 q 543 469 531 460 q 515 491 531 479 q 476 524 500 503 q 417 578 453 546 q 326 663 381 611 l 42 929 l 440 929 l 736 640 l 1035 929 l 1407 929 z "},"y":{"ha":1428,"x_min":11,"x_max":1418,"o":"m 1418 929 l 867 307 l 867 0 l 578 0 l 578 308 l 11 929 l 381 929 l 603 671 q 632 638 614 658 q 669 596 650 618 q 706 554 689 574 q 729 525 722 535 q 769 578 743 544 q 846 672 796 611 l 1057 929 l 1418 929 z "},"z":{"ha":1249,"x_min":15,"x_max":1238,"o":"m 1064 0 l 183 0 q 90 30 129 0 q 50 117 50 60 q 67 178 50 149 q 113 232 83 208 l 451 499 q 551 577 510 544 q 624 633 593 610 q 674 669 654 656 q 707 693 694 683 q 662 690 688 692 q 598 688 636 689 q 508 688 560 688 q 388 688 457 688 l 15 688 l 199 929 l 1056 929 q 1149 899 1110 929 q 1189 813 1189 869 q 1172 751 1189 781 q 1126 699 1156 721 l 783 426 q 685 349 726 381 q 613 294 643 317 q 564 257 583 271 q 531 233 544 243 q 587 235 547 235 q 678 237 626 236 q 788 238 729 238 q 900 239 846 239 l 1238 239 l 1064 0 z "},"{":{"ha":501,"x_min":99,"x_max":435,"o":"m 435 933 q 351 903 351 933 l 351 593 q 272 457 351 488 q 351 321 351 429 l 351 18 q 435 -12 351 -12 l 435 -179 l 342 -179 q 183 -8 183 -179 l 183 333 q 99 383 183 382 l 99 531 q 183 579 183 532 l 183 929 q 342 1101 183 1101 l 435 1101 l 435 933 z "},"|":{"ha":415,"x_min":131,"x_max":283,"o":"m 283 -137 l 131 -137 l 131 1049 l 283 1049 l 283 -137 z "},"}":{"ha":501,"x_min":65,"x_max":403,"o":"m 318 579 q 403 531 318 532 l 403 383 q 318 333 318 382 l 318 -8 q 160 -179 318 -179 l 65 -179 l 65 -12 q 150 18 150 -12 l 150 321 q 229 457 150 429 q 150 593 150 488 l 150 903 q 65 933 150 933 l 65 1101 l 160 1101 q 318 929 318 1101 l 318 579 z "},"~":{"ha":788,"x_min":56,"x_max":724,"o":"m 531 307 q 454 323 492 307 q 379 358 417 339 q 303 394 342 378 q 228 410 265 410 q 144 384 188 410 q 56 296 101 358 l 56 524 q 156 597 108 579 q 246 615 203 615 q 321 599 283 615 q 396 565 358 583 q 472 530 433 546 q 551 514 511 514 q 634 538 592 514 q 724 625 676 563 l 724 397 q 623 326 671 344 q 531 307 575 307 z "}," ":{"ha":532,"x_min":0,"x_max":0,"o":""},"¡":{"ha":451,"x_min":72,"x_max":385,"o":"m 88 0 l 88 310 l 119 583 l 344 583 l 375 310 l 375 0 l 88 0 m 385 811 q 340 710 385 746 q 228 675 294 675 q 117 710 163 675 q 72 811 72 746 q 117 910 72 875 q 228 944 163 944 q 340 910 294 944 q 385 811 385 875 z "},"¢":{"ha":915,"x_min":69,"x_max":869,"o":"m 578 806 l 869 806 l 740 635 l 578 635 l 578 319 l 869 319 l 740 151 l 578 151 l 578 0 l 464 0 l 464 151 q 307 176 379 151 q 182 247 235 201 q 99 353 129 292 q 69 485 69 414 q 99 615 69 556 q 182 716 129 674 q 307 782 235 758 q 464 806 379 806 l 464 929 l 578 929 l 578 806 m 464 635 q 328 591 382 635 q 274 476 274 547 q 288 412 274 440 q 328 363 303 383 q 389 331 354 342 q 464 319 424 319 l 464 635 z "},"£":{"ha":1129,"x_min":0,"x_max":1118,"o":"m 282 560 l 282 640 q 306 759 282 706 q 378 850 329 813 q 503 908 426 888 q 685 929 579 929 l 1117 929 l 932 688 l 663 688 q 588 674 613 688 q 564 624 564 660 l 564 560 l 865 560 l 724 381 l 564 381 l 564 239 l 1118 239 l 932 0 l 43 0 l 229 239 l 282 239 l 282 381 l 0 381 l 140 560 l 282 560 z "},"¥":{"ha":1428,"x_min":11,"x_max":1418,"o":"m 1246 85 l 867 85 l 867 0 l 578 0 l 578 85 l 210 85 l 210 240 l 578 240 l 578 308 l 560 328 l 210 328 l 210 483 l 418 483 l 11 929 l 381 929 l 603 671 q 632 638 614 658 q 669 596 650 618 q 706 554 689 574 q 729 525 722 535 q 769 578 743 544 q 846 672 796 611 l 1057 929 l 1418 929 l 1022 483 l 1246 483 l 1246 328 l 885 328 l 867 307 l 867 240 l 1246 240 l 1246 85 z "},"¦":{"ha":415,"x_min":131,"x_max":283,"o":"m 131 -137 l 131 319 l 283 319 l 283 -137 l 131 -137 m 283 618 l 131 618 l 131 1049 l 283 1049 l 283 618 z "},"¨":{"ha":597,"x_min":36,"x_max":563,"o":"m 36 1118 q 71 1195 36 1168 q 154 1222 106 1222 q 239 1195 204 1222 q 274 1118 274 1168 q 239 1043 274 1069 q 154 1017 204 1017 q 71 1043 106 1017 q 36 1118 36 1069 m 325 1118 q 360 1195 325 1168 q 443 1222 394 1222 q 528 1195 493 1222 q 563 1118 563 1168 q 528 1043 563 1069 q 443 1017 493 1017 q 360 1043 394 1017 q 325 1118 325 1069 z "},"©":{"ha":1081,"x_min":61,"x_max":1022,"o":"m 699 317 l 642 242 l 536 242 q 441 259 485 242 q 365 306 397 276 q 315 378 333 336 q 297 468 297 419 q 315 557 297 517 q 365 626 333 597 q 441 670 397 654 q 536 686 485 686 l 699 686 l 642 610 l 536 610 q 428 569 472 610 q 385 463 385 529 q 427 357 385 397 q 536 317 469 317 l 699 317 m 61 465 q 99 653 61 565 q 201 806 136 740 q 354 908 267 871 q 542 946 442 946 q 729 908 642 946 q 882 806 817 871 q 985 653 947 740 q 1022 465 1022 565 q 985 278 1022 365 q 882 125 947 190 q 729 22 817 60 q 542 -15 642 -15 q 354 22 442 -15 q 201 125 267 60 q 99 278 136 190 q 61 465 61 365 m 118 464 q 151 298 118 375 q 242 163 185 221 q 378 72 300 106 q 544 39 456 39 q 710 72 632 39 q 845 163 788 106 q 936 298 903 221 q 969 464 969 375 q 936 630 969 551 q 845 767 903 708 q 710 859 788 825 q 544 893 632 893 q 378 859 456 893 q 242 767 300 825 q 151 630 185 708 q 118 464 118 551 z "},"ª":{"ha":944,"x_min":49,"x_max":897,"o":"m 304 394 l 400 526 l 526 526 q 575 526 550 526 q 619 525 600 526 q 594 559 608 539 q 567 599 579 579 l 475 733 l 235 394 l 49 394 l 376 856 q 417 897 393 879 q 478 914 440 914 q 538 897 514 914 q 578 856 561 881 l 897 394 l 304 394 z "},"«":{"ha":633,"x_min":40,"x_max":576,"o":"m 125 451 l 282 349 l 282 219 l 40 383 l 40 510 l 282 683 l 282 551 l 125 451 m 419 451 l 576 349 l 576 219 l 335 383 l 335 510 l 576 683 l 576 551 l 419 451 z "},"®":{"ha":699,"x_min":60,"x_max":642,"o":"m 347 892 q 249 872 293 892 q 176 822 206 853 q 129 751 146 790 q 113 672 113 713 q 129 591 113 631 q 176 520 146 551 q 249 469 206 489 q 347 450 293 450 q 442 467 397 450 q 522 515 488 485 q 576 585 556 544 q 596 672 596 626 q 577 751 596 713 q 525 822 558 790 q 446 872 492 853 q 347 892 400 892 m 349 400 q 232 422 285 400 q 141 482 179 444 q 81 569 103 519 q 60 672 60 618 q 81 776 60 726 q 141 863 103 825 q 232 922 179 900 q 349 944 285 944 q 466 923 413 944 q 558 865 519 901 q 619 778 597 828 q 642 672 642 728 q 619 569 642 618 q 558 482 597 519 q 465 422 518 444 q 349 400 411 400 m 485 574 l 399 574 l 351 628 l 304 628 l 304 574 l 239 574 l 239 679 l 368 679 q 394 685 383 679 q 404 703 404 692 q 368 728 404 728 l 239 728 l 282 782 l 363 782 q 400 778 381 782 q 435 767 419 775 q 462 744 451 758 q 472 707 472 729 q 458 665 472 682 q 417 642 443 647 q 428 631 422 638 q 446 614 435 625 l 485 574 z "},"¯":{"ha":546,"x_min":65,"x_max":479,"o":"m 479 1042 l 65 1042 l 65 1157 l 479 1157 l 479 1042 z "},"°":{"ha":549,"x_min":65,"x_max":490,"o":"m 278 832 q 178 732 178 832 q 278 632 178 632 q 379 729 379 632 q 278 832 379 832 m 278 944 q 490 732 490 944 q 278 519 490 519 q 65 732 65 519 q 278 944 65 944 z "},"±":{"ha":874,"x_min":58,"x_max":817,"o":"m 817 -157 l 58 -157 l 58 -1 l 817 -1 l 817 -157 m 817 394 l 514 394 l 514 92 l 358 92 l 358 394 l 58 394 l 58 550 l 358 550 l 358 850 l 514 850 l 514 550 l 817 550 l 817 394 z "},"²":{"ha":689,"x_min":53,"x_max":640,"o":"m 164 954 l 436 954 q 590 915 543 954 q 636 810 636 876 q 594 713 636 750 q 461 676 551 676 l 240 676 q 192 642 192 676 l 192 610 l 640 610 l 547 490 l 53 490 l 53 640 q 97 737 53 706 q 228 768 142 768 l 449 768 q 497 801 497 768 q 449 833 497 833 l 72 833 l 164 954 z "},"³":{"ha":672,"x_min":26,"x_max":624,"o":"m 117 610 l 435 610 q 479 640 479 610 q 435 672 479 672 l 157 672 l 232 772 l 438 772 q 465 779 453 772 q 478 804 478 786 q 465 827 478 821 q 438 833 453 833 l 49 833 l 140 954 l 431 954 q 565 922 515 954 q 614 825 614 889 q 594 760 614 785 q 551 729 575 736 q 603 693 582 719 q 624 625 624 667 q 615 571 624 596 q 584 528 606 546 q 526 501 563 511 q 435 490 489 490 l 26 490 l 117 610 z "},"´":{"ha":546,"x_min":106,"x_max":519,"o":"m 519 1047 l 106 993 l 106 1108 l 519 1204 l 519 1047 z "},"·":{"ha":429,"x_min":58,"x_max":371,"o":"m 58 468 q 103 569 58 533 q 214 604 149 604 q 326 569 281 604 q 371 468 371 533 q 326 369 371 404 q 214 335 281 335 q 103 369 149 335 q 58 468 58 404 z "},"¸":{"ha":414,"x_min":90,"x_max":306,"o":"m 306 -43 l 190 -354 l 90 -354 l 90 -43 l 306 -43 z "},"¹":{"ha":349,"x_min":28,"x_max":285,"o":"m 114 954 l 285 954 l 285 490 l 140 490 l 140 833 l 28 833 l 114 954 z "},"º":{"ha":890,"x_min":71,"x_max":819,"o":"m 446 914 q 726 851 633 914 q 819 650 819 789 q 726 449 819 513 q 446 385 633 385 q 164 449 257 385 q 71 650 71 513 q 164 851 71 789 q 446 914 257 914 m 446 519 q 547 524 506 519 q 613 544 588 529 q 650 583 639 558 q 661 650 661 608 q 650 717 661 692 q 613 756 639 742 q 547 776 588 771 q 446 781 506 781 q 344 776 386 781 q 277 756 303 771 q 240 717 251 742 q 229 650 229 692 q 240 583 229 608 q 277 544 251 558 q 344 524 303 529 q 446 519 386 519 z "},"»":{"ha":633,"x_min":64,"x_max":600,"o":"m 64 551 l 64 683 l 307 510 l 307 383 l 64 219 l 64 349 l 222 451 l 64 551 m 358 551 l 358 683 l 600 510 l 600 383 l 358 219 l 358 349 l 515 451 l 358 551 z "},"¼":{"ha":1286,"x_min":58,"x_max":1228,"o":"m 144 954 l 315 954 l 315 490 l 171 490 l 171 833 l 58 833 l 144 954 m 976 981 l 236 -53 l 110 -53 l 860 981 l 976 981 m 656 42 q 603 61 622 42 q 585 106 585 81 q 615 161 585 136 l 950 433 q 985 453 968 449 q 1017 458 1003 458 q 1072 438 1047 458 q 1096 372 1096 418 l 1096 157 l 1228 157 l 1144 42 l 1096 42 l 1096 -12 l 957 -12 l 957 42 l 656 42 m 957 225 q 958 260 957 247 q 960 285 958 274 q 939 266 951 276 q 910 242 926 256 l 858 200 q 823 174 839 185 q 796 154 807 163 q 830 156 811 156 q 875 157 849 157 l 957 157 l 957 225 z "},"½":{"ha":1319,"x_min":58,"x_max":1263,"o":"m 144 954 l 315 954 l 315 490 l 171 490 l 171 833 l 58 833 l 144 954 m 964 981 l 224 -53 l 97 -53 l 847 981 l 964 981 m 786 451 l 1058 451 q 1212 413 1165 451 q 1258 307 1258 374 q 1216 210 1258 247 q 1083 174 1174 174 l 863 174 q 814 139 814 174 l 814 107 l 1263 107 l 1169 -12 l 675 -12 l 675 138 q 719 234 675 203 q 850 265 764 265 l 1071 265 q 1119 299 1119 265 q 1071 331 1119 331 l 694 331 l 786 451 z "},"¾":{"ha":1468,"x_min":58,"x_max":1410,"o":"m 149 610 l 467 610 q 511 640 511 610 q 467 672 511 672 l 189 672 l 264 772 l 469 772 q 497 779 485 772 q 510 804 510 786 q 497 827 510 821 q 469 833 485 833 l 81 833 l 172 954 l 463 954 q 597 922 547 954 q 646 825 646 889 q 626 760 646 785 q 583 729 607 736 q 635 693 614 719 q 656 625 656 667 q 647 571 656 596 q 616 528 638 546 q 558 501 594 511 q 467 490 521 490 l 58 490 l 149 610 m 1183 981 l 443 -53 l 317 -53 l 1067 981 l 1183 981 m 838 42 q 785 61 804 42 q 767 106 767 81 q 797 161 767 136 l 1132 433 q 1167 453 1150 449 q 1199 458 1185 458 q 1253 438 1229 458 q 1278 372 1278 418 l 1278 157 l 1410 157 l 1326 42 l 1278 42 l 1278 -12 l 1139 -12 l 1139 42 l 838 42 m 1139 225 q 1140 260 1139 247 q 1142 285 1140 274 q 1121 266 1133 276 q 1092 242 1108 256 l 1040 200 q 1005 174 1021 185 q 978 154 989 163 q 1012 156 993 156 q 1057 157 1031 157 l 1139 157 l 1139 225 z "},"¿":{"ha":1032,"x_min":39,"x_max":1017,"o":"m 831 0 l 436 0 q 255 21 331 0 q 131 79 179 42 q 61 170 83 117 q 39 289 39 224 q 60 398 39 349 q 123 482 81 447 q 231 536 165 517 q 386 556 297 556 l 526 556 q 554 578 554 556 l 554 583 l 792 583 l 792 554 q 742 419 792 467 q 574 371 693 371 l 414 371 q 340 356 364 371 q 315 306 315 342 q 340 256 315 269 q 414 242 364 242 l 1017 242 l 831 0 m 818 811 q 773 710 818 746 q 661 675 728 675 q 551 710 596 675 q 506 811 506 746 q 551 910 506 875 q 661 944 596 944 q 773 910 728 944 q 818 811 818 875 z "},"À":{"ha":1576,"x_min":15,"x_max":1561,"o":"m 481 0 l 654 239 l 888 239 q 974 239 929 239 q 1053 236 1019 239 q 1008 299 1033 261 q 958 371 982 338 l 792 617 l 356 0 l 15 0 l 611 840 q 685 913 640 881 q 797 944 729 944 q 906 915 863 944 q 981 840 950 885 l 1561 0 l 481 0 m 956 993 l 542 1047 l 542 1204 l 956 1108 l 956 993 z "},"Á":{"ha":1576,"x_min":15,"x_max":1561,"o":"m 481 0 l 654 239 l 888 239 q 974 239 929 239 q 1053 236 1019 239 q 1008 299 1033 261 q 958 371 982 338 l 792 617 l 356 0 l 15 0 l 611 840 q 685 913 640 881 q 797 944 729 944 q 906 915 863 944 q 981 840 950 885 l 1561 0 l 481 0 m 1035 1047 l 621 993 l 621 1108 l 1035 1204 l 1035 1047 z "},"Â":{"ha":1576,"x_min":15,"x_max":1561,"o":"m 481 0 l 654 239 l 888 239 q 974 239 929 239 q 1053 236 1019 239 q 1008 299 1033 261 q 958 371 982 338 l 792 617 l 356 0 l 15 0 l 611 840 q 685 913 640 881 q 797 944 729 944 q 906 915 863 944 q 981 840 950 885 l 1561 0 l 481 0 m 1010 993 l 872 993 l 794 1133 l 782 1133 l 706 993 l 567 993 l 699 1204 l 881 1204 l 1010 993 z "},"Ã":{"ha":1576,"x_min":15,"x_max":1561,"o":"m 481 0 l 654 239 l 888 239 q 974 239 929 239 q 1053 236 1019 239 q 1008 299 1033 261 q 958 371 982 338 l 792 617 l 356 0 l 15 0 l 611 840 q 685 913 640 881 q 797 944 729 944 q 906 915 863 944 q 981 840 950 885 l 1561 0 l 481 0 m 889 1017 q 838 1026 863 1017 q 788 1045 813 1035 q 739 1065 764 1056 q 688 1074 714 1074 q 627 1059 656 1074 q 581 1024 599 1044 l 581 1139 q 628 1171 600 1161 q 688 1181 656 1181 q 739 1172 714 1181 q 788 1151 764 1163 q 837 1131 813 1140 q 889 1122 861 1122 q 949 1137 921 1122 q 994 1172 976 1151 l 994 1058 q 948 1026 975 1035 q 889 1017 921 1017 z "},"Ä":{"ha":1576,"x_min":15,"x_max":1561,"o":"m 481 0 l 654 239 l 888 239 q 974 239 929 239 q 1053 236 1019 239 q 1008 299 1033 261 q 958 371 982 338 l 792 617 l 356 0 l 15 0 l 611 840 q 685 913 640 881 q 797 944 729 944 q 906 915 863 944 q 981 840 950 885 l 1561 0 l 481 0 m 525 1118 q 560 1195 525 1168 q 643 1222 594 1222 q 728 1195 693 1222 q 763 1118 763 1168 q 728 1043 763 1069 q 643 1017 693 1017 q 560 1043 594 1017 q 525 1118 525 1069 m 814 1118 q 849 1195 814 1168 q 932 1222 883 1222 q 1017 1195 982 1222 q 1051 1118 1051 1168 q 1017 1043 1051 1069 q 932 1017 982 1017 q 849 1043 883 1017 q 814 1118 814 1069 z "},"Å":{"ha":1576,"x_min":15,"x_max":1561,"o":"m 481 0 l 654 239 l 888 239 q 974 239 929 239 q 1053 236 1019 239 q 1008 299 1033 261 q 958 371 982 338 l 792 617 l 356 0 l 15 0 l 611 840 q 685 913 640 881 q 797 944 729 944 q 906 915 863 944 q 981 840 950 885 l 1561 0 l 481 0 m 722 1213 q 696 1188 696 1213 l 696 1117 q 722 1092 696 1092 l 853 1092 q 881 1117 881 1092 l 881 1188 q 853 1213 881 1213 l 722 1213 m 989 1108 q 844 993 989 993 l 731 993 q 588 1108 588 993 l 588 1196 q 731 1313 588 1313 l 844 1313 q 989 1196 989 1313 l 989 1108 z "},"Æ":{"ha":2003,"x_min":15,"x_max":1993,"o":"m 1989 929 l 1803 688 l 1201 688 l 1201 576 l 1938 576 l 1774 365 l 1201 365 l 1201 239 l 1993 239 l 1807 0 l 914 0 l 914 688 l 840 688 l 356 0 l 15 0 l 600 824 q 674 897 629 865 q 785 929 718 929 l 1989 929 z "},"Ç":{"ha":1282,"x_min":58,"x_max":1269,"o":"m 1269 239 l 1085 0 l 618 0 q 394 36 497 0 q 217 135 292 72 q 101 285 143 199 q 58 474 58 372 q 101 659 58 575 q 217 803 143 743 q 394 897 292 864 q 618 929 497 929 l 1269 929 l 1085 688 l 618 688 q 510 671 560 688 q 424 624 460 654 q 367 553 388 594 q 346 461 346 511 q 366 370 346 411 q 423 300 386 329 q 510 255 460 271 q 618 239 560 239 l 1269 239 m 832 -43 l 718 -354 l 618 -354 l 618 -43 l 832 -43 z "},"È":{"ha":1178,"x_min":88,"x_max":1167,"o":"m 1167 239 l 982 0 l 88 0 l 88 929 l 1164 929 l 978 688 l 376 688 l 376 576 l 1113 576 l 947 365 l 376 365 l 376 239 l 1167 239 m 769 993 l 356 1047 l 356 1204 l 769 1108 l 769 993 z "},"É":{"ha":1178,"x_min":88,"x_max":1167,"o":"m 1167 239 l 982 0 l 88 0 l 88 929 l 1164 929 l 978 688 l 376 688 l 376 576 l 1113 576 l 947 365 l 376 365 l 376 239 l 1167 239 m 822 1047 l 408 993 l 408 1108 l 822 1204 l 822 1047 z "},"Ê":{"ha":1178,"x_min":88,"x_max":1167,"o":"m 1167 239 l 982 0 l 88 0 l 88 929 l 1164 929 l 978 688 l 376 688 l 376 576 l 1113 576 l 947 365 l 376 365 l 376 239 l 1167 239 m 824 993 l 686 993 l 608 1133 l 596 1133 l 519 993 l 381 993 l 513 1204 l 694 1204 l 824 993 z "},"Ë":{"ha":1178,"x_min":88,"x_max":1167,"o":"m 1167 239 l 982 0 l 88 0 l 88 929 l 1164 929 l 978 688 l 376 688 l 376 576 l 1113 576 l 947 365 l 376 365 l 376 239 l 1167 239 m 321 1118 q 356 1195 321 1168 q 439 1222 390 1222 q 524 1195 489 1222 q 558 1118 558 1168 q 524 1043 558 1069 q 439 1017 489 1017 q 356 1043 390 1017 q 321 1118 321 1069 m 610 1118 q 644 1195 610 1168 q 728 1222 679 1222 q 813 1195 778 1222 q 847 1118 847 1168 q 813 1043 847 1069 q 728 1017 778 1017 q 644 1043 679 1017 q 610 1118 610 1069 z "},"Ì":{"ha":471,"x_min":-8,"x_max":406,"o":"m 379 0 l 92 0 l 92 929 l 379 929 l 379 0 m 406 993 l -8 1047 l -8 1204 l 406 1108 l 406 993 z "},"Í":{"ha":471,"x_min":71,"x_max":485,"o":"m 379 0 l 92 0 l 92 929 l 379 929 l 379 0 m 485 1047 l 71 993 l 71 1108 l 485 1204 l 485 1047 z "},"Î":{"ha":471,"x_min":15,"x_max":458,"o":"m 379 0 l 92 0 l 92 929 l 379 929 l 379 0 m 458 993 l 321 993 l 243 1133 l 231 1133 l 154 993 l 15 993 l 147 1204 l 329 1204 l 458 993 z "},"Ï":{"ha":471,"x_min":-25,"x_max":501,"o":"m 379 0 l 92 0 l 92 929 l 379 929 l 379 0 m -25 1118 q 10 1195 -25 1168 q 93 1222 44 1222 q 178 1195 143 1222 q 213 1118 213 1168 q 178 1043 213 1069 q 93 1017 143 1017 q 10 1043 44 1017 q -25 1118 -25 1069 m 264 1118 q 299 1195 264 1168 q 382 1222 333 1222 q 467 1195 432 1222 q 501 1118 501 1168 q 467 1043 501 1069 q 382 1017 432 1017 q 299 1043 333 1017 q 264 1118 264 1069 z "},"Ð":{"ha":1446,"x_min":0,"x_max":1388,"o":"m 829 576 l 665 365 l 494 365 l 494 239 l 828 239 q 938 255 888 239 q 1025 300 989 271 q 1082 370 1061 329 q 1103 461 1103 411 q 1082 551 1103 510 q 1024 623 1061 593 q 936 670 986 653 q 828 688 886 688 l 207 688 l 389 929 l 828 929 q 1053 896 950 929 q 1230 802 1156 863 q 1346 658 1304 742 q 1388 474 1388 574 q 1345 285 1388 372 q 1228 135 1303 199 q 1051 36 1154 72 q 828 0 949 0 l 207 0 l 207 365 l 0 365 l 164 576 l 829 576 z "},"Ñ":{"ha":1269,"x_min":83,"x_max":1188,"o":"m 1029 -15 q 974 -6 1001 -15 q 914 35 947 3 l 344 546 l 344 0 l 83 0 l 83 771 q 97 850 83 817 q 131 904 110 883 q 181 935 153 925 q 240 944 210 944 q 294 935 267 944 q 356 894 321 926 l 925 383 l 925 929 l 1188 929 l 1188 160 q 1174 81 1188 114 q 1140 26 1161 47 q 1089 -6 1118 4 q 1029 -15 1060 -15 m 731 1017 q 679 1026 704 1017 q 630 1045 654 1035 q 581 1065 606 1056 q 529 1074 556 1074 q 469 1059 497 1074 q 422 1024 440 1044 l 422 1139 q 469 1171 442 1161 q 529 1181 497 1181 q 581 1172 556 1181 q 630 1151 606 1163 q 678 1131 654 1140 q 731 1122 703 1122 q 790 1137 763 1122 q 836 1172 818 1151 l 836 1058 q 790 1026 817 1035 q 731 1017 763 1017 z "},"Ò":{"ha":1475,"x_min":58,"x_max":1417,"o":"m 738 944 q 1247 829 1076 944 q 1417 465 1417 714 q 1247 100 1417 215 q 738 -15 1078 -15 q 227 100 396 -15 q 58 465 58 215 q 228 829 58 714 q 738 944 397 944 m 738 226 q 921 235 846 226 q 1042 271 996 244 q 1110 344 1089 297 q 1131 465 1131 390 q 1110 587 1131 540 q 1042 659 1089 633 q 921 694 996 685 q 738 703 846 703 q 554 694 629 703 q 433 659 479 685 q 365 587 386 633 q 344 465 344 540 q 365 344 344 390 q 433 271 386 297 q 554 235 479 244 q 738 226 629 226 m 904 993 l 490 1047 l 490 1204 l 904 1108 l 904 993 z "},"Ó":{"ha":1475,"x_min":58,"x_max":1417,"o":"m 738 944 q 1247 829 1076 944 q 1417 465 1417 714 q 1247 100 1417 215 q 738 -15 1078 -15 q 227 100 396 -15 q 58 465 58 215 q 228 829 58 714 q 738 944 397 944 m 738 226 q 921 235 846 226 q 1042 271 996 244 q 1110 344 1089 297 q 1131 465 1131 390 q 1110 587 1131 540 q 1042 659 1089 633 q 921 694 996 685 q 738 703 846 703 q 554 694 629 703 q 433 659 479 685 q 365 587 386 633 q 344 465 344 540 q 365 344 344 390 q 433 271 386 297 q 554 235 479 244 q 738 226 629 226 m 983 1047 l 569 993 l 569 1108 l 983 1204 l 983 1047 z "},"Ô":{"ha":1475,"x_min":58,"x_max":1417,"o":"m 738 944 q 1247 829 1076 944 q 1417 465 1417 714 q 1247 100 1417 215 q 738 -15 1078 -15 q 227 100 396 -15 q 58 465 58 215 q 228 829 58 714 q 738 944 397 944 m 738 226 q 921 235 846 226 q 1042 271 996 244 q 1110 344 1089 297 q 1131 465 1131 390 q 1110 587 1131 540 q 1042 659 1089 633 q 921 694 996 685 q 738 703 846 703 q 554 694 629 703 q 433 659 479 685 q 365 587 386 633 q 344 465 344 540 q 365 344 344 390 q 433 271 386 297 q 554 235 479 244 q 738 226 629 226 m 958 993 l 821 993 l 743 1133 l 731 1133 l 654 993 l 515 993 l 647 1204 l 829 1204 l 958 993 z "},"Õ":{"ha":1475,"x_min":58,"x_max":1417,"o":"m 738 944 q 1247 829 1076 944 q 1417 465 1417 714 q 1247 100 1417 215 q 738 -15 1078 -15 q 227 100 396 -15 q 58 465 58 215 q 228 829 58 714 q 738 944 397 944 m 738 226 q 921 235 846 226 q 1042 271 996 244 q 1110 344 1089 297 q 1131 465 1131 390 q 1110 587 1131 540 q 1042 659 1089 633 q 921 694 996 685 q 738 703 846 703 q 554 694 629 703 q 433 659 479 685 q 365 587 386 633 q 344 465 344 540 q 365 344 344 390 q 433 271 386 297 q 554 235 479 244 q 738 226 629 226 m 838 1017 q 786 1026 811 1017 q 737 1045 761 1035 q 688 1065 713 1056 q 636 1074 663 1074 q 576 1059 604 1074 q 529 1024 547 1044 l 529 1139 q 576 1171 549 1161 q 636 1181 604 1181 q 688 1172 663 1181 q 737 1151 713 1163 q 785 1131 761 1140 q 838 1122 810 1122 q 897 1137 869 1122 q 943 1172 925 1151 l 943 1058 q 897 1026 924 1035 q 838 1017 869 1017 z "},"Ö":{"ha":1475,"x_min":58,"x_max":1417,"o":"m 738 944 q 1247 829 1076 944 q 1417 465 1417 714 q 1247 100 1417 215 q 738 -15 1078 -15 q 227 100 396 -15 q 58 465 58 215 q 228 829 58 714 q 738 944 397 944 m 738 226 q 921 235 846 226 q 1042 271 996 244 q 1110 344 1089 297 q 1131 465 1131 390 q 1110 587 1131 540 q 1042 659 1089 633 q 921 694 996 685 q 738 703 846 703 q 554 694 629 703 q 433 659 479 685 q 365 587 386 633 q 344 465 344 540 q 365 344 344 390 q 433 271 386 297 q 554 235 479 244 q 738 226 629 226 m 475 1118 q 510 1195 475 1168 q 593 1222 544 1222 q 678 1195 643 1222 q 713 1118 713 1168 q 678 1043 713 1069 q 593 1017 643 1017 q 510 1043 544 1017 q 475 1118 475 1069 m 764 1118 q 799 1195 764 1168 q 882 1222 833 1222 q 967 1195 932 1222 q 1001 1118 1001 1168 q 967 1043 1001 1069 q 882 1017 932 1017 q 799 1043 833 1017 q 764 1118 764 1069 z "},"×":{"ha":874,"x_min":90,"x_max":738,"o":"m 626 154 l 414 368 l 200 156 l 90 264 l 304 478 l 92 692 l 201 800 l 414 588 l 626 800 l 736 690 l 524 478 l 738 264 l 626 154 z "},"Ø":{"ha":1475,"x_min":58,"x_max":1417,"o":"m 738 944 q 1114 894 964 944 l 1218 994 l 1289 929 l 1210 853 q 1365 699 1314 794 q 1417 465 1417 604 q 1247 100 1417 215 q 738 -15 1078 -15 q 528 -3 622 -15 q 358 36 435 8 l 254 -65 l 186 0 l 265 76 q 58 465 58 192 q 228 829 58 714 q 738 944 397 944 m 738 226 q 921 235 846 226 q 1042 271 996 244 q 1110 344 1089 297 q 1131 465 1131 390 q 1104 597 1131 549 q 1018 671 1078 646 l 565 233 q 644 228 601 229 q 738 226 688 226 m 344 465 q 370 333 344 382 q 454 258 396 283 l 907 696 q 828 701 871 699 q 738 703 786 703 q 554 694 629 703 q 433 659 479 685 q 365 587 386 633 q 344 465 344 540 z "},"Ù":{"ha":1369,"x_min":75,"x_max":1294,"o":"m 1294 406 q 715 -15 1294 -15 q 426 11 547 -15 q 227 90 306 38 q 112 222 149 143 q 75 406 75 300 l 75 929 l 361 929 l 361 406 q 375 319 361 354 q 427 263 389 285 q 535 233 465 242 q 715 224 604 224 q 854 233 799 224 q 943 265 910 243 q 991 322 976 288 q 1006 406 1006 357 l 1006 929 l 1294 929 l 1294 406 m 851 993 l 438 1047 l 438 1204 l 851 1108 l 851 993 z "},"Ú":{"ha":1369,"x_min":75,"x_max":1294,"o":"m 1294 406 q 715 -15 1294 -15 q 426 11 547 -15 q 227 90 306 38 q 112 222 149 143 q 75 406 75 300 l 75 929 l 361 929 l 361 406 q 375 319 361 354 q 427 263 389 285 q 535 233 465 242 q 715 224 604 224 q 854 233 799 224 q 943 265 910 243 q 991 322 976 288 q 1006 406 1006 357 l 1006 929 l 1294 929 l 1294 406 m 931 1047 l 517 993 l 517 1108 l 931 1204 l 931 1047 z "},"Û":{"ha":1369,"x_min":75,"x_max":1294,"o":"m 1294 406 q 715 -15 1294 -15 q 426 11 547 -15 q 227 90 306 38 q 112 222 149 143 q 75 406 75 300 l 75 929 l 361 929 l 361 406 q 375 319 361 354 q 427 263 389 285 q 535 233 465 242 q 715 224 604 224 q 854 233 799 224 q 943 265 910 243 q 991 322 976 288 q 1006 406 1006 357 l 1006 929 l 1294 929 l 1294 406 m 906 993 l 768 993 l 690 1133 l 678 1133 l 601 993 l 463 993 l 594 1204 l 776 1204 l 906 993 z "},"Ü":{"ha":1369,"x_min":75,"x_max":1294,"o":"m 1294 406 q 715 -15 1294 -15 q 426 11 547 -15 q 227 90 306 38 q 112 222 149 143 q 75 406 75 300 l 75 929 l 361 929 l 361 406 q 375 319 361 354 q 427 263 389 285 q 535 233 465 242 q 715 224 604 224 q 854 233 799 224 q 943 265 910 243 q 991 322 976 288 q 1006 406 1006 357 l 1006 929 l 1294 929 l 1294 406 m 422 1118 q 457 1195 422 1168 q 540 1222 492 1222 q 625 1195 590 1222 q 660 1118 660 1168 q 625 1043 660 1069 q 540 1017 590 1017 q 457 1043 492 1017 q 422 1118 422 1069 m 711 1118 q 746 1195 711 1168 q 829 1222 781 1222 q 914 1195 879 1222 q 949 1118 949 1168 q 914 1043 949 1069 q 829 1017 879 1017 q 746 1043 781 1017 q 711 1118 711 1069 z "},"Ý":{"ha":1428,"x_min":11,"x_max":1418,"o":"m 1418 929 l 867 307 l 867 0 l 578 0 l 578 308 l 11 929 l 381 929 l 603 671 q 632 638 614 658 q 669 596 650 618 q 706 554 689 574 q 729 525 722 535 q 769 578 743 544 q 846 672 796 611 l 1057 929 l 1418 929 m 954 1047 l 540 993 l 540 1108 l 954 1204 l 954 1047 z "},"Þ":{"ha":1331,"x_min":88,"x_max":1279,"o":"m 88 929 l 375 929 l 375 799 l 821 799 q 1015 774 929 799 q 1159 705 1100 750 q 1249 597 1218 660 q 1279 456 1279 533 q 1249 314 1279 378 q 1159 204 1218 250 q 1015 133 1100 158 q 822 108 931 108 l 443 108 l 633 350 l 849 350 q 953 378 917 350 q 990 454 990 406 q 953 533 990 503 q 849 563 917 563 l 375 563 l 375 0 l 88 0 l 88 929 z "},"ß":{"ha":2676,"x_min":33,"x_max":2635,"o":"m 949 558 q 1208 495 1119 558 q 1297 304 1297 432 q 1275 176 1297 233 q 1204 81 1253 119 q 1080 21 1156 42 q 899 0 1004 0 l 33 0 l 218 239 l 921 239 q 996 255 972 239 q 1019 307 1019 271 q 996 358 1019 343 q 921 374 972 374 l 415 374 q 260 393 325 374 q 151 447 194 413 q 88 531 108 482 q 67 640 67 581 q 90 759 67 706 q 160 850 113 813 q 284 908 208 888 q 465 929 360 929 l 1272 929 l 1088 688 l 443 688 q 369 674 393 688 q 344 624 344 660 q 369 573 344 588 q 443 558 393 558 l 949 558 m 2286 558 q 2546 495 2457 558 q 2635 304 2635 432 q 2613 176 2635 233 q 2542 81 2590 119 q 2417 21 2493 42 q 2236 0 2342 0 l 1371 0 l 1556 239 l 2258 239 q 2333 255 2310 239 q 2357 307 2357 271 q 2333 358 2357 343 q 2258 374 2310 374 l 1753 374 q 1597 393 1663 374 q 1489 447 1532 413 q 1425 531 1446 482 q 1404 640 1404 581 q 1427 759 1404 706 q 1498 850 1450 813 q 1622 908 1546 888 q 1803 929 1697 929 l 2610 929 l 2425 688 l 1781 688 q 1706 674 1731 688 q 1682 624 1682 660 q 1706 573 1682 588 q 1781 558 1731 558 l 2286 558 z "},"à":{"ha":1576,"x_min":15,"x_max":1561,"o":"m 481 0 l 654 239 l 888 239 q 974 239 929 239 q 1053 236 1019 239 q 1008 299 1033 261 q 958 371 982 338 l 792 617 l 356 0 l 15 0 l 611 840 q 685 913 640 881 q 797 944 729 944 q 906 915 863 944 q 981 840 950 885 l 1561 0 l 481 0 m 956 993 l 542 1047 l 542 1204 l 956 1108 l 956 993 z "},"á":{"ha":1576,"x_min":15,"x_max":1561,"o":"m 481 0 l 654 239 l 888 239 q 974 239 929 239 q 1053 236 1019 239 q 1008 299 1033 261 q 958 371 982 338 l 792 617 l 356 0 l 15 0 l 611 840 q 685 913 640 881 q 797 944 729 944 q 906 915 863 944 q 981 840 950 885 l 1561 0 l 481 0 m 1035 1047 l 621 993 l 621 1108 l 1035 1204 l 1035 1047 z "},"â":{"ha":1576,"x_min":15,"x_max":1561,"o":"m 481 0 l 654 239 l 888 239 q 974 239 929 239 q 1053 236 1019 239 q 1008 299 1033 261 q 958 371 982 338 l 792 617 l 356 0 l 15 0 l 611 840 q 685 913 640 881 q 797 944 729 944 q 906 915 863 944 q 981 840 950 885 l 1561 0 l 481 0 m 1010 993 l 872 993 l 794 1133 l 782 1133 l 706 993 l 567 993 l 699 1204 l 881 1204 l 1010 993 z "},"ã":{"ha":1576,"x_min":15,"x_max":1561,"o":"m 481 0 l 654 239 l 888 239 q 974 239 929 239 q 1053 236 1019 239 q 1008 299 1033 261 q 958 371 982 338 l 792 617 l 356 0 l 15 0 l 611 840 q 685 913 640 881 q 797 944 729 944 q 906 915 863 944 q 981 840 950 885 l 1561 0 l 481 0 m 889 1017 q 838 1026 863 1017 q 788 1045 813 1035 q 739 1065 764 1056 q 688 1074 714 1074 q 627 1059 656 1074 q 581 1024 599 1044 l 581 1139 q 628 1171 600 1161 q 688 1181 656 1181 q 739 1172 714 1181 q 788 1151 764 1163 q 837 1131 813 1140 q 889 1122 861 1122 q 949 1137 921 1122 q 994 1172 976 1151 l 994 1058 q 948 1026 975 1035 q 889 1017 921 1017 z "},"ä":{"ha":1576,"x_min":15,"x_max":1561,"o":"m 481 0 l 654 239 l 888 239 q 974 239 929 239 q 1053 236 1019 239 q 1008 299 1033 261 q 958 371 982 338 l 792 617 l 356 0 l 15 0 l 611 840 q 685 913 640 881 q 797 944 729 944 q 906 915 863 944 q 981 840 950 885 l 1561 0 l 481 0 m 525 1118 q 560 1195 525 1168 q 643 1222 594 1222 q 728 1195 693 1222 q 763 1118 763 1168 q 728 1043 763 1069 q 643 1017 693 1017 q 560 1043 594 1017 q 525 1118 525 1069 m 814 1118 q 849 1195 814 1168 q 932 1222 883 1222 q 1017 1195 982 1222 q 1051 1118 1051 1168 q 1017 1043 1051 1069 q 932 1017 982 1017 q 849 1043 883 1017 q 814 1118 814 1069 z "},"å":{"ha":1576,"x_min":15,"x_max":1561,"o":"m 481 0 l 654 239 l 888 239 q 974 239 929 239 q 1053 236 1019 239 q 1008 299 1033 261 q 958 371 982 338 l 792 617 l 356 0 l 15 0 l 611 840 q 685 913 640 881 q 797 944 729 944 q 906 915 863 944 q 981 840 950 885 l 1561 0 l 481 0 m 722 1213 q 696 1188 696 1213 l 696 1117 q 722 1092 696 1092 l 853 1092 q 881 1117 881 1092 l 881 1188 q 853 1213 881 1213 l 722 1213 m 989 1108 q 844 993 989 993 l 731 993 q 588 1108 588 993 l 588 1196 q 731 1313 588 1313 l 844 1313 q 989 1196 989 1313 l 989 1108 z "},"æ":{"ha":2003,"x_min":15,"x_max":1993,"o":"m 1989 929 l 1803 688 l 1201 688 l 1201 576 l 1938 576 l 1774 365 l 1201 365 l 1201 239 l 1993 239 l 1807 0 l 914 0 l 914 688 l 840 688 l 356 0 l 15 0 l 600 824 q 674 897 629 865 q 785 929 718 929 l 1989 929 z "},"ç":{"ha":1282,"x_min":58,"x_max":1269,"o":"m 1269 239 l 1085 0 l 618 0 q 394 36 497 0 q 217 135 292 72 q 101 285 143 199 q 58 474 58 372 q 101 659 58 575 q 217 803 143 743 q 394 897 292 864 q 618 929 497 929 l 1269 929 l 1085 688 l 618 688 q 510 671 560 688 q 424 624 460 654 q 367 553 388 594 q 346 461 346 511 q 366 370 346 411 q 423 300 386 329 q 510 255 460 271 q 618 239 560 239 l 1269 239 m 832 -43 l 718 -354 l 618 -354 l 618 -43 l 832 -43 z "},"è":{"ha":1178,"x_min":88,"x_max":1167,"o":"m 1167 239 l 982 0 l 88 0 l 88 929 l 1164 929 l 978 688 l 376 688 l 376 576 l 1113 576 l 947 365 l 376 365 l 376 239 l 1167 239 m 769 993 l 356 1047 l 356 1204 l 769 1108 l 769 993 z "},"é":{"ha":1178,"x_min":88,"x_max":1167,"o":"m 1167 239 l 982 0 l 88 0 l 88 929 l 1164 929 l 978 688 l 376 688 l 376 576 l 1113 576 l 947 365 l 376 365 l 376 239 l 1167 239 m 822 1047 l 408 993 l 408 1108 l 822 1204 l 822 1047 z "},"ê":{"ha":1178,"x_min":88,"x_max":1167,"o":"m 1167 239 l 982 0 l 88 0 l 88 929 l 1164 929 l 978 688 l 376 688 l 376 576 l 1113 576 l 947 365 l 376 365 l 376 239 l 1167 239 m 824 993 l 686 993 l 608 1133 l 596 1133 l 519 993 l 381 993 l 513 1204 l 694 1204 l 824 993 z "},"ë":{"ha":1178,"x_min":88,"x_max":1167,"o":"m 1167 239 l 982 0 l 88 0 l 88 929 l 1164 929 l 978 688 l 376 688 l 376 576 l 1113 576 l 947 365 l 376 365 l 376 239 l 1167 239 m 321 1118 q 356 1195 321 1168 q 439 1222 390 1222 q 524 1195 489 1222 q 558 1118 558 1168 q 524 1043 558 1069 q 439 1017 489 1017 q 356 1043 390 1017 q 321 1118 321 1069 m 610 1118 q 644 1195 610 1168 q 728 1222 679 1222 q 813 1195 778 1222 q 847 1118 847 1168 q 813 1043 847 1069 q 728 1017 778 1017 q 644 1043 679 1017 q 610 1118 610 1069 z "},"ì":{"ha":471,"x_min":-8,"x_max":406,"o":"m 379 0 l 92 0 l 92 929 l 379 929 l 379 0 m 406 993 l -8 1047 l -8 1204 l 406 1108 l 406 993 z "},"í":{"ha":471,"x_min":71,"x_max":485,"o":"m 379 0 l 92 0 l 92 929 l 379 929 l 379 0 m 485 1047 l 71 993 l 71 1108 l 485 1204 l 485 1047 z "},"î":{"ha":471,"x_min":15,"x_max":458,"o":"m 379 0 l 92 0 l 92 929 l 379 929 l 379 0 m 458 993 l 321 993 l 243 1133 l 231 1133 l 154 993 l 15 993 l 147 1204 l 329 1204 l 458 993 z "},"ï":{"ha":471,"x_min":-25,"x_max":501,"o":"m 379 0 l 92 0 l 92 929 l 379 929 l 379 0 m -25 1118 q 10 1195 -25 1168 q 93 1222 44 1222 q 178 1195 143 1222 q 213 1118 213 1168 q 178 1043 213 1069 q 93 1017 143 1017 q 10 1043 44 1017 q -25 1118 -25 1069 m 264 1118 q 299 1195 264 1168 q 382 1222 333 1222 q 467 1195 432 1222 q 501 1118 501 1168 q 467 1043 501 1069 q 382 1017 432 1017 q 299 1043 333 1017 q 264 1118 264 1069 z "},"ð":{"ha":1446,"x_min":0,"x_max":1388,"o":"m 829 576 l 665 365 l 494 365 l 494 239 l 828 239 q 938 255 888 239 q 1025 300 989 271 q 1082 370 1061 329 q 1103 461 1103 411 q 1082 551 1103 510 q 1024 623 1061 593 q 936 670 986 653 q 828 688 886 688 l 207 688 l 389 929 l 828 929 q 1053 896 950 929 q 1230 802 1156 863 q 1346 658 1304 742 q 1388 474 1388 574 q 1345 285 1388 372 q 1228 135 1303 199 q 1051 36 1154 72 q 828 0 949 0 l 207 0 l 207 365 l 0 365 l 164 576 l 829 576 z "},"ñ":{"ha":1269,"x_min":83,"x_max":1188,"o":"m 1029 -15 q 974 -6 1001 -15 q 914 35 947 3 l 344 546 l 344 0 l 83 0 l 83 771 q 97 850 83 817 q 131 904 110 883 q 181 935 153 925 q 240 944 210 944 q 294 935 267 944 q 356 894 321 926 l 925 383 l 925 929 l 1188 929 l 1188 160 q 1174 81 1188 114 q 1140 26 1161 47 q 1089 -6 1118 4 q 1029 -15 1060 -15 m 731 1017 q 679 1026 704 1017 q 630 1045 654 1035 q 581 1065 606 1056 q 529 1074 556 1074 q 469 1059 497 1074 q 422 1024 440 1044 l 422 1139 q 469 1171 442 1161 q 529 1181 497 1181 q 581 1172 556 1181 q 630 1151 606 1163 q 678 1131 654 1140 q 731 1122 703 1122 q 790 1137 763 1122 q 836 1172 818 1151 l 836 1058 q 790 1026 817 1035 q 731 1017 763 1017 z "},"ò":{"ha":1475,"x_min":58,"x_max":1417,"o":"m 738 944 q 1247 829 1076 944 q 1417 465 1417 714 q 1247 100 1417 215 q 738 -15 1078 -15 q 227 100 396 -15 q 58 465 58 215 q 228 829 58 714 q 738 944 397 944 m 738 226 q 921 235 846 226 q 1042 271 996 244 q 1110 344 1089 297 q 1131 465 1131 390 q 1110 587 1131 540 q 1042 659 1089 633 q 921 694 996 685 q 738 703 846 703 q 554 694 629 703 q 433 659 479 685 q 365 587 386 633 q 344 465 344 540 q 365 344 344 390 q 433 271 386 297 q 554 235 479 244 q 738 226 629 226 m 904 993 l 490 1047 l 490 1204 l 904 1108 l 904 993 z "},"ó":{"ha":1475,"x_min":58,"x_max":1417,"o":"m 738 944 q 1247 829 1076 944 q 1417 465 1417 714 q 1247 100 1417 215 q 738 -15 1078 -15 q 227 100 396 -15 q 58 465 58 215 q 228 829 58 714 q 738 944 397 944 m 738 226 q 921 235 846 226 q 1042 271 996 244 q 1110 344 1089 297 q 1131 465 1131 390 q 1110 587 1131 540 q 1042 659 1089 633 q 921 694 996 685 q 738 703 846 703 q 554 694 629 703 q 433 659 479 685 q 365 587 386 633 q 344 465 344 540 q 365 344 344 390 q 433 271 386 297 q 554 235 479 244 q 738 226 629 226 m 983 1047 l 569 993 l 569 1108 l 983 1204 l 983 1047 z "},"ô":{"ha":1475,"x_min":58,"x_max":1417,"o":"m 738 944 q 1247 829 1076 944 q 1417 465 1417 714 q 1247 100 1417 215 q 738 -15 1078 -15 q 227 100 396 -15 q 58 465 58 215 q 228 829 58 714 q 738 944 397 944 m 738 226 q 921 235 846 226 q 1042 271 996 244 q 1110 344 1089 297 q 1131 465 1131 390 q 1110 587 1131 540 q 1042 659 1089 633 q 921 694 996 685 q 738 703 846 703 q 554 694 629 703 q 433 659 479 685 q 365 587 386 633 q 344 465 344 540 q 365 344 344 390 q 433 271 386 297 q 554 235 479 244 q 738 226 629 226 m 958 993 l 821 993 l 743 1133 l 731 1133 l 654 993 l 515 993 l 647 1204 l 829 1204 l 958 993 z "},"õ":{"ha":1475,"x_min":58,"x_max":1417,"o":"m 738 944 q 1247 829 1076 944 q 1417 465 1417 714 q 1247 100 1417 215 q 738 -15 1078 -15 q 227 100 396 -15 q 58 465 58 215 q 228 829 58 714 q 738 944 397 944 m 738 226 q 921 235 846 226 q 1042 271 996 244 q 1110 344 1089 297 q 1131 465 1131 390 q 1110 587 1131 540 q 1042 659 1089 633 q 921 694 996 685 q 738 703 846 703 q 554 694 629 703 q 433 659 479 685 q 365 587 386 633 q 344 465 344 540 q 365 344 344 390 q 433 271 386 297 q 554 235 479 244 q 738 226 629 226 m 838 1017 q 786 1026 811 1017 q 737 1045 761 1035 q 688 1065 713 1056 q 636 1074 663 1074 q 576 1059 604 1074 q 529 1024 547 1044 l 529 1139 q 576 1171 549 1161 q 636 1181 604 1181 q 688 1172 663 1181 q 737 1151 713 1163 q 785 1131 761 1140 q 838 1122 810 1122 q 897 1137 869 1122 q 943 1172 925 1151 l 943 1058 q 897 1026 924 1035 q 838 1017 869 1017 z "},"ö":{"ha":1475,"x_min":58,"x_max":1417,"o":"m 738 944 q 1247 829 1076 944 q 1417 465 1417 714 q 1247 100 1417 215 q 738 -15 1078 -15 q 227 100 396 -15 q 58 465 58 215 q 228 829 58 714 q 738 944 397 944 m 738 226 q 921 235 846 226 q 1042 271 996 244 q 1110 344 1089 297 q 1131 465 1131 390 q 1110 587 1131 540 q 1042 659 1089 633 q 921 694 996 685 q 738 703 846 703 q 554 694 629 703 q 433 659 479 685 q 365 587 386 633 q 344 465 344 540 q 365 344 344 390 q 433 271 386 297 q 554 235 479 244 q 738 226 629 226 m 475 1118 q 510 1195 475 1168 q 593 1222 544 1222 q 678 1195 643 1222 q 713 1118 713 1168 q 678 1043 713 1069 q 593 1017 643 1017 q 510 1043 544 1017 q 475 1118 475 1069 m 764 1118 q 799 1195 764 1168 q 882 1222 833 1222 q 967 1195 932 1222 q 1001 1118 1001 1168 q 967 1043 1001 1069 q 882 1017 932 1017 q 799 1043 833 1017 q 764 1118 764 1069 z "},"÷":{"ha":874,"x_min":58,"x_max":817,"o":"m 817 394 l 58 394 l 58 550 l 817 550 l 817 394 m 281 794 q 326 895 281 860 q 436 931 371 931 q 548 895 503 931 q 593 794 593 860 q 548 696 593 731 q 436 661 503 661 q 326 696 371 661 q 281 794 281 731 m 281 140 q 326 241 281 206 q 436 276 371 276 q 548 241 503 276 q 593 140 593 206 q 548 42 593 76 q 436 7 503 7 q 326 42 371 7 q 281 140 281 76 z "},"ø":{"ha":1475,"x_min":58,"x_max":1417,"o":"m 738 944 q 1114 894 964 944 l 1218 994 l 1289 929 l 1210 853 q 1365 699 1314 794 q 1417 465 1417 604 q 1247 100 1417 215 q 738 -15 1078 -15 q 528 -3 622 -15 q 358 36 435 8 l 254 -65 l 186 0 l 265 76 q 58 465 58 192 q 228 829 58 714 q 738 944 397 944 m 738 226 q 921 235 846 226 q 1042 271 996 244 q 1110 344 1089 297 q 1131 465 1131 390 q 1104 597 1131 549 q 1018 671 1078 646 l 565 233 q 644 228 601 229 q 738 226 688 226 m 344 465 q 370 333 344 382 q 454 258 396 283 l 907 696 q 828 701 871 699 q 738 703 786 703 q 554 694 629 703 q 433 659 479 685 q 365 587 386 633 q 344 465 344 540 z "},"ù":{"ha":1369,"x_min":75,"x_max":1294,"o":"m 1294 406 q 715 -15 1294 -15 q 426 11 547 -15 q 227 90 306 38 q 112 222 149 143 q 75 406 75 300 l 75 929 l 361 929 l 361 406 q 375 319 361 354 q 427 263 389 285 q 535 233 465 242 q 715 224 604 224 q 854 233 799 224 q 943 265 910 243 q 991 322 976 288 q 1006 406 1006 357 l 1006 929 l 1294 929 l 1294 406 m 851 993 l 438 1047 l 438 1204 l 851 1108 l 851 993 z "},"ú":{"ha":1369,"x_min":75,"x_max":1294,"o":"m 1294 406 q 715 -15 1294 -15 q 426 11 547 -15 q 227 90 306 38 q 112 222 149 143 q 75 406 75 300 l 75 929 l 361 929 l 361 406 q 375 319 361 354 q 427 263 389 285 q 535 233 465 242 q 715 224 604 224 q 854 233 799 224 q 943 265 910 243 q 991 322 976 288 q 1006 406 1006 357 l 1006 929 l 1294 929 l 1294 406 m 931 1047 l 517 993 l 517 1108 l 931 1204 l 931 1047 z "},"û":{"ha":1369,"x_min":75,"x_max":1294,"o":"m 1294 406 q 715 -15 1294 -15 q 426 11 547 -15 q 227 90 306 38 q 112 222 149 143 q 75 406 75 300 l 75 929 l 361 929 l 361 406 q 375 319 361 354 q 427 263 389 285 q 535 233 465 242 q 715 224 604 224 q 854 233 799 224 q 943 265 910 243 q 991 322 976 288 q 1006 406 1006 357 l 1006 929 l 1294 929 l 1294 406 m 906 993 l 768 993 l 690 1133 l 678 1133 l 601 993 l 463 993 l 594 1204 l 776 1204 l 906 993 z "},"ü":{"ha":1369,"x_min":75,"x_max":1294,"o":"m 1294 406 q 715 -15 1294 -15 q 426 11 547 -15 q 227 90 306 38 q 112 222 149 143 q 75 406 75 300 l 75 929 l 361 929 l 361 406 q 375 319 361 354 q 427 263 389 285 q 535 233 465 242 q 715 224 604 224 q 854 233 799 224 q 943 265 910 243 q 991 322 976 288 q 1006 406 1006 357 l 1006 929 l 1294 929 l 1294 406 m 422 1118 q 457 1195 422 1168 q 540 1222 492 1222 q 625 1195 590 1222 q 660 1118 660 1168 q 625 1043 660 1069 q 540 1017 590 1017 q 457 1043 492 1017 q 422 1118 422 1069 m 711 1118 q 746 1195 711 1168 q 829 1222 781 1222 q 914 1195 879 1222 q 949 1118 949 1168 q 914 1043 949 1069 q 829 1017 879 1017 q 746 1043 781 1017 q 711 1118 711 1069 z "},"ý":{"ha":1428,"x_min":11,"x_max":1418,"o":"m 1418 929 l 867 307 l 867 0 l 578 0 l 578 308 l 11 929 l 381 929 l 603 671 q 632 638 614 658 q 669 596 650 618 q 706 554 689 574 q 729 525 722 535 q 769 578 743 544 q 846 672 796 611 l 1057 929 l 1418 929 m 954 1047 l 540 993 l 540 1108 l 954 1204 l 954 1047 z "},"þ":{"ha":1331,"x_min":88,"x_max":1279,"o":"m 88 929 l 375 929 l 375 799 l 821 799 q 1015 774 929 799 q 1159 705 1100 750 q 1249 597 1218 660 q 1279 456 1279 533 q 1249 314 1279 378 q 1159 204 1218 250 q 1015 133 1100 158 q 822 108 931 108 l 443 108 l 633 350 l 849 350 q 953 378 917 350 q 990 454 990 406 q 953 533 990 503 q 849 563 917 563 l 375 563 l 375 0 l 88 0 l 88 929 z "},"ÿ":{"ha":1428,"x_min":11,"x_max":1418,"o":"m 1418 929 l 867 307 l 867 0 l 578 0 l 578 308 l 11 929 l 381 929 l 603 671 q 632 638 614 658 q 669 596 650 618 q 706 554 689 574 q 729 525 722 535 q 769 578 743 544 q 846 672 796 611 l 1057 929 l 1418 929 m 465 1118 q 500 1195 465 1168 q 583 1222 535 1222 q 668 1195 633 1222 q 703 1118 703 1168 q 668 1043 703 1069 q 583 1017 633 1017 q 500 1043 535 1017 q 465 1118 465 1069 m 754 1118 q 789 1195 754 1168 q 872 1222 824 1222 q 957 1195 922 1222 q 992 1118 992 1168 q 957 1043 992 1069 q 872 1017 922 1017 q 789 1043 824 1017 q 754 1118 754 1069 z "},"Ā":{"ha":1576,"x_min":15,"x_max":1561,"o":"m 481 0 l 654 239 l 888 239 q 974 239 929 239 q 1053 236 1019 239 q 1008 299 1033 261 q 958 371 982 338 l 792 617 l 356 0 l 15 0 l 611 840 q 685 913 640 881 q 797 944 729 944 q 906 915 863 944 q 981 840 950 885 l 1561 0 l 481 0 m 994 1042 l 581 1042 l 581 1157 l 994 1157 l 994 1042 z "},"ā":{"ha":1576,"x_min":15,"x_max":1561,"o":"m 481 0 l 654 239 l 888 239 q 974 239 929 239 q 1053 236 1019 239 q 1008 299 1033 261 q 958 371 982 338 l 792 617 l 356 0 l 15 0 l 611 840 q 685 913 640 881 q 797 944 729 944 q 906 915 863 944 q 981 840 950 885 l 1561 0 l 481 0 m 994 1042 l 581 1042 l 581 1157 l 994 1157 l 994 1042 z "},"Ă":{"ha":1576,"x_min":15,"x_max":1561,"o":"m 481 0 l 654 239 l 888 239 q 974 239 929 239 q 1053 236 1019 239 q 1008 299 1033 261 q 958 371 982 338 l 792 617 l 356 0 l 15 0 l 611 840 q 685 913 640 881 q 797 944 729 944 q 906 915 863 944 q 981 840 950 885 l 1561 0 l 481 0 m 1010 1204 q 1001 1140 1010 1176 q 971 1072 992 1104 q 916 1016 950 1039 q 832 993 882 993 l 746 993 q 662 1016 696 993 q 607 1072 628 1039 q 576 1140 586 1104 q 567 1204 567 1176 l 706 1204 q 709 1167 706 1189 q 722 1125 713 1144 q 745 1092 731 1106 q 783 1078 760 1078 l 803 1078 q 837 1092 824 1078 q 858 1125 850 1106 q 869 1167 865 1144 q 872 1204 872 1189 l 1010 1204 z "},"ă":{"ha":1576,"x_min":15,"x_max":1561,"o":"m 481 0 l 654 239 l 888 239 q 974 239 929 239 q 1053 236 1019 239 q 1008 299 1033 261 q 958 371 982 338 l 792 617 l 356 0 l 15 0 l 611 840 q 685 913 640 881 q 797 944 729 944 q 906 915 863 944 q 981 840 950 885 l 1561 0 l 481 0 m 1010 1204 q 1001 1140 1010 1176 q 971 1072 992 1104 q 916 1016 950 1039 q 832 993 882 993 l 746 993 q 662 1016 696 993 q 607 1072 628 1039 q 576 1140 586 1104 q 567 1204 567 1176 l 706 1204 q 709 1167 706 1189 q 722 1125 713 1144 q 745 1092 731 1106 q 783 1078 760 1078 l 803 1078 q 837 1092 824 1078 q 858 1125 850 1106 q 869 1167 865 1144 q 872 1204 872 1189 l 1010 1204 z "},"Ą":{"ha":1576,"x_min":15,"x_max":1561,"o":"m 1561 -347 l 1417 -347 q 1295 -311 1339 -347 q 1251 -226 1251 -275 q 1268 -165 1251 -196 q 1321 -104 1285 -133 l 1449 0 l 481 0 l 654 239 l 888 239 q 974 239 929 239 q 1053 236 1019 239 q 1008 299 1033 261 q 958 371 982 338 l 792 617 l 356 0 l 15 0 l 611 840 q 685 913 640 881 q 797 944 729 944 q 906 915 863 944 q 981 840 950 885 l 1561 0 l 1410 -122 q 1396 -147 1396 -135 q 1426 -169 1396 -169 l 1561 -169 l 1561 -347 z "},"ą":{"ha":1576,"x_min":15,"x_max":1561,"o":"m 1561 -347 l 1417 -347 q 1295 -311 1339 -347 q 1251 -226 1251 -275 q 1268 -165 1251 -196 q 1321 -104 1285 -133 l 1449 0 l 481 0 l 654 239 l 888 239 q 974 239 929 239 q 1053 236 1019 239 q 1008 299 1033 261 q 958 371 982 338 l 792 617 l 356 0 l 15 0 l 611 840 q 685 913 640 881 q 797 944 729 944 q 906 915 863 944 q 981 840 950 885 l 1561 0 l 1410 -122 q 1396 -147 1396 -135 q 1426 -169 1396 -169 l 1561 -169 l 1561 -347 z "},"Ć":{"ha":1282,"x_min":58,"x_max":1269,"o":"m 1269 239 l 1085 0 l 618 0 q 394 36 497 0 q 217 135 292 72 q 101 285 143 199 q 58 474 58 372 q 101 659 58 575 q 217 803 143 743 q 394 897 292 864 q 618 929 497 929 l 1269 929 l 1085 688 l 618 688 q 510 671 560 688 q 424 624 460 654 q 367 553 388 594 q 346 461 346 511 q 366 370 346 411 q 423 300 386 329 q 510 255 460 271 q 618 239 560 239 l 1269 239 m 953 1047 l 539 993 l 539 1108 l 953 1204 l 953 1047 z "},"ć":{"ha":1282,"x_min":58,"x_max":1269,"o":"m 1269 239 l 1085 0 l 618 0 q 394 36 497 0 q 217 135 292 72 q 101 285 143 199 q 58 474 58 372 q 101 659 58 575 q 217 803 143 743 q 394 897 292 864 q 618 929 497 929 l 1269 929 l 1085 688 l 618 688 q 510 671 560 688 q 424 624 460 654 q 367 553 388 594 q 346 461 346 511 q 366 370 346 411 q 423 300 386 329 q 510 255 460 271 q 618 239 560 239 l 1269 239 m 953 1047 l 539 993 l 539 1108 l 953 1204 l 953 1047 z "},"Ĉ":{"ha":1282,"x_min":58,"x_max":1269,"o":"m 1269 239 l 1085 0 l 618 0 q 394 36 497 0 q 217 135 292 72 q 101 285 143 199 q 58 474 58 372 q 101 659 58 575 q 217 803 143 743 q 394 897 292 864 q 618 929 497 929 l 1269 929 l 1085 688 l 618 688 q 510 671 560 688 q 424 624 460 654 q 367 553 388 594 q 346 461 346 511 q 366 370 346 411 q 423 300 386 329 q 510 255 460 271 q 618 239 560 239 l 1269 239 m 968 993 l 831 993 l 753 1133 l 740 1133 l 664 993 l 525 993 l 657 1204 l 839 1204 l 968 993 z "},"ĉ":{"ha":1282,"x_min":58,"x_max":1269,"o":"m 1269 239 l 1085 0 l 618 0 q 394 36 497 0 q 217 135 292 72 q 101 285 143 199 q 58 474 58 372 q 101 659 58 575 q 217 803 143 743 q 394 897 292 864 q 618 929 497 929 l 1269 929 l 1085 688 l 618 688 q 510 671 560 688 q 424 624 460 654 q 367 553 388 594 q 346 461 346 511 q 366 370 346 411 q 423 300 386 329 q 510 255 460 271 q 618 239 560 239 l 1269 239 m 968 993 l 831 993 l 753 1133 l 740 1133 l 664 993 l 525 993 l 657 1204 l 839 1204 l 968 993 z "},"Ċ":{"ha":1282,"x_min":58,"x_max":1269,"o":"m 1269 239 l 1085 0 l 618 0 q 394 36 497 0 q 217 135 292 72 q 101 285 143 199 q 58 474 58 372 q 101 659 58 575 q 217 803 143 743 q 394 897 292 864 q 618 929 497 929 l 1269 929 l 1085 688 l 618 688 q 510 671 560 688 q 424 624 460 654 q 367 553 388 594 q 346 461 346 511 q 366 370 346 411 q 423 300 386 329 q 510 255 460 271 q 618 239 560 239 l 1269 239 m 601 1118 q 636 1195 601 1168 q 719 1222 671 1222 q 804 1195 769 1222 q 839 1118 839 1168 q 804 1043 839 1069 q 719 1017 769 1017 q 636 1043 671 1017 q 601 1118 601 1069 z "},"ċ":{"ha":1282,"x_min":58,"x_max":1269,"o":"m 1269 239 l 1085 0 l 618 0 q 394 36 497 0 q 217 135 292 72 q 101 285 143 199 q 58 474 58 372 q 101 659 58 575 q 217 803 143 743 q 394 897 292 864 q 618 929 497 929 l 1269 929 l 1085 688 l 618 688 q 510 671 560 688 q 424 624 460 654 q 367 553 388 594 q 346 461 346 511 q 366 370 346 411 q 423 300 386 329 q 510 255 460 271 q 618 239 560 239 l 1269 239 m 601 1118 q 636 1195 601 1168 q 719 1222 671 1222 q 804 1195 769 1222 q 839 1118 839 1168 q 804 1043 839 1069 q 719 1017 769 1017 q 636 1043 671 1017 q 601 1118 601 1069 z "},"Č":{"ha":1282,"x_min":58,"x_max":1269,"o":"m 1269 239 l 1085 0 l 618 0 q 394 36 497 0 q 217 135 292 72 q 101 285 143 199 q 58 474 58 372 q 101 659 58 575 q 217 803 143 743 q 394 897 292 864 q 618 929 497 929 l 1269 929 l 1085 688 l 618 688 q 510 671 560 688 q 424 624 460 654 q 367 553 388 594 q 346 461 346 511 q 366 370 346 411 q 423 300 386 329 q 510 255 460 271 q 618 239 560 239 l 1269 239 m 486 1204 l 625 1204 l 703 1064 l 715 1064 l 792 1204 l 929 1204 l 799 993 l 617 993 l 486 1204 z "},"č":{"ha":1282,"x_min":58,"x_max":1269,"o":"m 1269 239 l 1085 0 l 618 0 q 394 36 497 0 q 217 135 292 72 q 101 285 143 199 q 58 474 58 372 q 101 659 58 575 q 217 803 143 743 q 394 897 292 864 q 618 929 497 929 l 1269 929 l 1085 688 l 618 688 q 510 671 560 688 q 424 624 460 654 q 367 553 388 594 q 346 461 346 511 q 366 370 346 411 q 423 300 386 329 q 510 255 460 271 q 618 239 560 239 l 1269 239 m 486 1204 l 625 1204 l 703 1064 l 715 1064 l 792 1204 l 929 1204 l 799 993 l 617 993 l 486 1204 z "},"Ď":{"ha":1328,"x_min":88,"x_max":1269,"o":"m 1269 474 q 1227 285 1269 372 q 1110 135 1185 199 q 933 36 1036 72 q 710 0 831 0 l 88 0 l 88 579 l 376 579 l 376 239 l 710 239 q 820 255 769 239 q 907 300 871 271 q 964 370 943 329 q 985 461 985 411 q 964 551 985 510 q 906 623 943 593 q 818 670 868 653 q 710 688 768 688 l 88 688 l 271 929 l 710 929 q 935 896 832 929 q 1112 802 1038 863 q 1228 658 1186 742 q 1269 474 1269 574 m 350 1204 l 489 1204 l 567 1064 l 579 1064 l 656 1204 l 793 1204 l 663 993 l 481 993 l 350 1204 z "},"ď":{"ha":1328,"x_min":88,"x_max":1269,"o":"m 1269 474 q 1227 285 1269 372 q 1110 135 1185 199 q 933 36 1036 72 q 710 0 831 0 l 88 0 l 88 579 l 376 579 l 376 239 l 710 239 q 820 255 769 239 q 907 300 871 271 q 964 370 943 329 q 985 461 985 411 q 964 551 985 510 q 906 623 943 593 q 818 670 868 653 q 710 688 768 688 l 88 688 l 271 929 l 710 929 q 935 896 832 929 q 1112 802 1038 863 q 1228 658 1186 742 q 1269 474 1269 574 m 350 1204 l 489 1204 l 567 1064 l 579 1064 l 656 1204 l 793 1204 l 663 993 l 481 993 l 350 1204 z "},"Đ":{"ha":1446,"x_min":0,"x_max":1388,"o":"m 829 576 l 665 365 l 494 365 l 494 239 l 828 239 q 938 255 888 239 q 1025 300 989 271 q 1082 370 1061 329 q 1103 461 1103 411 q 1082 551 1103 510 q 1024 623 1061 593 q 936 670 986 653 q 828 688 886 688 l 207 688 l 389 929 l 828 929 q 1053 896 950 929 q 1230 802 1156 863 q 1346 658 1304 742 q 1388 474 1388 574 q 1345 285 1388 372 q 1228 135 1303 199 q 1051 36 1154 72 q 828 0 949 0 l 207 0 l 207 365 l 0 365 l 164 576 l 829 576 z "},"đ":{"ha":1446,"x_min":0,"x_max":1388,"o":"m 829 576 l 665 365 l 494 365 l 494 239 l 828 239 q 938 255 888 239 q 1025 300 989 271 q 1082 370 1061 329 q 1103 461 1103 411 q 1082 551 1103 510 q 1024 623 1061 593 q 936 670 986 653 q 828 688 886 688 l 207 688 l 389 929 l 828 929 q 1053 896 950 929 q 1230 802 1156 863 q 1346 658 1304 742 q 1388 474 1388 574 q 1345 285 1388 372 q 1228 135 1303 199 q 1051 36 1154 72 q 828 0 949 0 l 207 0 l 207 365 l 0 365 l 164 576 l 829 576 z "},"Ē":{"ha":1178,"x_min":88,"x_max":1167,"o":"m 1167 239 l 982 0 l 88 0 l 88 929 l 1164 929 l 978 688 l 376 688 l 376 576 l 1113 576 l 947 365 l 376 365 l 376 239 l 1167 239 m 794 1042 l 381 1042 l 381 1157 l 794 1157 l 794 1042 z "},"ē":{"ha":1178,"x_min":88,"x_max":1167,"o":"m 1167 239 l 982 0 l 88 0 l 88 929 l 1164 929 l 978 688 l 376 688 l 376 576 l 1113 576 l 947 365 l 376 365 l 376 239 l 1167 239 m 794 1042 l 381 1042 l 381 1157 l 794 1157 l 794 1042 z "},"Ĕ":{"ha":1178,"x_min":88,"x_max":1167,"o":"m 1167 239 l 982 0 l 88 0 l 88 929 l 1164 929 l 978 688 l 376 688 l 376 576 l 1113 576 l 947 365 l 376 365 l 376 239 l 1167 239 m 811 1204 q 802 1140 811 1176 q 772 1072 793 1104 q 717 1016 751 1039 q 633 993 683 993 l 547 993 q 463 1016 497 993 q 408 1072 429 1039 q 378 1140 388 1104 q 368 1204 368 1176 l 507 1204 q 510 1167 507 1189 q 523 1125 514 1144 q 547 1092 532 1106 q 585 1078 561 1078 l 604 1078 q 638 1092 625 1078 q 659 1125 651 1106 q 670 1167 667 1144 q 674 1204 674 1189 l 811 1204 z "},"ĕ":{"ha":1178,"x_min":88,"x_max":1167,"o":"m 1167 239 l 982 0 l 88 0 l 88 929 l 1164 929 l 978 688 l 376 688 l 376 576 l 1113 576 l 947 365 l 376 365 l 376 239 l 1167 239 m 811 1204 q 802 1140 811 1176 q 772 1072 793 1104 q 717 1016 751 1039 q 633 993 683 993 l 547 993 q 463 1016 497 993 q 408 1072 429 1039 q 378 1140 388 1104 q 368 1204 368 1176 l 507 1204 q 510 1167 507 1189 q 523 1125 514 1144 q 547 1092 532 1106 q 585 1078 561 1078 l 604 1078 q 638 1092 625 1078 q 659 1125 651 1106 q 670 1167 667 1144 q 674 1204 674 1189 l 811 1204 z "},"Ė":{"ha":1178,"x_min":88,"x_max":1167,"o":"m 1167 239 l 982 0 l 88 0 l 88 929 l 1164 929 l 978 688 l 376 688 l 376 576 l 1113 576 l 947 365 l 376 365 l 376 239 l 1167 239 m 493 1118 q 528 1195 493 1168 q 611 1222 563 1222 q 696 1195 661 1222 q 731 1118 731 1168 q 696 1043 731 1069 q 611 1017 661 1017 q 528 1043 563 1017 q 493 1118 493 1069 z "},"ė":{"ha":1178,"x_min":88,"x_max":1167,"o":"m 1167 239 l 982 0 l 88 0 l 88 929 l 1164 929 l 978 688 l 376 688 l 376 576 l 1113 576 l 947 365 l 376 365 l 376 239 l 1167 239 m 493 1118 q 528 1195 493 1168 q 611 1222 563 1222 q 696 1195 661 1222 q 731 1118 731 1168 q 696 1043 731 1069 q 611 1017 661 1017 q 528 1043 563 1017 q 493 1118 493 1069 z "},"Ę":{"ha":1178,"x_min":88,"x_max":1167,"o":"m 1036 -347 l 910 -347 q 788 -311 832 -347 q 744 -226 744 -275 q 756 -168 744 -196 q 796 -104 767 -140 l 876 0 l 88 0 l 88 929 l 1164 929 l 978 688 l 376 688 l 376 576 l 1113 576 l 947 365 l 376 365 l 376 239 l 1167 239 l 885 -122 q 876 -134 878 -131 q 875 -147 875 -137 q 906 -169 875 -169 l 1036 -169 l 1036 -347 z "},"ę":{"ha":1178,"x_min":88,"x_max":1167,"o":"m 1036 -347 l 910 -347 q 788 -311 832 -347 q 744 -226 744 -275 q 756 -168 744 -196 q 796 -104 767 -140 l 876 0 l 88 0 l 88 929 l 1164 929 l 978 688 l 376 688 l 376 576 l 1113 576 l 947 365 l 376 365 l 376 239 l 1167 239 l 885 -122 q 876 -134 878 -131 q 875 -147 875 -137 q 906 -169 875 -169 l 1036 -169 l 1036 -347 z "},"Ě":{"ha":1178,"x_min":88,"x_max":1167,"o":"m 1167 239 l 982 0 l 88 0 l 88 929 l 1164 929 l 978 688 l 376 688 l 376 576 l 1113 576 l 947 365 l 376 365 l 376 239 l 1167 239 m 379 1204 l 518 1204 l 596 1064 l 608 1064 l 685 1204 l 822 1204 l 692 993 l 510 993 l 379 1204 z "},"ě":{"ha":1178,"x_min":88,"x_max":1167,"o":"m 1167 239 l 982 0 l 88 0 l 88 929 l 1164 929 l 978 688 l 376 688 l 376 576 l 1113 576 l 947 365 l 376 365 l 376 239 l 1167 239 m 379 1204 l 518 1204 l 596 1064 l 608 1064 l 685 1204 l 822 1204 l 692 993 l 510 993 l 379 1204 z "},"Ĝ":{"ha":1333,"x_min":58,"x_max":1283,"o":"m 661 581 l 1256 581 l 1256 0 l 618 0 q 394 36 497 0 q 217 135 292 72 q 101 285 143 199 q 58 474 58 372 q 101 659 58 575 q 217 803 143 743 q 394 897 292 864 q 618 929 497 929 l 1283 929 l 1097 688 l 618 688 q 510 671 560 688 q 423 624 460 654 q 365 552 386 593 q 344 461 344 511 q 365 370 344 411 q 422 300 385 329 q 508 255 458 271 q 618 239 558 239 l 969 239 l 969 374 l 489 374 l 661 581 m 929 993 l 792 993 l 714 1133 l 701 1133 l 625 993 l 486 993 l 618 1204 l 800 1204 l 929 993 z "},"ĝ":{"ha":1333,"x_min":58,"x_max":1283,"o":"m 661 581 l 1256 581 l 1256 0 l 618 0 q 394 36 497 0 q 217 135 292 72 q 101 285 143 199 q 58 474 58 372 q 101 659 58 575 q 217 803 143 743 q 394 897 292 864 q 618 929 497 929 l 1283 929 l 1097 688 l 618 688 q 510 671 560 688 q 423 624 460 654 q 365 552 386 593 q 344 461 344 511 q 365 370 344 411 q 422 300 385 329 q 508 255 458 271 q 618 239 558 239 l 969 239 l 969 374 l 489 374 l 661 581 m 929 993 l 792 993 l 714 1133 l 701 1133 l 625 993 l 486 993 l 618 1204 l 800 1204 l 929 993 z "},"Ğ":{"ha":1333,"x_min":58,"x_max":1283,"o":"m 661 581 l 1256 581 l 1256 0 l 618 0 q 394 36 497 0 q 217 135 292 72 q 101 285 143 199 q 58 474 58 372 q 101 659 58 575 q 217 803 143 743 q 394 897 292 864 q 618 929 497 929 l 1283 929 l 1097 688 l 618 688 q 510 671 560 688 q 423 624 460 654 q 365 552 386 593 q 344 461 344 511 q 365 370 344 411 q 422 300 385 329 q 508 255 458 271 q 618 239 558 239 l 969 239 l 969 374 l 489 374 l 661 581 m 929 1204 q 920 1140 929 1176 q 890 1072 911 1104 q 835 1016 869 1039 q 751 993 801 993 l 665 993 q 581 1016 615 993 q 526 1072 547 1039 q 496 1140 506 1104 q 486 1204 486 1176 l 625 1204 q 628 1167 625 1189 q 641 1125 632 1144 q 665 1092 650 1106 q 703 1078 679 1078 l 722 1078 q 756 1092 743 1078 q 777 1125 769 1106 q 788 1167 785 1144 q 792 1204 792 1189 l 929 1204 z "},"ğ":{"ha":1333,"x_min":58,"x_max":1283,"o":"m 661 581 l 1256 581 l 1256 0 l 618 0 q 394 36 497 0 q 217 135 292 72 q 101 285 143 199 q 58 474 58 372 q 101 659 58 575 q 217 803 143 743 q 394 897 292 864 q 618 929 497 929 l 1283 929 l 1097 688 l 618 688 q 510 671 560 688 q 423 624 460 654 q 365 552 386 593 q 344 461 344 511 q 365 370 344 411 q 422 300 385 329 q 508 255 458 271 q 618 239 558 239 l 969 239 l 969 374 l 489 374 l 661 581 m 929 1204 q 920 1140 929 1176 q 890 1072 911 1104 q 835 1016 869 1039 q 751 993 801 993 l 665 993 q 581 1016 615 993 q 526 1072 547 1039 q 496 1140 506 1104 q 486 1204 486 1176 l 625 1204 q 628 1167 625 1189 q 641 1125 632 1144 q 665 1092 650 1106 q 703 1078 679 1078 l 722 1078 q 756 1092 743 1078 q 777 1125 769 1106 q 788 1167 785 1144 q 792 1204 792 1189 l 929 1204 z "},"Ġ":{"ha":1333,"x_min":58,"x_max":1283,"o":"m 661 581 l 1256 581 l 1256 0 l 618 0 q 394 36 497 0 q 217 135 292 72 q 101 285 143 199 q 58 474 58 372 q 101 659 58 575 q 217 803 143 743 q 394 897 292 864 q 618 929 497 929 l 1283 929 l 1097 688 l 618 688 q 510 671 560 688 q 423 624 460 654 q 365 552 386 593 q 344 461 344 511 q 365 370 344 411 q 422 300 385 329 q 508 255 458 271 q 618 239 558 239 l 969 239 l 969 374 l 489 374 l 661 581 m 601 1118 q 636 1195 601 1168 q 719 1222 671 1222 q 804 1195 769 1222 q 839 1118 839 1168 q 804 1043 839 1069 q 719 1017 769 1017 q 636 1043 671 1017 q 601 1118 601 1069 z "},"ġ":{"ha":1333,"x_min":58,"x_max":1283,"o":"m 661 581 l 1256 581 l 1256 0 l 618 0 q 394 36 497 0 q 217 135 292 72 q 101 285 143 199 q 58 474 58 372 q 101 659 58 575 q 217 803 143 743 q 394 897 292 864 q 618 929 497 929 l 1283 929 l 1097 688 l 618 688 q 510 671 560 688 q 423 624 460 654 q 365 552 386 593 q 344 461 344 511 q 365 370 344 411 q 422 300 385 329 q 508 255 458 271 q 618 239 558 239 l 969 239 l 969 374 l 489 374 l 661 581 m 601 1118 q 636 1195 601 1168 q 719 1222 671 1222 q 804 1195 769 1222 q 839 1118 839 1168 q 804 1043 839 1069 q 719 1017 769 1017 q 636 1043 671 1017 q 601 1118 601 1069 z "},"Ģ":{"ha":1333,"x_min":58,"x_max":1283,"o":"m 661 581 l 1256 581 l 1256 0 l 618 0 q 394 36 497 0 q 217 135 292 72 q 101 285 143 199 q 58 474 58 372 q 101 659 58 575 q 217 803 143 743 q 394 897 292 864 q 618 929 497 929 l 1283 929 l 1097 688 l 618 688 q 510 671 560 688 q 423 624 460 654 q 365 552 386 593 q 344 461 344 511 q 365 370 344 411 q 422 300 385 329 q 508 255 458 271 q 618 239 558 239 l 969 239 l 969 374 l 489 374 l 661 581 m 865 -43 l 750 -354 l 650 -354 l 650 -43 l 865 -43 z "},"ģ":{"ha":1333,"x_min":58,"x_max":1283,"o":"m 661 581 l 1256 581 l 1256 0 l 618 0 q 394 36 497 0 q 217 135 292 72 q 101 285 143 199 q 58 474 58 372 q 101 659 58 575 q 217 803 143 743 q 394 897 292 864 q 618 929 497 929 l 1283 929 l 1097 688 l 618 688 q 510 671 560 688 q 423 624 460 654 q 365 552 386 593 q 344 461 344 511 q 365 370 344 411 q 422 300 385 329 q 508 255 458 271 q 618 239 558 239 l 969 239 l 969 374 l 489 374 l 661 581 m 865 -43 l 750 -354 l 650 -354 l 650 -43 l 865 -43 z "},"Ĥ":{"ha":1304,"x_min":88,"x_max":1215,"o":"m 1215 0 l 929 0 l 929 358 l 376 358 l 376 0 l 88 0 l 88 929 l 376 929 l 376 600 l 929 600 l 929 929 l 1215 929 l 1215 0 m 872 993 l 735 993 l 657 1133 l 644 1133 l 568 993 l 429 993 l 561 1204 l 743 1204 l 872 993 z "},"ĥ":{"ha":1304,"x_min":88,"x_max":1215,"o":"m 1215 0 l 929 0 l 929 358 l 376 358 l 376 0 l 88 0 l 88 929 l 376 929 l 376 600 l 929 600 l 929 929 l 1215 929 l 1215 0 m 872 993 l 735 993 l 657 1133 l 644 1133 l 568 993 l 429 993 l 561 1204 l 743 1204 l 872 993 z "},"Ħ":{"ha":1304,"x_min":88,"x_max":1215,"o":"m 1215 0 l 929 0 l 929 358 l 376 358 l 376 0 l 88 0 l 88 929 l 376 929 l 376 828 l 929 828 l 929 929 l 1215 929 l 1215 0 m 929 600 l 929 728 l 376 728 l 376 600 l 929 600 z "},"ħ":{"ha":1304,"x_min":88,"x_max":1215,"o":"m 1215 0 l 929 0 l 929 358 l 376 358 l 376 0 l 88 0 l 88 929 l 376 929 l 376 828 l 929 828 l 929 929 l 1215 929 l 1215 0 m 929 600 l 929 728 l 376 728 l 376 600 l 929 600 z "},"Ĩ":{"ha":471,"x_min":31,"x_max":444,"o":"m 379 0 l 92 0 l 92 929 l 379 929 l 379 0 m 339 1017 q 288 1026 313 1017 q 238 1045 263 1035 q 189 1065 214 1056 q 138 1074 164 1074 q 77 1059 106 1074 q 31 1024 49 1044 l 31 1139 q 78 1171 50 1161 q 138 1181 106 1181 q 189 1172 164 1181 q 238 1151 214 1163 q 287 1131 263 1140 q 339 1122 311 1122 q 399 1137 371 1122 q 444 1172 426 1151 l 444 1058 q 398 1026 425 1035 q 339 1017 371 1017 z "},"ĩ":{"ha":471,"x_min":31,"x_max":444,"o":"m 379 0 l 92 0 l 92 929 l 379 929 l 379 0 m 339 1017 q 288 1026 313 1017 q 238 1045 263 1035 q 189 1065 214 1056 q 138 1074 164 1074 q 77 1059 106 1074 q 31 1024 49 1044 l 31 1139 q 78 1171 50 1161 q 138 1181 106 1181 q 189 1172 164 1181 q 238 1151 214 1163 q 287 1131 263 1140 q 339 1122 311 1122 q 399 1137 371 1122 q 444 1172 426 1151 l 444 1058 q 398 1026 425 1035 q 339 1017 371 1017 z "},"Ī":{"ha":471,"x_min":31,"x_max":444,"o":"m 379 0 l 92 0 l 92 929 l 379 929 l 379 0 m 444 1042 l 31 1042 l 31 1157 l 444 1157 l 444 1042 z "},"ī":{"ha":471,"x_min":31,"x_max":444,"o":"m 379 0 l 92 0 l 92 929 l 379 929 l 379 0 m 444 1042 l 31 1042 l 31 1157 l 444 1157 l 444 1042 z "},"Ĭ":{"ha":471,"x_min":15,"x_max":458,"o":"m 379 0 l 92 0 l 92 929 l 379 929 l 379 0 m 458 1204 q 449 1140 458 1176 q 419 1072 440 1104 q 365 1016 399 1039 q 281 993 331 993 l 194 993 q 110 1016 144 993 q 56 1072 76 1039 q 25 1140 35 1104 q 15 1204 15 1176 l 154 1204 q 158 1167 154 1189 q 170 1125 161 1144 q 194 1092 179 1106 q 232 1078 208 1078 l 251 1078 q 285 1092 272 1078 q 306 1125 299 1106 q 317 1167 314 1144 q 321 1204 321 1189 l 458 1204 z "},"ĭ":{"ha":471,"x_min":15,"x_max":458,"o":"m 379 0 l 92 0 l 92 929 l 379 929 l 379 0 m 458 1204 q 449 1140 458 1176 q 419 1072 440 1104 q 365 1016 399 1039 q 281 993 331 993 l 194 993 q 110 1016 144 993 q 56 1072 76 1039 q 25 1140 35 1104 q 15 1204 15 1176 l 154 1204 q 158 1167 154 1189 q 170 1125 161 1144 q 194 1092 179 1106 q 232 1078 208 1078 l 251 1078 q 285 1092 272 1078 q 306 1125 299 1106 q 317 1167 314 1144 q 321 1204 321 1189 l 458 1204 z "},"Į":{"ha":471,"x_min":68,"x_max":379,"o":"m 379 -347 l 233 -347 q 113 -311 157 -347 q 68 -226 68 -275 q 85 -165 68 -196 q 138 -104 101 -133 l 265 0 l 92 0 l 92 929 l 379 929 l 379 0 l 228 -122 q 213 -147 213 -133 q 243 -169 213 -169 l 379 -169 l 379 -347 z "},"į":{"ha":471,"x_min":68,"x_max":379,"o":"m 379 -347 l 233 -347 q 113 -311 157 -347 q 68 -226 68 -275 q 85 -165 68 -196 q 138 -104 101 -133 l 265 0 l 92 0 l 92 929 l 379 929 l 379 0 l 228 -122 q 213 -147 213 -133 q 243 -169 213 -169 l 379 -169 l 379 -347 z "},"İ":{"ha":471,"x_min":92,"x_max":379,"o":"m 379 0 l 92 0 l 92 929 l 379 929 l 379 0 m 118 1118 q 153 1195 118 1168 q 236 1222 188 1222 q 321 1195 286 1222 q 356 1118 356 1168 q 321 1043 356 1069 q 236 1017 286 1017 q 153 1043 188 1017 q 118 1118 118 1069 z "},"ı":{"ha":471,"x_min":92,"x_max":379,"o":"m 379 0 l 92 0 l 92 929 l 379 929 l 379 0 z "},"Ĳ":{"ha":1488,"x_min":92,"x_max":1414,"o":"m 379 0 l 92 0 l 92 929 l 379 929 l 379 0 m 833 239 q 972 249 915 239 q 1062 281 1028 258 q 1110 338 1096 303 q 1125 422 1125 372 l 1125 929 l 1414 929 l 1414 422 q 833 0 1414 0 l 486 0 l 674 239 l 833 239 z "},"ĳ":{"ha":1488,"x_min":92,"x_max":1414,"o":"m 379 0 l 92 0 l 92 929 l 379 929 l 379 0 m 833 239 q 972 249 915 239 q 1062 281 1028 258 q 1110 338 1096 303 q 1125 422 1125 372 l 1125 929 l 1414 929 l 1414 422 q 833 0 1414 0 l 486 0 l 674 239 l 833 239 z "},"Ĵ":{"ha":1017,"x_min":15,"x_max":943,"o":"m 363 239 q 501 249 444 239 q 591 281 557 258 q 640 338 625 303 q 654 422 654 372 l 654 929 l 943 929 l 943 422 q 363 0 943 0 l 15 0 l 203 239 l 363 239 m 939 993 l 801 993 l 724 1133 l 711 1133 l 635 993 l 496 993 l 628 1204 l 810 1204 l 939 993 z "},"ĵ":{"ha":1017,"x_min":15,"x_max":943,"o":"m 363 239 q 501 249 444 239 q 591 281 557 258 q 640 338 625 303 q 654 422 654 372 l 654 929 l 943 929 l 943 422 q 363 0 943 0 l 15 0 l 203 239 l 363 239 m 939 993 l 801 993 l 724 1133 l 711 1133 l 635 993 l 496 993 l 628 1204 l 810 1204 l 939 993 z "},"Ķ":{"ha":1267,"x_min":88,"x_max":1260,"o":"m 1260 0 l 825 0 l 544 244 q 434 342 472 307 q 372 400 396 376 q 375 334 374 368 q 376 267 376 300 l 376 0 l 88 0 l 88 929 l 376 929 l 376 714 q 375 629 376 671 q 371 551 374 588 q 438 613 399 576 q 542 703 478 650 l 810 929 l 1226 929 l 871 663 q 790 601 825 628 q 726 556 754 575 q 676 521 699 536 q 631 492 653 506 q 728 422 671 464 q 875 307 785 381 l 1260 0 m 700 -43 l 585 -354 l 485 -354 l 485 -43 l 700 -43 z "},"ķ":{"ha":1267,"x_min":88,"x_max":1260,"o":"m 1260 0 l 825 0 l 544 244 q 434 342 472 307 q 372 400 396 376 q 375 334 374 368 q 376 267 376 300 l 376 0 l 88 0 l 88 929 l 376 929 l 376 714 q 375 629 376 671 q 371 551 374 588 q 438 613 399 576 q 542 703 478 650 l 810 929 l 1226 929 l 871 663 q 790 601 825 628 q 726 556 754 575 q 676 521 699 536 q 631 492 653 506 q 728 422 671 464 q 875 307 785 381 l 1260 0 m 700 -43 l 585 -354 l 485 -354 l 485 -43 l 700 -43 z "},"Ĺ":{"ha":1103,"x_min":88,"x_max":1094,"o":"m 1094 239 l 908 0 l 88 0 l 88 929 l 375 929 l 375 239 l 1094 239 m 508 1047 l 94 993 l 94 1108 l 508 1204 l 508 1047 z "},"ĺ":{"ha":1103,"x_min":88,"x_max":1094,"o":"m 1094 239 l 908 0 l 88 0 l 88 929 l 375 929 l 375 239 l 1094 239 m 508 1047 l 94 993 l 94 1108 l 508 1204 l 508 1047 z "},"Ļ":{"ha":1103,"x_min":88,"x_max":1094,"o":"m 1094 239 l 908 0 l 88 0 l 88 929 l 375 929 l 375 239 l 1094 239 m 593 -43 l 478 -354 l 378 -354 l 378 -43 l 593 -43 z "},"ļ":{"ha":1103,"x_min":88,"x_max":1094,"o":"m 1094 239 l 908 0 l 88 0 l 88 929 l 375 929 l 375 239 l 1094 239 m 593 -43 l 478 -354 l 378 -354 l 378 -43 l 593 -43 z "},"Ľ":{"ha":1103,"x_min":88,"x_max":1094,"o":"m 1094 239 l 908 0 l 88 0 l 88 929 l 375 929 l 375 239 l 1094 239 m 832 929 l 694 557 l 575 557 l 575 929 l 832 929 z "},"ľ":{"ha":1103,"x_min":88,"x_max":1094,"o":"m 1094 239 l 908 0 l 88 0 l 88 929 l 375 929 l 375 239 l 1094 239 m 832 929 l 694 557 l 575 557 l 575 929 l 832 929 z "},"Ŀ":{"ha":1103,"x_min":88,"x_max":1094,"o":"m 1094 239 l 908 0 l 88 0 l 88 929 l 375 929 l 375 239 l 1094 239 m 467 524 q 501 601 467 574 q 585 628 536 628 q 669 601 635 628 q 704 524 704 574 q 669 449 704 475 q 585 422 635 422 q 501 449 536 422 q 467 524 467 475 z "},"ŀ":{"ha":1103,"x_min":88,"x_max":1094,"o":"m 1094 239 l 908 0 l 88 0 l 88 929 l 375 929 l 375 239 l 1094 239 m 467 524 q 501 601 467 574 q 585 628 536 628 q 669 601 635 628 q 704 524 704 574 q 669 449 704 475 q 585 422 635 422 q 501 449 536 422 q 467 524 467 475 z "},"Ł":{"ha":1103,"x_min":88,"x_max":1094,"o":"m 1094 239 l 908 0 l 88 0 l 88 929 l 375 929 l 375 606 l 829 606 l 665 396 l 375 396 l 375 239 l 1094 239 z "},"ł":{"ha":1103,"x_min":88,"x_max":1094,"o":"m 1094 239 l 908 0 l 88 0 l 88 929 l 375 929 l 375 606 l 829 606 l 665 396 l 375 396 l 375 239 l 1094 239 z "},"Ń":{"ha":1269,"x_min":83,"x_max":1188,"o":"m 1029 -15 q 974 -6 1001 -15 q 914 35 947 3 l 344 546 l 344 0 l 83 0 l 83 771 q 97 850 83 817 q 131 904 110 883 q 181 935 153 925 q 240 944 210 944 q 294 935 267 944 q 356 894 321 926 l 925 383 l 925 929 l 1188 929 l 1188 160 q 1174 81 1188 114 q 1140 26 1161 47 q 1089 -6 1118 4 q 1029 -15 1060 -15 m 854 1047 l 440 993 l 440 1108 l 854 1204 l 854 1047 z "},"ń":{"ha":1269,"x_min":83,"x_max":1188,"o":"m 1029 -15 q 974 -6 1001 -15 q 914 35 947 3 l 344 546 l 344 0 l 83 0 l 83 771 q 97 850 83 817 q 131 904 110 883 q 181 935 153 925 q 240 944 210 944 q 294 935 267 944 q 356 894 321 926 l 925 383 l 925 929 l 1188 929 l 1188 160 q 1174 81 1188 114 q 1140 26 1161 47 q 1089 -6 1118 4 q 1029 -15 1060 -15 m 854 1047 l 440 993 l 440 1108 l 854 1204 l 854 1047 z "},"Ņ":{"ha":1269,"x_min":83,"x_max":1188,"o":"m 1029 -15 q 974 -6 1001 -15 q 914 35 947 3 l 344 546 l 344 0 l 83 0 l 83 771 q 97 850 83 817 q 131 904 110 883 q 181 935 153 925 q 240 944 210 944 q 294 935 267 944 q 356 894 321 926 l 925 383 l 925 929 l 1188 929 l 1188 160 q 1174 81 1188 114 q 1140 26 1161 47 q 1089 -6 1118 4 q 1029 -15 1060 -15 m 703 -43 l 588 -354 l 488 -354 l 488 -43 l 703 -43 z "},"ņ":{"ha":1269,"x_min":83,"x_max":1188,"o":"m 1029 -15 q 974 -6 1001 -15 q 914 35 947 3 l 344 546 l 344 0 l 83 0 l 83 771 q 97 850 83 817 q 131 904 110 883 q 181 935 153 925 q 240 944 210 944 q 294 935 267 944 q 356 894 321 926 l 925 383 l 925 929 l 1188 929 l 1188 160 q 1174 81 1188 114 q 1140 26 1161 47 q 1089 -6 1118 4 q 1029 -15 1060 -15 m 703 -43 l 588 -354 l 488 -354 l 488 -43 l 703 -43 z "},"Ň":{"ha":1269,"x_min":83,"x_max":1188,"o":"m 1029 -15 q 974 -6 1001 -15 q 914 35 947 3 l 344 546 l 344 0 l 83 0 l 83 771 q 97 850 83 817 q 131 904 110 883 q 181 935 153 925 q 240 944 210 944 q 294 935 267 944 q 356 894 321 926 l 925 383 l 925 929 l 1188 929 l 1188 160 q 1174 81 1188 114 q 1140 26 1161 47 q 1089 -6 1118 4 q 1029 -15 1060 -15 m 413 1204 l 551 1204 l 629 1064 l 642 1064 l 718 1204 l 856 1204 l 725 993 l 543 993 l 413 1204 z "},"ň":{"ha":1269,"x_min":83,"x_max":1188,"o":"m 1029 -15 q 974 -6 1001 -15 q 914 35 947 3 l 344 546 l 344 0 l 83 0 l 83 771 q 97 850 83 817 q 131 904 110 883 q 181 935 153 925 q 240 944 210 944 q 294 935 267 944 q 356 894 321 926 l 925 383 l 925 929 l 1188 929 l 1188 160 q 1174 81 1188 114 q 1140 26 1161 47 q 1089 -6 1118 4 q 1029 -15 1060 -15 m 413 1204 l 551 1204 l 629 1064 l 642 1064 l 718 1204 l 856 1204 l 725 993 l 543 993 l 413 1204 z "},"Ŋ":{"ha":1269,"x_min":83,"x_max":1188,"o":"m 607 -114 q 830 -82 754 -114 q 921 26 906 -50 l 344 546 l 344 0 l 83 0 l 83 771 q 97 850 83 817 q 131 904 110 883 q 181 935 153 925 q 240 944 210 944 q 294 935 267 944 q 356 894 321 926 l 925 383 l 925 929 l 1188 929 l 1188 68 q 607 -354 1188 -354 l 396 -354 l 582 -114 l 607 -114 z "},"ŋ":{"ha":1269,"x_min":83,"x_max":1188,"o":"m 607 -114 q 830 -82 754 -114 q 921 26 906 -50 l 344 546 l 344 0 l 83 0 l 83 771 q 97 850 83 817 q 131 904 110 883 q 181 935 153 925 q 240 944 210 944 q 294 935 267 944 q 356 894 321 926 l 925 383 l 925 929 l 1188 929 l 1188 68 q 607 -354 1188 -354 l 396 -354 l 582 -114 l 607 -114 z "},"Ō":{"ha":1475,"x_min":58,"x_max":1417,"o":"m 738 944 q 1247 829 1076 944 q 1417 465 1417 714 q 1247 100 1417 215 q 738 -15 1078 -15 q 227 100 396 -15 q 58 465 58 215 q 228 829 58 714 q 738 944 397 944 m 738 226 q 921 235 846 226 q 1042 271 996 244 q 1110 344 1089 297 q 1131 465 1131 390 q 1110 587 1131 540 q 1042 659 1089 633 q 921 694 996 685 q 738 703 846 703 q 554 694 629 703 q 433 659 479 685 q 365 587 386 633 q 344 465 344 540 q 365 344 344 390 q 433 271 386 297 q 554 235 479 244 q 738 226 629 226 m 943 1042 l 529 1042 l 529 1157 l 943 1157 l 943 1042 z "},"ō":{"ha":1475,"x_min":58,"x_max":1417,"o":"m 738 944 q 1247 829 1076 944 q 1417 465 1417 714 q 1247 100 1417 215 q 738 -15 1078 -15 q 227 100 396 -15 q 58 465 58 215 q 228 829 58 714 q 738 944 397 944 m 738 226 q 921 235 846 226 q 1042 271 996 244 q 1110 344 1089 297 q 1131 465 1131 390 q 1110 587 1131 540 q 1042 659 1089 633 q 921 694 996 685 q 738 703 846 703 q 554 694 629 703 q 433 659 479 685 q 365 587 386 633 q 344 465 344 540 q 365 344 344 390 q 433 271 386 297 q 554 235 479 244 q 738 226 629 226 m 943 1042 l 529 1042 l 529 1157 l 943 1157 l 943 1042 z "},"Ŏ":{"ha":1475,"x_min":58,"x_max":1417,"o":"m 738 944 q 1247 829 1076 944 q 1417 465 1417 714 q 1247 100 1417 215 q 738 -15 1078 -15 q 227 100 396 -15 q 58 465 58 215 q 228 829 58 714 q 738 944 397 944 m 738 226 q 921 235 846 226 q 1042 271 996 244 q 1110 344 1089 297 q 1131 465 1131 390 q 1110 587 1131 540 q 1042 659 1089 633 q 921 694 996 685 q 738 703 846 703 q 554 694 629 703 q 433 659 479 685 q 365 587 386 633 q 344 465 344 540 q 365 344 344 390 q 433 271 386 297 q 554 235 479 244 q 738 226 629 226 m 958 1204 q 949 1140 958 1176 q 919 1072 940 1104 q 865 1016 899 1039 q 781 993 831 993 l 694 993 q 610 1016 644 993 q 556 1072 576 1039 q 525 1140 535 1104 q 515 1204 515 1176 l 654 1204 q 658 1167 654 1189 q 670 1125 661 1144 q 694 1092 679 1106 q 732 1078 708 1078 l 751 1078 q 785 1092 772 1078 q 806 1125 799 1106 q 817 1167 814 1144 q 821 1204 821 1189 l 958 1204 z "},"ŏ":{"ha":1475,"x_min":58,"x_max":1417,"o":"m 738 944 q 1247 829 1076 944 q 1417 465 1417 714 q 1247 100 1417 215 q 738 -15 1078 -15 q 227 100 396 -15 q 58 465 58 215 q 228 829 58 714 q 738 944 397 944 m 738 226 q 921 235 846 226 q 1042 271 996 244 q 1110 344 1089 297 q 1131 465 1131 390 q 1110 587 1131 540 q 1042 659 1089 633 q 921 694 996 685 q 738 703 846 703 q 554 694 629 703 q 433 659 479 685 q 365 587 386 633 q 344 465 344 540 q 365 344 344 390 q 433 271 386 297 q 554 235 479 244 q 738 226 629 226 m 958 1204 q 949 1140 958 1176 q 919 1072 940 1104 q 865 1016 899 1039 q 781 993 831 993 l 694 993 q 610 1016 644 993 q 556 1072 576 1039 q 525 1140 535 1104 q 515 1204 515 1176 l 654 1204 q 658 1167 654 1189 q 670 1125 661 1144 q 694 1092 679 1106 q 732 1078 708 1078 l 751 1078 q 785 1092 772 1078 q 806 1125 799 1106 q 817 1167 814 1144 q 821 1204 821 1189 l 958 1204 z "},"Ő":{"ha":1475,"x_min":58,"x_max":1417,"o":"m 738 944 q 1247 829 1076 944 q 1417 465 1417 714 q 1247 100 1417 215 q 738 -15 1078 -15 q 227 100 396 -15 q 58 465 58 215 q 228 829 58 714 q 738 944 397 944 m 738 226 q 921 235 846 226 q 1042 271 996 244 q 1110 344 1089 297 q 1131 465 1131 390 q 1110 587 1131 540 q 1042 659 1089 633 q 921 694 996 685 q 738 703 846 703 q 554 694 629 703 q 433 659 479 685 q 365 587 386 633 q 344 465 344 540 q 365 344 344 390 q 433 271 386 297 q 554 235 479 244 q 738 226 629 226 m 871 1007 l 765 1007 l 835 1204 l 1008 1204 l 871 1007 m 617 1007 l 513 1007 l 581 1204 l 756 1204 l 617 1007 z "},"ő":{"ha":1475,"x_min":58,"x_max":1417,"o":"m 738 944 q 1247 829 1076 944 q 1417 465 1417 714 q 1247 100 1417 215 q 738 -15 1078 -15 q 227 100 396 -15 q 58 465 58 215 q 228 829 58 714 q 738 944 397 944 m 738 226 q 921 235 846 226 q 1042 271 996 244 q 1110 344 1089 297 q 1131 465 1131 390 q 1110 587 1131 540 q 1042 659 1089 633 q 921 694 996 685 q 738 703 846 703 q 554 694 629 703 q 433 659 479 685 q 365 587 386 633 q 344 465 344 540 q 365 344 344 390 q 433 271 386 297 q 554 235 479 244 q 738 226 629 226 m 871 1007 l 765 1007 l 835 1204 l 1008 1204 l 871 1007 m 617 1007 l 513 1007 l 581 1204 l 756 1204 l 617 1007 z "},"Œ":{"ha":2092,"x_min":58,"x_max":2081,"o":"m 2081 239 l 1896 0 l 1001 0 q 886 -11 953 -7 q 738 -15 819 -15 q 227 100 396 -15 q 58 465 58 215 q 228 829 58 714 q 738 944 397 944 q 886 940 819 944 q 1001 929 953 936 l 2076 929 l 1892 688 l 1289 688 l 1289 576 l 2025 576 l 1861 365 l 1289 365 l 1289 239 l 2081 239 m 738 226 q 890 232 825 226 q 1001 253 956 238 l 1001 676 q 890 697 956 692 q 738 703 825 703 q 554 694 629 703 q 433 659 479 685 q 365 587 386 633 q 344 465 344 540 q 365 344 344 390 q 433 271 386 297 q 554 235 479 244 q 738 226 629 226 z "},"œ":{"ha":2092,"x_min":58,"x_max":2081,"o":"m 2081 239 l 1896 0 l 1001 0 q 886 -11 953 -7 q 738 -15 819 -15 q 227 100 396 -15 q 58 465 58 215 q 228 829 58 714 q 738 944 397 944 q 886 940 819 944 q 1001 929 953 936 l 2076 929 l 1892 688 l 1289 688 l 1289 576 l 2025 576 l 1861 365 l 1289 365 l 1289 239 l 2081 239 m 738 226 q 890 232 825 226 q 1001 253 956 238 l 1001 676 q 890 697 956 692 q 738 703 825 703 q 554 694 629 703 q 433 659 479 685 q 365 587 386 633 q 344 465 344 540 q 365 344 344 390 q 433 271 386 297 q 554 235 479 244 q 738 226 629 226 z "},"Ŕ":{"ha":1421,"x_min":85,"x_max":1406,"o":"m 1406 0 l 1021 0 l 814 246 l 372 246 l 372 0 l 85 0 l 85 475 l 893 475 q 1006 503 960 475 q 1051 579 1051 531 q 1010 660 1051 633 q 893 688 968 688 l 85 688 l 272 929 l 869 929 q 1033 915 949 929 q 1188 863 1118 900 q 1302 761 1257 825 q 1347 597 1347 697 q 1331 494 1347 543 q 1283 407 1314 446 q 1206 341 1251 368 q 1104 303 1161 314 q 1157 257 1128 285 q 1235 181 1186 229 l 1406 0 m 918 1047 l 504 993 l 504 1108 l 918 1204 l 918 1047 z "},"ŕ":{"ha":1421,"x_min":85,"x_max":1406,"o":"m 1406 0 l 1021 0 l 814 246 l 372 246 l 372 0 l 85 0 l 85 475 l 893 475 q 1006 503 960 475 q 1051 579 1051 531 q 1010 660 1051 633 q 893 688 968 688 l 85 688 l 272 929 l 869 929 q 1033 915 949 929 q 1188 863 1118 900 q 1302 761 1257 825 q 1347 597 1347 697 q 1331 494 1347 543 q 1283 407 1314 446 q 1206 341 1251 368 q 1104 303 1161 314 q 1157 257 1128 285 q 1235 181 1186 229 l 1406 0 m 918 1047 l 504 993 l 504 1108 l 918 1204 l 918 1047 z "},"Ŗ":{"ha":1421,"x_min":85,"x_max":1406,"o":"m 1406 0 l 1021 0 l 814 246 l 372 246 l 372 0 l 85 0 l 85 475 l 893 475 q 1006 503 960 475 q 1051 579 1051 531 q 1010 660 1051 633 q 893 688 968 688 l 85 688 l 272 929 l 869 929 q 1033 915 949 929 q 1188 863 1118 900 q 1302 761 1257 825 q 1347 597 1347 697 q 1331 494 1347 543 q 1283 407 1314 446 q 1206 341 1251 368 q 1104 303 1161 314 q 1157 257 1128 285 q 1235 181 1186 229 l 1406 0 m 792 -43 l 676 -354 l 576 -354 l 576 -43 l 792 -43 z "},"ŗ":{"ha":1421,"x_min":85,"x_max":1406,"o":"m 1406 0 l 1021 0 l 814 246 l 372 246 l 372 0 l 85 0 l 85 475 l 893 475 q 1006 503 960 475 q 1051 579 1051 531 q 1010 660 1051 633 q 893 688 968 688 l 85 688 l 272 929 l 869 929 q 1033 915 949 929 q 1188 863 1118 900 q 1302 761 1257 825 q 1347 597 1347 697 q 1331 494 1347 543 q 1283 407 1314 446 q 1206 341 1251 368 q 1104 303 1161 314 q 1157 257 1128 285 q 1235 181 1186 229 l 1406 0 m 792 -43 l 676 -354 l 576 -354 l 576 -43 l 792 -43 z "},"Ř":{"ha":1421,"x_min":85,"x_max":1406,"o":"m 1406 0 l 1021 0 l 814 246 l 372 246 l 372 0 l 85 0 l 85 475 l 893 475 q 1006 503 960 475 q 1051 579 1051 531 q 1010 660 1051 633 q 893 688 968 688 l 85 688 l 272 929 l 869 929 q 1033 915 949 929 q 1188 863 1118 900 q 1302 761 1257 825 q 1347 597 1347 697 q 1331 494 1347 543 q 1283 407 1314 446 q 1206 341 1251 368 q 1104 303 1161 314 q 1157 257 1128 285 q 1235 181 1186 229 l 1406 0 m 449 1204 l 588 1204 l 665 1064 l 678 1064 l 754 1204 l 892 1204 l 761 993 l 579 993 l 449 1204 z "},"ř":{"ha":1421,"x_min":85,"x_max":1406,"o":"m 1406 0 l 1021 0 l 814 246 l 372 246 l 372 0 l 85 0 l 85 475 l 893 475 q 1006 503 960 475 q 1051 579 1051 531 q 1010 660 1051 633 q 893 688 968 688 l 85 688 l 272 929 l 869 929 q 1033 915 949 929 q 1188 863 1118 900 q 1302 761 1257 825 q 1347 597 1347 697 q 1331 494 1347 543 q 1283 407 1314 446 q 1206 341 1251 368 q 1104 303 1161 314 q 1157 257 1128 285 q 1235 181 1186 229 l 1406 0 m 449 1204 l 588 1204 l 665 1064 l 678 1064 l 754 1204 l 892 1204 l 761 993 l 579 993 l 449 1204 z "},"Ś":{"ha":1338,"x_min":33,"x_max":1297,"o":"m 949 558 q 1208 495 1119 558 q 1297 304 1297 432 q 1275 176 1297 233 q 1204 81 1253 119 q 1080 21 1156 42 q 899 0 1004 0 l 33 0 l 218 239 l 921 239 q 996 255 972 239 q 1019 307 1019 271 q 996 358 1019 343 q 921 374 972 374 l 415 374 q 260 393 325 374 q 151 447 194 413 q 88 531 108 482 q 67 640 67 581 q 90 759 67 706 q 160 850 113 813 q 284 908 208 888 q 465 929 360 929 l 1272 929 l 1088 688 l 443 688 q 369 674 393 688 q 344 624 344 660 q 369 573 344 588 q 443 558 393 558 l 949 558 m 901 1047 l 488 993 l 488 1108 l 901 1204 l 901 1047 z "},"ś":{"ha":1338,"x_min":33,"x_max":1297,"o":"m 949 558 q 1208 495 1119 558 q 1297 304 1297 432 q 1275 176 1297 233 q 1204 81 1253 119 q 1080 21 1156 42 q 899 0 1004 0 l 33 0 l 218 239 l 921 239 q 996 255 972 239 q 1019 307 1019 271 q 996 358 1019 343 q 921 374 972 374 l 415 374 q 260 393 325 374 q 151 447 194 413 q 88 531 108 482 q 67 640 67 581 q 90 759 67 706 q 160 850 113 813 q 284 908 208 888 q 465 929 360 929 l 1272 929 l 1088 688 l 443 688 q 369 674 393 688 q 344 624 344 660 q 369 573 344 588 q 443 558 393 558 l 949 558 m 901 1047 l 488 993 l 488 1108 l 901 1204 l 901 1047 z "},"Ŝ":{"ha":1338,"x_min":33,"x_max":1297,"o":"m 949 558 q 1208 495 1119 558 q 1297 304 1297 432 q 1275 176 1297 233 q 1204 81 1253 119 q 1080 21 1156 42 q 899 0 1004 0 l 33 0 l 218 239 l 921 239 q 996 255 972 239 q 1019 307 1019 271 q 996 358 1019 343 q 921 374 972 374 l 415 374 q 260 393 325 374 q 151 447 194 413 q 88 531 108 482 q 67 640 67 581 q 90 759 67 706 q 160 850 113 813 q 284 908 208 888 q 465 929 360 929 l 1272 929 l 1088 688 l 443 688 q 369 674 393 688 q 344 624 344 660 q 369 573 344 588 q 443 558 393 558 l 949 558 m 915 993 l 778 993 l 700 1133 l 688 1133 l 611 993 l 472 993 l 604 1204 l 786 1204 l 915 993 z "},"ŝ":{"ha":1338,"x_min":33,"x_max":1297,"o":"m 949 558 q 1208 495 1119 558 q 1297 304 1297 432 q 1275 176 1297 233 q 1204 81 1253 119 q 1080 21 1156 42 q 899 0 1004 0 l 33 0 l 218 239 l 921 239 q 996 255 972 239 q 1019 307 1019 271 q 996 358 1019 343 q 921 374 972 374 l 415 374 q 260 393 325 374 q 151 447 194 413 q 88 531 108 482 q 67 640 67 581 q 90 759 67 706 q 160 850 113 813 q 284 908 208 888 q 465 929 360 929 l 1272 929 l 1088 688 l 443 688 q 369 674 393 688 q 344 624 344 660 q 369 573 344 588 q 443 558 393 558 l 949 558 m 915 993 l 778 993 l 700 1133 l 688 1133 l 611 993 l 472 993 l 604 1204 l 786 1204 l 915 993 z "},"Ş":{"ha":1338,"x_min":33,"x_max":1297,"o":"m 949 558 q 1208 495 1119 558 q 1297 304 1297 432 q 1275 176 1297 233 q 1204 81 1253 119 q 1080 21 1156 42 q 899 0 1004 0 l 33 0 l 218 239 l 921 239 q 996 255 972 239 q 1019 307 1019 271 q 996 358 1019 343 q 921 374 972 374 l 415 374 q 260 393 325 374 q 151 447 194 413 q 88 531 108 482 q 67 640 67 581 q 90 759 67 706 q 160 850 113 813 q 284 908 208 888 q 465 929 360 929 l 1272 929 l 1088 688 l 443 688 q 369 674 393 688 q 344 624 344 660 q 369 573 344 588 q 443 558 393 558 l 949 558 m 775 -43 l 661 -354 l 561 -354 l 561 -43 l 775 -43 z "},"ş":{"ha":1338,"x_min":33,"x_max":1297,"o":"m 949 558 q 1208 495 1119 558 q 1297 304 1297 432 q 1275 176 1297 233 q 1204 81 1253 119 q 1080 21 1156 42 q 899 0 1004 0 l 33 0 l 218 239 l 921 239 q 996 255 972 239 q 1019 307 1019 271 q 996 358 1019 343 q 921 374 972 374 l 415 374 q 260 393 325 374 q 151 447 194 413 q 88 531 108 482 q 67 640 67 581 q 90 759 67 706 q 160 850 113 813 q 284 908 208 888 q 465 929 360 929 l 1272 929 l 1088 688 l 443 688 q 369 674 393 688 q 344 624 344 660 q 369 573 344 588 q 443 558 393 558 l 949 558 m 775 -43 l 661 -354 l 561 -354 l 561 -43 l 775 -43 z "},"Š":{"ha":1338,"x_min":33,"x_max":1297,"o":"m 949 558 q 1208 495 1119 558 q 1297 304 1297 432 q 1275 176 1297 233 q 1204 81 1253 119 q 1080 21 1156 42 q 899 0 1004 0 l 33 0 l 218 239 l 921 239 q 996 255 972 239 q 1019 307 1019 271 q 996 358 1019 343 q 921 374 972 374 l 415 374 q 260 393 325 374 q 151 447 194 413 q 88 531 108 482 q 67 640 67 581 q 90 759 67 706 q 160 850 113 813 q 284 908 208 888 q 465 929 360 929 l 1272 929 l 1088 688 l 443 688 q 369 674 393 688 q 344 624 344 660 q 369 573 344 588 q 443 558 393 558 l 949 558 m 453 1204 l 592 1204 l 669 1064 l 682 1064 l 758 1204 l 896 1204 l 765 993 l 583 993 l 453 1204 z "},"š":{"ha":1338,"x_min":33,"x_max":1297,"o":"m 949 558 q 1208 495 1119 558 q 1297 304 1297 432 q 1275 176 1297 233 q 1204 81 1253 119 q 1080 21 1156 42 q 899 0 1004 0 l 33 0 l 218 239 l 921 239 q 996 255 972 239 q 1019 307 1019 271 q 996 358 1019 343 q 921 374 972 374 l 415 374 q 260 393 325 374 q 151 447 194 413 q 88 531 108 482 q 67 640 67 581 q 90 759 67 706 q 160 850 113 813 q 284 908 208 888 q 465 929 360 929 l 1272 929 l 1088 688 l 443 688 q 369 674 393 688 q 344 624 344 660 q 369 573 344 588 q 443 558 393 558 l 949 558 m 453 1204 l 592 1204 l 669 1064 l 682 1064 l 758 1204 l 896 1204 l 765 993 l 583 993 l 453 1204 z "},"Ţ":{"ha":1242,"x_min":0,"x_max":1242,"o":"m 1242 929 l 1056 688 l 724 688 l 724 0 l 436 0 l 436 688 l 0 688 l 186 929 l 1242 929 m 689 -43 l 574 -354 l 474 -354 l 474 -43 l 689 -43 z "},"ţ":{"ha":1242,"x_min":0,"x_max":1242,"o":"m 1242 929 l 1056 688 l 724 688 l 724 0 l 436 0 l 436 688 l 0 688 l 186 929 l 1242 929 m 689 -43 l 574 -354 l 474 -354 l 474 -43 l 689 -43 z "},"Ť":{"ha":1242,"x_min":0,"x_max":1242,"o":"m 1242 929 l 1056 688 l 724 688 l 724 0 l 436 0 l 436 688 l 0 688 l 186 929 l 1242 929 m 360 1204 l 499 1204 l 576 1064 l 589 1064 l 665 1204 l 803 1204 l 672 993 l 490 993 l 360 1204 z "},"ť":{"ha":1242,"x_min":0,"x_max":1242,"o":"m 1242 929 l 1056 688 l 724 688 l 724 0 l 436 0 l 436 688 l 0 688 l 186 929 l 1242 929 m 360 1204 l 499 1204 l 576 1064 l 589 1064 l 665 1204 l 803 1204 l 672 993 l 490 993 l 360 1204 z "},"Ŧ":{"ha":1242,"x_min":0,"x_max":1242,"o":"m 436 560 l 436 688 l 0 688 l 186 929 l 1242 929 l 1056 688 l 724 688 l 724 560 l 956 560 l 815 381 l 724 381 l 724 0 l 436 0 l 436 381 l 214 381 l 356 560 l 436 560 z "},"ŧ":{"ha":1242,"x_min":0,"x_max":1242,"o":"m 436 560 l 436 688 l 0 688 l 186 929 l 1242 929 l 1056 688 l 724 688 l 724 560 l 956 560 l 815 381 l 724 381 l 724 0 l 436 0 l 436 381 l 214 381 l 356 560 l 436 560 z "},"Ũ":{"ha":1369,"x_min":75,"x_max":1294,"o":"m 1294 406 q 715 -15 1294 -15 q 426 11 547 -15 q 227 90 306 38 q 112 222 149 143 q 75 406 75 300 l 75 929 l 361 929 l 361 406 q 375 319 361 354 q 427 263 389 285 q 535 233 465 242 q 715 224 604 224 q 854 233 799 224 q 943 265 910 243 q 991 322 976 288 q 1006 406 1006 357 l 1006 929 l 1294 929 l 1294 406 m 785 1017 q 733 1026 758 1017 q 684 1045 708 1035 q 635 1065 660 1056 q 583 1074 610 1074 q 523 1059 551 1074 q 476 1024 494 1044 l 476 1139 q 524 1171 496 1161 q 583 1181 551 1181 q 635 1172 610 1181 q 684 1151 660 1163 q 733 1131 708 1140 q 785 1122 757 1122 q 844 1137 817 1122 q 890 1172 872 1151 l 890 1058 q 844 1026 871 1035 q 785 1017 817 1017 z "},"ũ":{"ha":1369,"x_min":75,"x_max":1294,"o":"m 1294 406 q 715 -15 1294 -15 q 426 11 547 -15 q 227 90 306 38 q 112 222 149 143 q 75 406 75 300 l 75 929 l 361 929 l 361 406 q 375 319 361 354 q 427 263 389 285 q 535 233 465 242 q 715 224 604 224 q 854 233 799 224 q 943 265 910 243 q 991 322 976 288 q 1006 406 1006 357 l 1006 929 l 1294 929 l 1294 406 m 785 1017 q 733 1026 758 1017 q 684 1045 708 1035 q 635 1065 660 1056 q 583 1074 610 1074 q 523 1059 551 1074 q 476 1024 494 1044 l 476 1139 q 524 1171 496 1161 q 583 1181 551 1181 q 635 1172 610 1181 q 684 1151 660 1163 q 733 1131 708 1140 q 785 1122 757 1122 q 844 1137 817 1122 q 890 1172 872 1151 l 890 1058 q 844 1026 871 1035 q 785 1017 817 1017 z "},"Ū":{"ha":1369,"x_min":75,"x_max":1294,"o":"m 1294 406 q 715 -15 1294 -15 q 426 11 547 -15 q 227 90 306 38 q 112 222 149 143 q 75 406 75 300 l 75 929 l 361 929 l 361 406 q 375 319 361 354 q 427 263 389 285 q 535 233 465 242 q 715 224 604 224 q 854 233 799 224 q 943 265 910 243 q 991 322 976 288 q 1006 406 1006 357 l 1006 929 l 1294 929 l 1294 406 m 890 1042 l 476 1042 l 476 1157 l 890 1157 l 890 1042 z "},"ū":{"ha":1369,"x_min":75,"x_max":1294,"o":"m 1294 406 q 715 -15 1294 -15 q 426 11 547 -15 q 227 90 306 38 q 112 222 149 143 q 75 406 75 300 l 75 929 l 361 929 l 361 406 q 375 319 361 354 q 427 263 389 285 q 535 233 465 242 q 715 224 604 224 q 854 233 799 224 q 943 265 910 243 q 991 322 976 288 q 1006 406 1006 357 l 1006 929 l 1294 929 l 1294 406 m 890 1042 l 476 1042 l 476 1157 l 890 1157 l 890 1042 z "},"Ŭ":{"ha":1369,"x_min":75,"x_max":1294,"o":"m 1294 406 q 715 -15 1294 -15 q 426 11 547 -15 q 227 90 306 38 q 112 222 149 143 q 75 406 75 300 l 75 929 l 361 929 l 361 406 q 375 319 361 354 q 427 263 389 285 q 535 233 465 242 q 715 224 604 224 q 854 233 799 224 q 943 265 910 243 q 991 322 976 288 q 1006 406 1006 357 l 1006 929 l 1294 929 l 1294 406 m 906 1204 q 897 1140 906 1176 q 867 1072 888 1104 q 812 1016 846 1039 q 728 993 778 993 l 642 993 q 558 1016 592 993 q 503 1072 524 1039 q 472 1140 482 1104 q 463 1204 463 1176 l 601 1204 q 605 1167 601 1189 q 617 1125 608 1144 q 641 1092 626 1106 q 679 1078 656 1078 l 699 1078 q 733 1092 719 1078 q 753 1125 746 1106 q 765 1167 761 1144 q 768 1204 768 1189 l 906 1204 z "},"ŭ":{"ha":1369,"x_min":75,"x_max":1294,"o":"m 1294 406 q 715 -15 1294 -15 q 426 11 547 -15 q 227 90 306 38 q 112 222 149 143 q 75 406 75 300 l 75 929 l 361 929 l 361 406 q 375 319 361 354 q 427 263 389 285 q 535 233 465 242 q 715 224 604 224 q 854 233 799 224 q 943 265 910 243 q 991 322 976 288 q 1006 406 1006 357 l 1006 929 l 1294 929 l 1294 406 m 906 1204 q 897 1140 906 1176 q 867 1072 888 1104 q 812 1016 846 1039 q 728 993 778 993 l 642 993 q 558 1016 592 993 q 503 1072 524 1039 q 472 1140 482 1104 q 463 1204 463 1176 l 601 1204 q 605 1167 601 1189 q 617 1125 608 1144 q 641 1092 626 1106 q 679 1078 656 1078 l 699 1078 q 733 1092 719 1078 q 753 1125 746 1106 q 765 1167 761 1144 q 768 1204 768 1189 l 906 1204 z "},"Ů":{"ha":1369,"x_min":75,"x_max":1294,"o":"m 1294 406 q 715 -15 1294 -15 q 426 11 547 -15 q 227 90 306 38 q 112 222 149 143 q 75 406 75 300 l 75 929 l 361 929 l 361 406 q 375 319 361 354 q 427 263 389 285 q 535 233 465 242 q 715 224 604 224 q 854 233 799 224 q 943 265 910 243 q 991 322 976 288 q 1006 406 1006 357 l 1006 929 l 1294 929 l 1294 406 m 618 1213 q 592 1188 592 1213 l 592 1117 q 618 1092 592 1092 l 749 1092 q 776 1117 776 1092 l 776 1188 q 749 1213 776 1213 l 618 1213 m 885 1108 q 740 993 885 993 l 626 993 q 483 1108 483 993 l 483 1196 q 626 1313 483 1313 l 740 1313 q 885 1196 885 1313 l 885 1108 z "},"ů":{"ha":1369,"x_min":75,"x_max":1294,"o":"m 1294 406 q 715 -15 1294 -15 q 426 11 547 -15 q 227 90 306 38 q 112 222 149 143 q 75 406 75 300 l 75 929 l 361 929 l 361 406 q 375 319 361 354 q 427 263 389 285 q 535 233 465 242 q 715 224 604 224 q 854 233 799 224 q 943 265 910 243 q 991 322 976 288 q 1006 406 1006 357 l 1006 929 l 1294 929 l 1294 406 m 618 1213 q 592 1188 592 1213 l 592 1117 q 618 1092 592 1092 l 749 1092 q 776 1117 776 1092 l 776 1188 q 749 1213 776 1213 l 618 1213 m 885 1108 q 740 993 885 993 l 626 993 q 483 1108 483 993 l 483 1196 q 626 1313 483 1313 l 740 1313 q 885 1196 885 1313 l 885 1108 z "},"Ű":{"ha":1369,"x_min":75,"x_max":1294,"o":"m 1294 406 q 715 -15 1294 -15 q 426 11 547 -15 q 227 90 306 38 q 112 222 149 143 q 75 406 75 300 l 75 929 l 361 929 l 361 406 q 375 319 361 354 q 427 263 389 285 q 535 233 465 242 q 715 224 604 224 q 854 233 799 224 q 943 265 910 243 q 991 322 976 288 q 1006 406 1006 357 l 1006 929 l 1294 929 l 1294 406 m 844 1007 l 739 1007 l 808 1204 l 982 1204 l 844 1007 m 590 1007 l 486 1007 l 554 1204 l 729 1204 l 590 1007 z "},"ű":{"ha":1369,"x_min":75,"x_max":1294,"o":"m 1294 406 q 715 -15 1294 -15 q 426 11 547 -15 q 227 90 306 38 q 112 222 149 143 q 75 406 75 300 l 75 929 l 361 929 l 361 406 q 375 319 361 354 q 427 263 389 285 q 535 233 465 242 q 715 224 604 224 q 854 233 799 224 q 943 265 910 243 q 991 322 976 288 q 1006 406 1006 357 l 1006 929 l 1294 929 l 1294 406 m 844 1007 l 739 1007 l 808 1204 l 982 1204 l 844 1007 m 590 1007 l 486 1007 l 554 1204 l 729 1204 l 590 1007 z "},"Ų":{"ha":1369,"x_min":75,"x_max":1294,"o":"m 913 -347 l 768 -347 q 646 -311 690 -347 q 601 -226 601 -275 q 619 -165 601 -196 q 672 -104 636 -133 l 782 -12 q 749 -15 765 -14 q 715 -15 732 -15 q 426 11 547 -15 q 227 90 306 38 q 112 222 149 143 q 75 406 75 300 l 75 929 l 361 929 l 361 406 q 375 319 361 354 q 427 263 389 285 q 535 233 465 242 q 715 224 604 224 q 854 233 799 224 q 943 265 910 243 q 991 322 976 288 q 1006 406 1006 357 l 1006 929 l 1294 929 l 1294 406 q 911 0 1294 63 l 761 -122 q 747 -147 747 -133 q 776 -169 747 -169 l 913 -169 l 913 -347 z "},"ų":{"ha":1369,"x_min":75,"x_max":1294,"o":"m 913 -347 l 768 -347 q 646 -311 690 -347 q 601 -226 601 -275 q 619 -165 601 -196 q 672 -104 636 -133 l 782 -12 q 749 -15 765 -14 q 715 -15 732 -15 q 426 11 547 -15 q 227 90 306 38 q 112 222 149 143 q 75 406 75 300 l 75 929 l 361 929 l 361 406 q 375 319 361 354 q 427 263 389 285 q 535 233 465 242 q 715 224 604 224 q 854 233 799 224 q 943 265 910 243 q 991 322 976 288 q 1006 406 1006 357 l 1006 929 l 1294 929 l 1294 406 q 911 0 1294 63 l 761 -122 q 747 -147 747 -133 q 776 -169 747 -169 l 913 -169 l 913 -347 z "},"Ŵ":{"ha":1750,"x_min":18,"x_max":1728,"o":"m 1019 346 q 967 441 989 400 q 926 515 944 482 q 895 574 908 547 q 869 625 882 600 q 845 574 858 600 q 815 515 832 547 q 775 442 797 482 q 722 347 753 401 l 574 83 q 510 12 549 39 q 415 -15 472 -15 q 317 16 361 -15 q 254 113 274 47 l 18 929 l 306 929 l 393 606 q 430 467 415 526 q 456 350 444 407 q 508 458 478 399 q 586 607 538 517 l 711 840 q 747 895 729 875 q 785 926 765 915 q 828 941 806 938 q 875 944 850 944 q 924 941 901 944 q 966 926 946 938 q 1005 895 986 915 q 1042 840 1024 875 l 1165 606 q 1211 520 1192 557 q 1246 453 1231 483 q 1273 399 1261 424 q 1296 350 1285 374 q 1323 467 1307 406 q 1360 606 1339 528 l 1447 929 l 1728 929 l 1488 113 q 1424 16 1468 47 q 1326 -15 1381 -15 q 1233 11 1271 -15 q 1168 83 1194 38 l 1019 346 m 1096 993 l 958 993 l 881 1133 l 868 1133 l 792 993 l 653 993 l 785 1204 l 967 1204 l 1096 993 z "},"ŵ":{"ha":1750,"x_min":18,"x_max":1728,"o":"m 1019 346 q 967 441 989 400 q 926 515 944 482 q 895 574 908 547 q 869 625 882 600 q 845 574 858 600 q 815 515 832 547 q 775 442 797 482 q 722 347 753 401 l 574 83 q 510 12 549 39 q 415 -15 472 -15 q 317 16 361 -15 q 254 113 274 47 l 18 929 l 306 929 l 393 606 q 430 467 415 526 q 456 350 444 407 q 508 458 478 399 q 586 607 538 517 l 711 840 q 747 895 729 875 q 785 926 765 915 q 828 941 806 938 q 875 944 850 944 q 924 941 901 944 q 966 926 946 938 q 1005 895 986 915 q 1042 840 1024 875 l 1165 606 q 1211 520 1192 557 q 1246 453 1231 483 q 1273 399 1261 424 q 1296 350 1285 374 q 1323 467 1307 406 q 1360 606 1339 528 l 1447 929 l 1728 929 l 1488 113 q 1424 16 1468 47 q 1326 -15 1381 -15 q 1233 11 1271 -15 q 1168 83 1194 38 l 1019 346 m 1096 993 l 958 993 l 881 1133 l 868 1133 l 792 993 l 653 993 l 785 1204 l 967 1204 l 1096 993 z "},"Ŷ":{"ha":1428,"x_min":11,"x_max":1418,"o":"m 1418 929 l 867 307 l 867 0 l 578 0 l 578 308 l 11 929 l 381 929 l 603 671 q 632 638 614 658 q 669 596 650 618 q 706 554 689 574 q 729 525 722 535 q 769 578 743 544 q 846 672 796 611 l 1057 929 l 1418 929 m 956 993 l 818 993 l 740 1133 l 728 1133 l 651 993 l 513 993 l 644 1204 l 826 1204 l 956 993 z "},"ŷ":{"ha":1428,"x_min":11,"x_max":1418,"o":"m 1418 929 l 867 307 l 867 0 l 578 0 l 578 308 l 11 929 l 381 929 l 603 671 q 632 638 614 658 q 669 596 650 618 q 706 554 689 574 q 729 525 722 535 q 769 578 743 544 q 846 672 796 611 l 1057 929 l 1418 929 m 956 993 l 818 993 l 740 1133 l 728 1133 l 651 993 l 513 993 l 644 1204 l 826 1204 l 956 993 z "},"Ÿ":{"ha":1428,"x_min":11,"x_max":1418,"o":"m 1418 929 l 867 307 l 867 0 l 578 0 l 578 308 l 11 929 l 381 929 l 603 671 q 632 638 614 658 q 669 596 650 618 q 706 554 689 574 q 729 525 722 535 q 769 578 743 544 q 846 672 796 611 l 1057 929 l 1418 929 m 465 1118 q 500 1195 465 1168 q 583 1222 535 1222 q 668 1195 633 1222 q 703 1118 703 1168 q 668 1043 703 1069 q 583 1017 633 1017 q 500 1043 535 1017 q 465 1118 465 1069 m 754 1118 q 789 1195 754 1168 q 872 1222 824 1222 q 957 1195 922 1222 q 992 1118 992 1168 q 957 1043 992 1069 q 872 1017 922 1017 q 789 1043 824 1017 q 754 1118 754 1069 z "},"Ź":{"ha":1249,"x_min":15,"x_max":1238,"o":"m 1064 0 l 183 0 q 90 30 129 0 q 50 117 50 60 q 67 178 50 149 q 113 232 83 208 l 451 499 q 551 577 510 544 q 624 633 593 610 q 674 669 654 656 q 707 693 694 683 q 662 690 688 692 q 598 688 636 689 q 508 688 560 688 q 388 688 457 688 l 15 688 l 199 929 l 1056 929 q 1149 899 1110 929 q 1189 813 1189 869 q 1172 751 1189 781 q 1126 699 1156 721 l 783 426 q 685 349 726 381 q 613 294 643 317 q 564 257 583 271 q 531 233 544 243 q 587 235 547 235 q 678 237 626 236 q 788 238 729 238 q 900 239 846 239 l 1238 239 l 1064 0 m 831 1047 l 417 993 l 417 1108 l 831 1204 l 831 1047 z "},"ź":{"ha":1249,"x_min":15,"x_max":1238,"o":"m 1064 0 l 183 0 q 90 30 129 0 q 50 117 50 60 q 67 178 50 149 q 113 232 83 208 l 451 499 q 551 577 510 544 q 624 633 593 610 q 674 669 654 656 q 707 693 694 683 q 662 690 688 692 q 598 688 636 689 q 508 688 560 688 q 388 688 457 688 l 15 688 l 199 929 l 1056 929 q 1149 899 1110 929 q 1189 813 1189 869 q 1172 751 1189 781 q 1126 699 1156 721 l 783 426 q 685 349 726 381 q 613 294 643 317 q 564 257 583 271 q 531 233 544 243 q 587 235 547 235 q 678 237 626 236 q 788 238 729 238 q 900 239 846 239 l 1238 239 l 1064 0 m 831 1047 l 417 993 l 417 1108 l 831 1204 l 831 1047 z "},"Ż":{"ha":1249,"x_min":15,"x_max":1238,"o":"m 1064 0 l 183 0 q 90 30 129 0 q 50 117 50 60 q 67 178 50 149 q 113 232 83 208 l 451 499 q 551 577 510 544 q 624 633 593 610 q 674 669 654 656 q 707 693 694 683 q 662 690 688 692 q 598 688 636 689 q 508 688 560 688 q 388 688 457 688 l 15 688 l 199 929 l 1056 929 q 1149 899 1110 929 q 1189 813 1189 869 q 1172 751 1189 781 q 1126 699 1156 721 l 783 426 q 685 349 726 381 q 613 294 643 317 q 564 257 583 271 q 531 233 544 243 q 587 235 547 235 q 678 237 626 236 q 788 238 729 238 q 900 239 846 239 l 1238 239 l 1064 0 m 535 1118 q 569 1195 535 1168 q 653 1222 604 1222 q 738 1195 703 1222 q 772 1118 772 1168 q 738 1043 772 1069 q 653 1017 703 1017 q 569 1043 604 1017 q 535 1118 535 1069 z "},"ż":{"ha":1249,"x_min":15,"x_max":1238,"o":"m 1064 0 l 183 0 q 90 30 129 0 q 50 117 50 60 q 67 178 50 149 q 113 232 83 208 l 451 499 q 551 577 510 544 q 624 633 593 610 q 674 669 654 656 q 707 693 694 683 q 662 690 688 692 q 598 688 636 689 q 508 688 560 688 q 388 688 457 688 l 15 688 l 199 929 l 1056 929 q 1149 899 1110 929 q 1189 813 1189 869 q 1172 751 1189 781 q 1126 699 1156 721 l 783 426 q 685 349 726 381 q 613 294 643 317 q 564 257 583 271 q 531 233 544 243 q 587 235 547 235 q 678 237 626 236 q 788 238 729 238 q 900 239 846 239 l 1238 239 l 1064 0 m 535 1118 q 569 1195 535 1168 q 653 1222 604 1222 q 738 1195 703 1222 q 772 1118 772 1168 q 738 1043 772 1069 q 653 1017 703 1017 q 569 1043 604 1017 q 535 1118 535 1069 z "},"Ž":{"ha":1249,"x_min":15,"x_max":1238,"o":"m 1064 0 l 183 0 q 90 30 129 0 q 50 117 50 60 q 67 178 50 149 q 113 232 83 208 l 451 499 q 551 577 510 544 q 624 633 593 610 q 674 669 654 656 q 707 693 694 683 q 662 690 688 692 q 598 688 636 689 q 508 688 560 688 q 388 688 457 688 l 15 688 l 199 929 l 1056 929 q 1149 899 1110 929 q 1189 813 1189 869 q 1172 751 1189 781 q 1126 699 1156 721 l 783 426 q 685 349 726 381 q 613 294 643 317 q 564 257 583 271 q 531 233 544 243 q 587 235 547 235 q 678 237 626 236 q 788 238 729 238 q 900 239 846 239 l 1238 239 l 1064 0 m 415 1204 l 554 1204 l 632 1064 l 644 1064 l 721 1204 l 858 1204 l 728 993 l 546 993 l 415 1204 z "},"ž":{"ha":1249,"x_min":15,"x_max":1238,"o":"m 1064 0 l 183 0 q 90 30 129 0 q 50 117 50 60 q 67 178 50 149 q 113 232 83 208 l 451 499 q 551 577 510 544 q 624 633 593 610 q 674 669 654 656 q 707 693 694 683 q 662 690 688 692 q 598 688 636 689 q 508 688 560 688 q 388 688 457 688 l 15 688 l 199 929 l 1056 929 q 1149 899 1110 929 q 1189 813 1189 869 q 1172 751 1189 781 q 1126 699 1156 721 l 783 426 q 685 349 726 381 q 613 294 643 317 q 564 257 583 271 q 531 233 544 243 q 587 235 547 235 q 678 237 626 236 q 788 238 729 238 q 900 239 846 239 l 1238 239 l 1064 0 m 415 1204 l 554 1204 l 632 1064 l 644 1064 l 721 1204 l 858 1204 l 728 993 l 546 993 l 415 1204 z "},"Ș":{"ha":1338,"x_min":33,"x_max":1297,"o":"m 949 558 q 1208 495 1119 558 q 1297 304 1297 432 q 1275 176 1297 233 q 1204 81 1253 119 q 1080 21 1156 42 q 899 0 1004 0 l 33 0 l 218 239 l 921 239 q 996 255 972 239 q 1019 307 1019 271 q 996 358 1019 343 q 921 374 972 374 l 415 374 q 260 393 325 374 q 151 447 194 413 q 88 531 108 482 q 67 640 67 581 q 90 759 67 706 q 160 850 113 813 q 284 908 208 888 q 465 929 360 929 l 1272 929 l 1088 688 l 443 688 q 369 674 393 688 q 344 624 344 660 q 369 573 344 588 q 443 558 393 558 l 949 558 m 776 -43 l 661 -354 l 561 -354 l 561 -43 l 776 -43 z "},"ș":{"ha":1338,"x_min":33,"x_max":1297,"o":"m 949 558 q 1208 495 1119 558 q 1297 304 1297 432 q 1275 176 1297 233 q 1204 81 1253 119 q 1080 21 1156 42 q 899 0 1004 0 l 33 0 l 218 239 l 921 239 q 996 255 972 239 q 1019 307 1019 271 q 996 358 1019 343 q 921 374 972 374 l 415 374 q 260 393 325 374 q 151 447 194 413 q 88 531 108 482 q 67 640 67 581 q 90 759 67 706 q 160 850 113 813 q 284 908 208 888 q 465 929 360 929 l 1272 929 l 1088 688 l 443 688 q 369 674 393 688 q 344 624 344 660 q 369 573 344 588 q 443 558 393 558 l 949 558 m 776 -43 l 661 -354 l 561 -354 l 561 -43 l 776 -43 z "},"Ț":{"ha":1242,"x_min":0,"x_max":1242,"o":"m 1242 929 l 1056 688 l 724 688 l 724 0 l 436 0 l 436 688 l 0 688 l 186 929 l 1242 929 m 689 -43 l 574 -354 l 474 -354 l 474 -43 l 689 -43 z "},"ț":{"ha":1242,"x_min":0,"x_max":1242,"o":"m 1242 929 l 1056 688 l 724 688 l 724 0 l 436 0 l 436 688 l 0 688 l 186 929 l 1242 929 m 689 -43 l 574 -354 l 474 -354 l 474 -43 l 689 -43 z "},"ˆ":{"ha":575,"x_min":65,"x_max":508,"o":"m 508 993 l 371 993 l 293 1133 l 281 1133 l 204 993 l 65 993 l 197 1204 l 379 1204 l 508 993 z "},"ˇ":{"ha":575,"x_min":65,"x_max":508,"o":"m 65 1204 l 204 1204 l 282 1064 l 294 1064 l 371 1204 l 508 1204 l 378 993 l 196 993 l 65 1204 z "},"˘":{"ha":575,"x_min":65,"x_max":508,"o":"m 508 1204 q 499 1140 508 1176 q 469 1072 490 1104 q 415 1016 449 1039 q 331 993 381 993 l 244 993 q 160 1016 194 993 q 106 1072 126 1039 q 75 1140 85 1104 q 65 1204 65 1176 l 204 1204 q 208 1167 204 1189 q 220 1125 211 1144 q 244 1092 229 1106 q 282 1078 258 1078 l 301 1078 q 335 1092 322 1078 q 356 1125 349 1106 q 367 1167 364 1144 q 371 1204 371 1189 l 508 1204 z "},"˙":{"ha":307,"x_min":36,"x_max":274,"o":"m 36 1118 q 71 1195 36 1168 q 154 1222 106 1222 q 239 1195 204 1222 q 274 1118 274 1168 q 239 1043 274 1069 q 154 1017 204 1017 q 71 1043 106 1017 q 36 1118 36 1069 z "},"˚":{"ha":532,"x_min":65,"x_max":467,"o":"m 200 1213 q 174 1188 174 1213 l 174 1117 q 200 1092 174 1092 l 331 1092 q 358 1117 358 1092 l 358 1188 q 331 1213 358 1213 l 200 1213 m 467 1108 q 322 993 467 993 l 208 993 q 65 1108 65 993 l 65 1196 q 208 1313 65 1313 l 322 1313 q 467 1196 467 1313 l 467 1108 z "},"˛":{"ha":429,"x_min":54,"x_max":364,"o":"m 364 -347 l 219 -347 q 98 -311 142 -347 q 54 -226 54 -275 q 71 -165 54 -196 q 124 -104 88 -133 l 251 0 l 364 0 l 213 -122 q 199 -147 199 -135 q 229 -169 199 -169 l 364 -169 l 364 -347 z "},"˜":{"ha":546,"x_min":65,"x_max":479,"o":"m 374 1017 q 322 1026 347 1017 q 273 1045 297 1035 q 224 1065 249 1056 q 172 1074 199 1074 q 112 1059 140 1074 q 65 1024 83 1044 l 65 1139 q 113 1171 85 1161 q 172 1181 140 1181 q 224 1172 199 1181 q 273 1151 249 1163 q 322 1131 297 1140 q 374 1122 346 1122 q 433 1137 406 1122 q 479 1172 461 1151 l 479 1058 q 433 1026 460 1035 q 374 1017 406 1017 z "},"˝":{"ha":628,"x_min":106,"x_max":601,"o":"m 464 1007 l 358 1007 l 428 1204 l 601 1204 l 464 1007 m 210 1007 l 106 1007 l 174 1204 l 349 1204 l 210 1007 z "},"̦":{"ha":360,"x_min":90,"x_max":306,"o":"m 306 -43 l 190 -354 l 90 -354 l 90 -43 l 306 -43 z "},"Ẁ":{"ha":1750,"x_min":18,"x_max":1728,"o":"m 1019 346 q 967 441 989 400 q 926 515 944 482 q 895 574 908 547 q 869 625 882 600 q 845 574 858 600 q 815 515 832 547 q 775 442 797 482 q 722 347 753 401 l 574 83 q 510 12 549 39 q 415 -15 472 -15 q 317 16 361 -15 q 254 113 274 47 l 18 929 l 306 929 l 393 606 q 430 467 415 526 q 456 350 444 407 q 508 458 478 399 q 586 607 538 517 l 711 840 q 747 895 729 875 q 785 926 765 915 q 828 941 806 938 q 875 944 850 944 q 924 941 901 944 q 966 926 946 938 q 1005 895 986 915 q 1042 840 1024 875 l 1165 606 q 1211 520 1192 557 q 1246 453 1231 483 q 1273 399 1261 424 q 1296 350 1285 374 q 1323 467 1307 406 q 1360 606 1339 528 l 1447 929 l 1728 929 l 1488 113 q 1424 16 1468 47 q 1326 -15 1381 -15 q 1233 11 1271 -15 q 1168 83 1194 38 l 1019 346 m 1042 993 l 628 1047 l 628 1204 l 1042 1108 l 1042 993 z "},"ẁ":{"ha":1750,"x_min":18,"x_max":1728,"o":"m 1019 346 q 967 441 989 400 q 926 515 944 482 q 895 574 908 547 q 869 625 882 600 q 845 574 858 600 q 815 515 832 547 q 775 442 797 482 q 722 347 753 401 l 574 83 q 510 12 549 39 q 415 -15 472 -15 q 317 16 361 -15 q 254 113 274 47 l 18 929 l 306 929 l 393 606 q 430 467 415 526 q 456 350 444 407 q 508 458 478 399 q 586 607 538 517 l 711 840 q 747 895 729 875 q 785 926 765 915 q 828 941 806 938 q 875 944 850 944 q 924 941 901 944 q 966 926 946 938 q 1005 895 986 915 q 1042 840 1024 875 l 1165 606 q 1211 520 1192 557 q 1246 453 1231 483 q 1273 399 1261 424 q 1296 350 1285 374 q 1323 467 1307 406 q 1360 606 1339 528 l 1447 929 l 1728 929 l 1488 113 q 1424 16 1468 47 q 1326 -15 1381 -15 q 1233 11 1271 -15 q 1168 83 1194 38 l 1019 346 m 1042 993 l 628 1047 l 628 1204 l 1042 1108 l 1042 993 z "},"Ẃ":{"ha":1750,"x_min":18,"x_max":1728,"o":"m 1019 346 q 967 441 989 400 q 926 515 944 482 q 895 574 908 547 q 869 625 882 600 q 845 574 858 600 q 815 515 832 547 q 775 442 797 482 q 722 347 753 401 l 574 83 q 510 12 549 39 q 415 -15 472 -15 q 317 16 361 -15 q 254 113 274 47 l 18 929 l 306 929 l 393 606 q 430 467 415 526 q 456 350 444 407 q 508 458 478 399 q 586 607 538 517 l 711 840 q 747 895 729 875 q 785 926 765 915 q 828 941 806 938 q 875 944 850 944 q 924 941 901 944 q 966 926 946 938 q 1005 895 986 915 q 1042 840 1024 875 l 1165 606 q 1211 520 1192 557 q 1246 453 1231 483 q 1273 399 1261 424 q 1296 350 1285 374 q 1323 467 1307 406 q 1360 606 1339 528 l 1447 929 l 1728 929 l 1488 113 q 1424 16 1468 47 q 1326 -15 1381 -15 q 1233 11 1271 -15 q 1168 83 1194 38 l 1019 346 m 1121 1047 l 707 993 l 707 1108 l 1121 1204 l 1121 1047 z "},"ẃ":{"ha":1750,"x_min":18,"x_max":1728,"o":"m 1019 346 q 967 441 989 400 q 926 515 944 482 q 895 574 908 547 q 869 625 882 600 q 845 574 858 600 q 815 515 832 547 q 775 442 797 482 q 722 347 753 401 l 574 83 q 510 12 549 39 q 415 -15 472 -15 q 317 16 361 -15 q 254 113 274 47 l 18 929 l 306 929 l 393 606 q 430 467 415 526 q 456 350 444 407 q 508 458 478 399 q 586 607 538 517 l 711 840 q 747 895 729 875 q 785 926 765 915 q 828 941 806 938 q 875 944 850 944 q 924 941 901 944 q 966 926 946 938 q 1005 895 986 915 q 1042 840 1024 875 l 1165 606 q 1211 520 1192 557 q 1246 453 1231 483 q 1273 399 1261 424 q 1296 350 1285 374 q 1323 467 1307 406 q 1360 606 1339 528 l 1447 929 l 1728 929 l 1488 113 q 1424 16 1468 47 q 1326 -15 1381 -15 q 1233 11 1271 -15 q 1168 83 1194 38 l 1019 346 m 1121 1047 l 707 993 l 707 1108 l 1121 1204 l 1121 1047 z "},"Ẅ":{"ha":1750,"x_min":18,"x_max":1728,"o":"m 1019 346 q 967 441 989 400 q 926 515 944 482 q 895 574 908 547 q 869 625 882 600 q 845 574 858 600 q 815 515 832 547 q 775 442 797 482 q 722 347 753 401 l 574 83 q 510 12 549 39 q 415 -15 472 -15 q 317 16 361 -15 q 254 113 274 47 l 18 929 l 306 929 l 393 606 q 430 467 415 526 q 456 350 444 407 q 508 458 478 399 q 586 607 538 517 l 711 840 q 747 895 729 875 q 785 926 765 915 q 828 941 806 938 q 875 944 850 944 q 924 941 901 944 q 966 926 946 938 q 1005 895 986 915 q 1042 840 1024 875 l 1165 606 q 1211 520 1192 557 q 1246 453 1231 483 q 1273 399 1261 424 q 1296 350 1285 374 q 1323 467 1307 406 q 1360 606 1339 528 l 1447 929 l 1728 929 l 1488 113 q 1424 16 1468 47 q 1326 -15 1381 -15 q 1233 11 1271 -15 q 1168 83 1194 38 l 1019 346 m 613 1118 q 647 1195 613 1168 q 731 1222 682 1222 q 815 1195 781 1222 q 850 1118 850 1168 q 815 1043 850 1069 q 731 1017 781 1017 q 647 1043 682 1017 q 613 1118 613 1069 m 901 1118 q 936 1195 901 1168 q 1019 1222 971 1222 q 1104 1195 1069 1222 q 1139 1118 1139 1168 q 1104 1043 1139 1069 q 1019 1017 1069 1017 q 936 1043 971 1017 q 901 1118 901 1069 z "},"ẅ":{"ha":1750,"x_min":18,"x_max":1728,"o":"m 1019 346 q 967 441 989 400 q 926 515 944 482 q 895 574 908 547 q 869 625 882 600 q 845 574 858 600 q 815 515 832 547 q 775 442 797 482 q 722 347 753 401 l 574 83 q 510 12 549 39 q 415 -15 472 -15 q 317 16 361 -15 q 254 113 274 47 l 18 929 l 306 929 l 393 606 q 430 467 415 526 q 456 350 444 407 q 508 458 478 399 q 586 607 538 517 l 711 840 q 747 895 729 875 q 785 926 765 915 q 828 941 806 938 q 875 944 850 944 q 924 941 901 944 q 966 926 946 938 q 1005 895 986 915 q 1042 840 1024 875 l 1165 606 q 1211 520 1192 557 q 1246 453 1231 483 q 1273 399 1261 424 q 1296 350 1285 374 q 1323 467 1307 406 q 1360 606 1339 528 l 1447 929 l 1728 929 l 1488 113 q 1424 16 1468 47 q 1326 -15 1381 -15 q 1233 11 1271 -15 q 1168 83 1194 38 l 1019 346 m 613 1118 q 647 1195 613 1168 q 731 1222 682 1222 q 815 1195 781 1222 q 850 1118 850 1168 q 815 1043 850 1069 q 731 1017 781 1017 q 647 1043 682 1017 q 613 1118 613 1069 m 901 1118 q 936 1195 901 1168 q 1019 1222 971 1222 q 1104 1195 1069 1222 q 1139 1118 1139 1168 q 1104 1043 1139 1069 q 1019 1017 1069 1017 q 936 1043 971 1017 q 901 1118 901 1069 z "},"Ỳ":{"ha":1428,"x_min":11,"x_max":1418,"o":"m 1418 929 l 867 307 l 867 0 l 578 0 l 578 308 l 11 929 l 381 929 l 603 671 q 632 638 614 658 q 669 596 650 618 q 706 554 689 574 q 729 525 722 535 q 769 578 743 544 q 846 672 796 611 l 1057 929 l 1418 929 m 881 993 l 467 1047 l 467 1204 l 881 1108 l 881 993 z "},"ỳ":{"ha":1428,"x_min":11,"x_max":1418,"o":"m 1418 929 l 867 307 l 867 0 l 578 0 l 578 308 l 11 929 l 381 929 l 603 671 q 632 638 614 658 q 669 596 650 618 q 706 554 689 574 q 729 525 722 535 q 769 578 743 544 q 846 672 796 611 l 1057 929 l 1418 929 m 881 993 l 467 1047 l 467 1204 l 881 1108 l 881 993 z "},"–":{"ha":868,"x_min":21,"x_max":849,"o":"m 849 560 l 708 381 l 21 381 l 161 560 l 849 560 z "},"—":{"ha":1393,"x_min":21,"x_max":1375,"o":"m 1375 560 l 1235 381 l 21 381 l 161 560 l 1375 560 z "},"‘":{"ha":304,"x_min":24,"x_max":281,"o":"m 281 929 l 281 557 l 160 557 l 24 929 l 281 929 z "},"’":{"ha":304,"x_min":24,"x_max":281,"o":"m 281 929 l 143 557 l 24 557 l 24 929 l 281 929 z "},"‚":{"ha":304,"x_min":24,"x_max":281,"o":"m 281 239 l 143 -133 l 24 -133 l 24 239 l 281 239 z "},"“":{"ha":619,"x_min":24,"x_max":596,"o":"m 281 929 l 281 557 l 160 557 l 24 929 l 281 929 m 596 929 l 596 557 l 476 557 l 339 929 l 596 929 z "},"”":{"ha":619,"x_min":24,"x_max":596,"o":"m 596 929 l 458 557 l 339 557 l 339 929 l 596 929 m 281 929 l 143 557 l 24 557 l 24 929 l 281 929 z "},"„":{"ha":619,"x_min":24,"x_max":596,"o":"m 596 239 l 458 -133 l 339 -133 l 339 239 l 596 239 m 281 239 l 143 -133 l 24 -133 l 24 239 l 281 239 z "},"†":{"ha":596,"x_min":60,"x_max":526,"o":"m 354 678 l 526 625 l 356 571 l 311 0 l 275 0 l 233 571 l 60 625 l 233 678 l 276 929 l 310 929 l 354 678 z "},"‡":{"ha":606,"x_min":65,"x_max":526,"o":"m 354 717 l 526 674 l 526 646 l 356 601 l 356 326 l 526 283 l 526 256 l 354 213 l 313 -1 l 281 -1 l 236 213 l 67 256 l 67 283 l 235 326 l 235 603 l 65 653 l 68 682 l 236 718 l 281 929 l 313 929 l 354 717 z "},"•":{"ha":636,"x_min":82,"x_max":554,"o":"m 82 465 q 101 557 82 514 q 151 632 119 600 q 226 683 183 664 q 318 701 269 701 q 410 683 367 701 q 485 632 453 664 q 535 557 517 600 q 554 465 554 514 q 535 374 554 417 q 485 299 517 331 q 410 248 453 267 q 318 229 367 229 q 226 248 269 229 q 151 299 183 267 q 101 374 119 331 q 82 465 82 417 z "},"…":{"ha":2143,"x_min":58,"x_max":2085,"o":"m 58 118 q 103 219 58 183 q 214 254 149 254 q 326 219 281 254 q 371 118 371 183 q 326 19 371 54 q 214 -15 281 -15 q 103 19 149 -15 q 58 118 58 54 m 915 118 q 960 219 915 183 q 1071 254 1006 254 q 1183 219 1138 254 q 1228 118 1228 183 q 1183 19 1228 54 q 1071 -15 1138 -15 q 960 19 1006 -15 q 915 118 915 54 m 1772 118 q 1817 219 1772 183 q 1928 254 1863 254 q 2040 219 1994 254 q 2085 118 2085 183 q 2040 19 2085 54 q 1928 -15 1994 -15 q 1817 19 1863 -15 q 1772 118 1772 54 z "},"‰":{"ha":1888,"x_min":58,"x_max":1831,"o":"m 356 961 q 578 904 504 961 q 651 722 651 847 q 578 539 651 596 q 356 482 504 482 q 132 539 206 482 q 58 722 58 596 q 132 904 58 847 q 356 961 206 961 m 356 603 q 427 608 397 603 q 475 625 457 613 q 501 661 493 638 q 510 722 510 685 q 501 783 510 760 q 475 819 493 806 q 427 836 457 832 q 356 840 397 840 q 283 836 313 840 q 235 819 254 832 q 208 783 217 806 q 200 722 200 760 q 208 661 200 685 q 235 625 217 638 q 283 608 254 613 q 356 603 313 603 m 1061 981 l 321 -53 l 194 -53 l 944 981 l 1061 981 m 914 458 q 1136 401 1063 458 q 1210 219 1210 344 q 1136 36 1210 93 q 914 -21 1063 -21 q 690 36 764 -21 q 617 219 617 93 q 690 401 617 344 q 914 458 764 458 m 914 100 q 985 105 956 100 q 1033 122 1015 110 q 1060 158 1051 135 q 1068 219 1068 182 q 1060 280 1068 257 q 1033 316 1051 303 q 985 333 1015 329 q 914 338 956 338 q 842 333 871 338 q 794 316 813 329 q 767 280 775 303 q 758 219 758 257 q 767 158 758 182 q 794 122 775 135 q 842 105 813 110 q 914 100 871 100 m 1535 458 q 1757 401 1683 458 q 1831 219 1831 344 q 1757 36 1831 93 q 1535 -21 1683 -21 q 1311 36 1385 -21 q 1238 219 1238 93 q 1311 401 1238 344 q 1535 458 1385 458 m 1535 100 q 1606 105 1576 100 q 1654 122 1636 110 q 1681 158 1672 135 q 1689 219 1689 182 q 1681 280 1689 257 q 1654 316 1672 303 q 1606 333 1636 329 q 1535 338 1576 338 q 1463 333 1492 338 q 1415 316 1433 329 q 1388 280 1396 303 q 1379 219 1379 257 q 1388 158 1379 182 q 1415 122 1396 135 q 1463 105 1433 110 q 1535 100 1492 100 z "},"‹":{"ha":340,"x_min":40,"x_max":282,"o":"m 125 451 l 282 349 l 282 219 l 40 383 l 40 510 l 282 683 l 282 551 l 125 451 z "},"›":{"ha":340,"x_min":64,"x_max":307,"o":"m 64 551 l 64 683 l 307 510 l 307 383 l 64 219 l 64 349 l 222 451 l 64 551 z "},"⁄":{"ha":393,"x_min":-229,"x_max":638,"o":"m 638 981 l -103 -53 l -229 -53 l 521 981 l 638 981 z "},"⁰":{"ha":690,"x_min":49,"x_max":642,"o":"m 346 961 q 568 904 494 961 q 642 722 642 847 q 568 539 642 596 q 346 482 494 482 q 122 539 196 482 q 49 722 49 596 q 122 904 49 847 q 346 961 196 961 m 346 603 q 417 608 388 603 q 465 625 447 613 q 492 661 483 638 q 500 722 500 685 q 492 783 500 760 q 465 819 483 806 q 417 836 447 832 q 346 840 388 840 q 274 836 303 840 q 226 819 244 832 q 199 783 207 806 q 190 722 190 760 q 199 661 190 685 q 226 625 207 638 q 274 608 244 613 q 346 603 303 603 z "},"⁴":{"ha":706,"x_min":39,"x_max":682,"o":"m 110 544 q 58 564 76 544 q 39 608 39 583 q 69 664 39 639 l 404 936 q 440 956 422 951 q 471 961 457 961 q 526 941 501 961 q 550 875 550 921 l 550 660 l 682 660 l 599 544 l 550 544 l 550 490 l 411 490 l 411 544 l 110 544 m 411 728 q 412 763 411 750 q 414 788 413 776 q 393 769 406 779 q 364 744 381 758 l 313 703 q 277 676 293 688 q 250 657 261 665 q 284 659 265 658 q 329 660 303 660 l 411 660 l 411 728 z "},"⁵":{"ha":664,"x_min":49,"x_max":615,"o":"m 599 954 l 506 833 l 215 833 l 215 768 l 440 768 q 570 737 525 768 q 615 640 615 706 q 569 530 615 569 q 415 490 522 490 l 49 490 l 140 610 l 428 610 q 476 642 476 610 q 428 676 476 676 l 72 676 l 72 954 l 599 954 z "},"⁶":{"ha":714,"x_min":49,"x_max":665,"o":"m 322 833 q 245 816 278 833 q 197 768 213 799 l 490 768 q 618 735 571 768 q 665 639 665 703 q 641 561 665 592 q 576 513 617 531 q 483 489 536 496 q 375 482 431 482 q 131 540 213 482 q 49 726 49 599 q 69 819 49 776 q 128 891 90 861 q 217 938 165 921 q 329 954 268 954 l 628 954 l 535 833 l 322 833 m 197 676 q 256 616 210 629 q 382 603 301 603 q 456 606 428 603 q 501 613 485 608 q 523 626 517 618 q 529 644 529 633 q 479 676 529 676 l 197 676 z "},"⁷":{"ha":625,"x_min":28,"x_max":600,"o":"m 279 490 l 97 490 l 326 746 q 380 806 363 786 q 411 836 397 825 q 363 833 392 833 q 281 833 335 833 l 28 833 l 119 954 l 521 954 q 581 936 561 954 q 600 892 600 918 q 595 866 600 879 q 576 838 590 853 l 279 490 z "},"⁸":{"ha":700,"x_min":49,"x_max":651,"o":"m 236 490 q 146 501 182 490 q 88 528 110 511 q 58 571 67 546 q 49 625 49 596 q 69 693 49 667 q 121 729 90 719 q 78 760 97 736 q 58 825 58 785 q 108 922 58 889 q 240 954 157 954 l 460 954 q 594 922 544 954 q 643 825 643 889 q 623 760 643 785 q 579 729 603 736 q 631 693 611 719 q 651 625 651 667 q 642 571 651 596 q 612 528 633 546 q 554 501 590 511 q 464 490 518 490 l 236 490 m 236 672 q 192 640 192 672 q 236 610 192 610 l 464 610 q 508 640 508 610 q 464 672 508 672 l 236 672 m 233 833 q 206 827 218 833 q 194 804 194 821 q 206 779 194 786 q 233 772 218 772 l 467 772 q 494 779 482 772 q 506 804 506 786 q 494 827 506 821 q 467 833 482 833 l 233 833 z "},"⁹":{"ha":714,"x_min":49,"x_max":665,"o":"m 392 610 q 469 632 438 610 q 517 686 501 654 q 488 682 504 683 q 442 678 472 681 q 360 676 413 676 q 222 675 308 675 q 96 708 143 675 q 49 804 49 740 q 73 882 49 851 q 138 931 97 913 q 230 955 178 949 q 339 961 282 961 q 583 905 500 961 q 665 732 665 849 q 644 631 665 675 q 585 555 622 586 q 496 507 547 524 q 385 490 444 490 l 92 490 l 183 610 l 392 610 m 233 767 q 362 767 314 767 q 439 769 410 768 q 484 771 468 769 q 515 774 500 772 q 458 829 504 818 q 331 840 413 840 q 258 838 286 840 q 213 830 229 835 q 190 817 196 825 q 183 799 183 808 q 233 767 183 767 z "},"₀":{"ha":690,"x_min":49,"x_max":642,"o":"m 346 458 q 568 401 494 458 q 642 219 642 344 q 568 36 642 93 q 346 -21 494 -21 q 122 36 196 -21 q 49 219 49 93 q 122 401 49 344 q 346 458 196 458 m 346 100 q 417 105 388 100 q 465 122 447 110 q 492 158 483 135 q 500 219 500 182 q 492 280 500 257 q 465 316 483 303 q 417 333 447 329 q 346 338 388 338 q 274 333 303 338 q 226 316 244 329 q 199 280 207 303 q 190 219 190 257 q 199 158 190 182 q 226 122 207 135 q 274 105 244 110 q 346 100 303 100 z "},"₁":{"ha":349,"x_min":28,"x_max":285,"o":"m 114 451 l 285 451 l 285 -12 l 140 -12 l 140 331 l 28 331 l 114 451 z "},"₂":{"ha":689,"x_min":53,"x_max":640,"o":"m 164 451 l 436 451 q 590 413 543 451 q 636 307 636 374 q 594 210 636 247 q 461 174 551 174 l 240 174 q 192 139 192 174 l 192 107 l 640 107 l 547 -12 l 53 -12 l 53 138 q 97 234 53 203 q 228 265 142 265 l 449 265 q 497 299 497 265 q 449 331 497 331 l 72 331 l 164 451 z "},"₃":{"ha":672,"x_min":26,"x_max":624,"o":"m 117 107 l 435 107 q 479 138 479 107 q 435 169 479 169 l 157 169 l 232 269 l 438 269 q 465 276 453 269 q 478 301 478 283 q 465 324 478 318 q 438 331 453 331 l 49 331 l 140 451 l 431 451 q 565 419 515 451 q 614 322 614 386 q 594 258 614 282 q 551 226 575 233 q 603 190 582 217 q 624 122 624 164 q 615 68 624 93 q 584 26 606 43 q 526 -2 563 8 q 435 -12 489 -12 l 26 -12 l 117 107 z "},"₄":{"ha":706,"x_min":39,"x_max":682,"o":"m 110 42 q 58 61 76 42 q 39 106 39 81 q 69 161 39 136 l 404 433 q 440 453 422 449 q 471 458 457 458 q 526 438 501 458 q 550 372 550 418 l 550 157 l 682 157 l 599 42 l 550 42 l 550 -12 l 411 -12 l 411 42 l 110 42 m 411 225 q 412 260 411 247 q 414 285 413 274 q 393 266 406 276 q 364 242 381 256 l 313 200 q 277 174 293 185 q 250 154 261 163 q 284 156 265 156 q 329 157 303 157 l 411 157 l 411 225 z "},"₅":{"ha":664,"x_min":49,"x_max":615,"o":"m 599 451 l 506 331 l 215 331 l 215 265 l 440 265 q 570 234 525 265 q 615 138 615 203 q 569 27 615 67 q 415 -12 522 -12 l 49 -12 l 140 107 l 428 107 q 476 139 476 107 q 428 174 476 174 l 72 174 l 72 451 l 599 451 z "},"₆":{"ha":714,"x_min":49,"x_max":665,"o":"m 322 331 q 245 313 278 331 q 197 265 213 296 l 490 265 q 618 233 571 265 q 665 136 665 200 q 641 58 665 89 q 576 10 617 28 q 483 -14 536 -7 q 375 -21 431 -21 q 131 38 213 -21 q 49 224 49 96 q 69 316 49 274 q 128 388 90 358 q 217 435 165 418 q 329 451 268 451 l 628 451 l 535 331 l 322 331 m 197 174 q 256 113 210 126 q 382 100 301 100 q 456 103 428 100 q 501 110 485 106 q 523 123 517 115 q 529 142 529 131 q 479 174 529 174 l 197 174 z "},"₇":{"ha":625,"x_min":28,"x_max":600,"o":"m 279 -12 l 97 -12 l 326 243 q 380 303 363 283 q 411 333 397 322 q 363 331 392 331 q 281 331 335 331 l 28 331 l 119 451 l 521 451 q 581 433 561 451 q 600 389 600 415 q 595 363 600 376 q 576 335 590 350 l 279 -12 z "},"₈":{"ha":700,"x_min":49,"x_max":651,"o":"m 236 -12 q 146 -2 182 -12 q 88 26 110 8 q 58 68 67 43 q 49 122 49 93 q 69 190 49 164 q 121 226 90 217 q 78 258 97 233 q 58 322 58 282 q 108 419 58 386 q 240 451 157 451 l 460 451 q 594 419 544 451 q 643 322 643 386 q 623 258 643 282 q 579 226 603 233 q 631 190 611 217 q 651 122 651 164 q 642 68 651 93 q 612 26 633 43 q 554 -2 590 8 q 464 -12 518 -12 l 236 -12 m 236 169 q 192 138 192 169 q 236 107 192 107 l 464 107 q 508 138 508 107 q 464 169 508 169 l 236 169 m 233 331 q 206 324 218 331 q 194 301 194 318 q 206 276 194 283 q 233 269 218 269 l 467 269 q 494 276 482 269 q 506 301 506 283 q 494 324 506 318 q 467 331 482 331 l 233 331 z "},"₉":{"ha":714,"x_min":49,"x_max":665,"o":"m 392 107 q 469 129 438 107 q 517 183 501 151 q 488 179 504 181 q 442 176 472 178 q 360 173 413 174 q 222 172 308 172 q 96 205 143 172 q 49 301 49 238 q 73 379 49 349 q 138 428 97 410 q 230 452 178 446 q 339 458 282 458 q 583 402 500 458 q 665 229 665 346 q 644 128 665 172 q 585 52 622 83 q 496 4 547 21 q 385 -12 444 -12 l 92 -12 l 183 107 l 392 107 m 233 264 q 362 265 314 264 q 439 266 410 265 q 484 268 468 267 q 515 271 500 269 q 458 326 504 315 q 331 338 413 338 q 258 335 286 338 q 213 327 229 332 q 190 314 196 322 q 183 296 183 306 q 233 264 183 264 z "},"€":{"ha":1235,"x_min":10,"x_max":1203,"o":"m 72 597 l 139 597 q 211 734 161 672 q 332 839 261 796 q 492 906 403 882 q 682 929 581 929 l 1203 929 l 1015 688 l 682 688 q 553 663 611 688 q 460 597 496 639 l 943 597 l 872 504 l 414 504 q 410 461 410 483 q 410 448 410 454 q 411 435 410 442 l 819 435 l 747 343 l 447 343 q 542 267 482 294 q 682 239 603 239 l 1150 239 l 965 0 l 682 0 q 494 25 582 0 q 335 95 406 50 q 215 203 265 140 q 142 343 165 267 l 10 343 l 72 435 l 124 435 q 122 453 122 444 q 122 474 122 463 q 122 489 122 481 q 124 504 122 497 l 10 504 l 72 597 z "},"℗":{"ha":1090,"x_min":61,"x_max":1022,"o":"m 794 526 q 744 413 794 456 q 601 369 693 369 l 411 369 l 411 242 l 322 242 l 322 444 l 608 444 q 676 467 653 444 q 699 526 699 490 q 676 586 699 564 q 608 608 653 608 l 349 608 l 411 686 l 601 686 q 744 642 693 686 q 794 526 794 597 m 61 465 q 99 653 61 565 q 201 806 136 740 q 354 908 267 871 q 542 946 442 946 q 729 908 642 946 q 882 806 817 871 q 985 653 947 740 q 1022 465 1022 565 q 985 278 1022 365 q 882 125 947 190 q 729 22 817 60 q 542 -15 642 -15 q 354 22 442 -15 q 201 125 267 60 q 99 278 136 190 q 61 465 61 365 m 118 464 q 151 298 118 375 q 242 163 185 221 q 378 72 300 106 q 544 39 456 39 q 710 72 632 39 q 845 163 788 106 q 936 298 903 221 q 969 464 969 375 q 936 630 969 551 q 845 767 903 708 q 710 859 788 825 q 544 893 632 893 q 378 859 456 893 q 242 767 300 825 q 151 630 185 708 q 118 464 118 551 z "},"™":{"ha":803,"x_min":47,"x_max":739,"o":"m 339 846 l 236 846 l 236 540 l 151 540 l 151 846 l 47 846 l 47 929 l 339 929 l 339 846 m 739 540 l 653 540 l 653 686 l 593 540 l 528 540 l 468 685 l 468 540 l 382 540 l 382 929 l 460 929 l 561 683 l 661 929 l 739 929 l 739 540 z "},"⅓":{"ha":1282,"x_min":58,"x_max":1224,"o":"m 144 954 l 315 954 l 315 490 l 171 490 l 171 833 l 58 833 l 144 954 m 950 981 l 210 -53 l 83 -53 l 833 981 l 950 981 m 717 107 l 1035 107 q 1079 138 1079 107 q 1035 169 1079 169 l 757 169 l 832 269 l 1038 269 q 1065 276 1053 269 q 1078 301 1078 283 q 1065 324 1078 318 q 1038 331 1053 331 l 649 331 l 740 451 l 1031 451 q 1165 419 1115 451 q 1214 322 1214 386 q 1194 258 1214 282 q 1151 226 1175 233 q 1203 190 1182 217 q 1224 122 1224 164 q 1215 68 1224 93 q 1184 26 1206 43 q 1126 -2 1163 8 q 1035 -12 1089 -12 l 626 -12 l 717 107 z "},"⅔":{"ha":1439,"x_min":58,"x_max":1382,"o":"m 169 954 l 442 954 q 595 915 549 954 q 642 810 642 876 q 599 713 642 750 q 467 676 557 676 l 246 676 q 197 642 197 676 l 197 610 l 646 610 l 553 490 l 58 490 l 58 640 q 103 737 58 706 q 233 768 147 768 l 454 768 q 503 801 503 768 q 454 833 503 833 l 78 833 l 169 954 m 1147 981 l 407 -53 l 281 -53 l 1031 981 l 1147 981 m 875 107 l 1193 107 q 1238 138 1238 107 q 1193 169 1238 169 l 915 169 l 990 269 l 1196 269 q 1224 276 1211 269 q 1236 301 1236 283 q 1224 324 1236 318 q 1196 331 1211 331 l 807 331 l 899 451 l 1189 451 q 1323 419 1274 451 q 1372 322 1372 386 q 1353 258 1372 282 q 1310 226 1333 233 q 1361 190 1340 217 q 1382 122 1382 164 q 1373 68 1382 93 q 1342 26 1364 43 q 1284 -2 1321 8 q 1193 -12 1247 -12 l 785 -12 l 875 107 z "},"⅛":{"ha":1336,"x_min":58,"x_max":1278,"o":"m 144 954 l 315 954 l 315 490 l 171 490 l 171 833 l 58 833 l 144 954 m 976 981 l 236 -53 l 110 -53 l 860 981 l 976 981 m 863 -12 q 772 -2 808 -12 q 715 26 736 8 q 684 68 693 43 q 675 122 675 93 q 696 190 675 164 q 747 226 717 217 q 704 258 724 233 q 685 322 685 282 q 734 419 685 386 q 867 451 783 451 l 1086 451 q 1220 419 1171 451 q 1269 322 1269 386 q 1249 258 1269 282 q 1206 226 1229 233 q 1258 190 1238 217 q 1278 122 1278 164 q 1269 68 1278 93 q 1238 26 1260 43 q 1181 -2 1217 8 q 1090 -12 1144 -12 l 863 -12 m 863 169 q 818 138 818 169 q 863 107 818 107 l 1090 107 q 1135 138 1135 107 q 1090 169 1135 169 l 863 169 m 860 331 q 833 324 844 331 q 821 301 821 318 q 833 276 821 283 q 860 269 844 269 l 1093 269 q 1120 276 1108 269 q 1132 301 1132 283 q 1120 324 1132 318 q 1093 331 1108 331 l 860 331 z "},"⅜":{"ha":1517,"x_min":58,"x_max":1458,"o":"m 149 610 l 467 610 q 511 640 511 610 q 467 672 511 672 l 189 672 l 264 772 l 469 772 q 497 779 485 772 q 510 804 510 786 q 497 827 510 821 q 469 833 485 833 l 81 833 l 172 954 l 463 954 q 597 922 547 954 q 646 825 646 889 q 626 760 646 785 q 583 729 607 736 q 635 693 614 719 q 656 625 656 667 q 647 571 656 596 q 616 528 638 546 q 558 501 594 511 q 467 490 521 490 l 58 490 l 149 610 m 1183 981 l 443 -53 l 317 -53 l 1067 981 l 1183 981 m 1043 -12 q 953 -2 989 -12 q 895 26 917 8 q 865 68 874 43 q 856 122 856 93 q 876 190 856 164 q 928 226 897 217 q 885 258 904 233 q 865 322 865 282 q 915 419 865 386 q 1047 451 964 451 l 1267 451 q 1401 419 1351 451 q 1450 322 1450 386 q 1430 258 1450 282 q 1386 226 1410 233 q 1438 190 1418 217 q 1458 122 1458 164 q 1449 68 1458 93 q 1419 26 1440 43 q 1361 -2 1397 8 q 1271 -12 1325 -12 l 1043 -12 m 1043 169 q 999 138 999 169 q 1043 107 999 107 l 1271 107 q 1315 138 1315 107 q 1271 169 1315 169 l 1043 169 m 1040 331 q 1013 324 1025 331 q 1001 301 1001 318 q 1013 276 1001 283 q 1040 269 1025 269 l 1274 269 q 1301 276 1289 269 q 1313 301 1313 283 q 1301 324 1313 318 q 1274 331 1289 331 l 1040 331 z "},"⅝":{"ha":1474,"x_min":58,"x_max":1415,"o":"m 608 954 l 515 833 l 225 833 l 225 768 l 450 768 q 580 737 535 768 q 625 640 625 706 q 578 530 625 569 q 425 490 532 490 l 58 490 l 150 610 l 438 610 q 486 642 486 610 q 438 676 486 676 l 82 676 l 82 954 l 608 954 m 1140 981 l 400 -53 l 274 -53 l 1024 981 l 1140 981 m 1000 -12 q 910 -2 946 -12 q 852 26 874 8 q 822 68 831 43 q 813 122 813 93 q 833 190 813 164 q 885 226 854 217 q 842 258 861 233 q 822 322 822 282 q 872 419 822 386 q 1004 451 921 451 l 1224 451 q 1358 419 1308 451 q 1407 322 1407 386 q 1387 258 1407 282 q 1343 226 1367 233 q 1395 190 1375 217 q 1415 122 1415 164 q 1406 68 1415 93 q 1376 26 1397 43 q 1318 -2 1354 8 q 1228 -12 1282 -12 l 1000 -12 m 1000 169 q 956 138 956 169 q 1000 107 956 107 l 1228 107 q 1272 138 1272 107 q 1228 169 1272 169 l 1000 169 m 997 331 q 970 324 982 331 q 958 301 958 318 q 970 276 958 283 q 997 269 982 269 l 1231 269 q 1258 276 1246 269 q 1269 301 1269 283 q 1258 324 1269 318 q 1231 331 1246 331 l 997 331 z "},"⅞":{"ha":1364,"x_min":58,"x_max":1306,"o":"m 310 490 l 128 490 l 357 746 q 410 806 393 786 q 442 836 428 825 q 394 833 422 833 q 311 833 365 833 l 58 833 l 150 954 l 551 954 q 611 936 592 954 q 631 892 631 918 q 626 866 631 879 q 607 838 621 853 l 310 490 m 1031 981 l 290 -53 l 164 -53 l 914 981 l 1031 981 m 890 -12 q 800 -2 836 -12 q 742 26 764 8 q 712 68 721 43 q 703 122 703 93 q 724 190 703 164 q 775 226 744 217 q 732 258 751 233 q 713 322 713 282 q 762 419 713 386 q 894 451 811 451 l 1114 451 q 1248 419 1199 451 q 1297 322 1297 386 q 1277 258 1297 282 q 1233 226 1257 233 q 1285 190 1265 217 q 1306 122 1306 164 q 1297 68 1306 93 q 1266 26 1288 43 q 1208 -2 1244 8 q 1118 -12 1172 -12 l 890 -12 m 890 169 q 846 138 846 169 q 890 107 846 107 l 1118 107 q 1163 138 1163 107 q 1118 169 1163 169 l 890 169 m 888 331 q 860 324 872 331 q 849 301 849 318 q 860 276 849 283 q 888 269 872 269 l 1121 269 q 1148 276 1136 269 q 1160 301 1160 283 q 1148 324 1160 318 q 1121 331 1136 331 l 888 331 z "},"−":{"ha":874,"x_min":58,"x_max":817,"o":"m 817 394 l 58 394 l 58 550 l 817 550 l 817 394 z "},"≈":{"ha":788,"x_min":56,"x_max":728,"o":"m 531 478 q 454 494 492 478 q 379 529 417 510 q 303 565 342 549 q 228 581 265 581 q 144 555 188 581 q 56 467 101 529 l 56 694 q 156 768 108 750 q 246 786 203 786 q 321 770 283 786 q 396 735 358 754 q 472 701 433 717 q 551 685 511 685 q 634 709 592 685 q 724 796 676 733 l 724 568 q 623 497 671 515 q 531 478 575 478 m 535 150 q 458 166 496 150 q 383 201 421 182 q 308 237 346 221 q 232 253 269 253 q 149 227 192 253 q 60 139 106 201 l 60 367 q 160 440 113 422 q 250 458 207 458 q 325 442 288 458 q 400 408 363 426 q 476 373 438 389 q 556 357 515 357 q 638 381 596 357 q 728 468 681 406 l 728 240 q 627 169 675 188 q 535 150 579 150 z "},"≠":{"ha":874,"x_min":4,"x_max":869,"o":"m 817 578 l 582 578 l 429 365 l 817 365 l 817 210 l 318 210 l 131 -53 l 4 -53 l 194 210 l 58 210 l 58 365 l 307 365 l 461 578 l 58 578 l 58 733 l 574 733 l 753 981 l 869 981 l 693 733 l 817 733 l 817 578 z "},"≤":{"ha":849,"x_min":58,"x_max":817,"o":"m 792 75 l 108 394 q 70 426 82 406 q 58 468 58 446 q 70 511 58 492 q 108 543 82 531 l 792 863 l 792 693 l 307 468 l 792 244 l 792 75 m 817 -157 l 58 -157 l 58 -1 l 817 -1 l 817 -157 z "},"≥":{"ha":849,"x_min":58,"x_max":817,"o":"m 58 244 l 543 468 l 58 693 l 58 863 l 742 543 q 779 511 767 531 q 792 468 792 492 q 779 426 792 446 q 742 394 767 406 l 58 75 l 58 244 m 817 -157 l 58 -157 l 58 -1 l 817 -1 l 817 -157 z "},"":{"ha":532,"x_min":0,"x_max":0,"o":""}}}
